<!--
Talentmaker website

Copyright (C) 2020 Luke Zhang, Ethan Lim
https://Luke-zhang-04.github.io
https://github.com/ethanlim04

Author: Luke Zhang - luke-zhang-04.github.io

License: BSD-3-Clause
-->
<svg width="807" height="839" viewBox="0 0 807 839" fill="none" xmlns="http://www.w3.org/2000/svg"><title>Talentmaker SVG | Card</title><path fill-rule="evenodd" clip-rule="evenodd" d="M133 0C105.386 0 83 22.3858 83 50V674H77C63.1929 674 52 685.193 52 699C52 712.807 63.1929 724 77 724H83V743H25C11.1929 743 0 754.193 0 768C0 781.807 11.1929 793 25 793H83.1577C85.1954 818.744 106.732 839 133 839H636C663.614 839 686 816.614 686 789V179H689C702.807 179 714 167.807 714 154C714 140.193 702.807 129 689 129H686V112H725C738.807 112 750 100.807 750 87C750 73.1929 738.807 62 725 62H686V50C686 22.3858 663.614 0 636 0H133ZM787 107C798.046 107 807 98.0457 807 87C807 75.9543 798.046 67 787 67C775.954 67 767 75.9543 767 87C767 98.0457 775.954 107 787 107Z" fill="white"/></svg>
