<svg width="1006" height="774" viewBox="0 0 1006 774" fill="none" xmlns="http://www.w3.org/2000/svg">
<g filter="url(#filter0_d)">
<path d="M68.1291 357.719L364.014 194.318C367.492 192.41 371.458 191.403 375.499 191.403C379.539 191.403 383.505 192.41 386.983 194.318L934.796 494.248C938.132 496.085 940.902 498.688 942.838 501.807C944.774 504.925 945.811 508.455 945.849 512.054C945.887 515.653 944.924 519.2 943.054 522.353C941.184 525.507 938.469 528.159 935.173 530.056L658.921 688.269C653.141 691.585 646.501 693.385 639.706 693.479C632.911 693.574 626.215 691.958 620.331 688.804L68.405 393.806C65.0058 391.979 62.1796 389.36 60.2059 386.208C58.2322 383.056 57.1793 379.481 57.1514 375.836C57.1236 372.191 58.1217 368.602 60.047 365.425C61.9724 362.247 64.7582 359.591 68.1291 357.719V357.719Z" fill="#3F88C5" fill-opacity="0.76"/>
<path d="M289.365 229.38C288.427 230.077 287.4 230.663 286.306 231.125C286.329 231.193 286.335 231.265 286.324 231.335C286.313 231.405 286.284 231.472 286.24 231.531C286.197 231.589 286.139 231.637 286.073 231.672C286.006 231.707 285.931 231.727 285.855 231.73H284.225C282.504 232.107 280.716 232.131 278.984 231.801C277.252 231.472 275.618 230.797 274.195 229.823C271.789 228.842 269.53 227.575 267.475 226.053C262.46 222.377 257.445 216.933 251.753 213.117C251.753 214.187 251.903 215.258 252.029 216.281L253.257 226.542L255.439 244.736C255.439 245.062 255.439 246.016 255.614 246.295C265.093 257.649 291.096 253.648 291.096 253.648C291.096 253.648 306.492 216.747 289.365 229.38Z" fill="#3F88C5"/>
<path d="M683.695 535.221L616.394 580.823L715.114 638.106L778.679 598.32" fill="url(#paint0_linear)"/>
<path d="M291.697 364.862L261.106 386.361L296.888 408.766L332.695 381.289" fill="#0D60A5"/>
<path d="M183.022 329.916L128.735 361.954L203.534 402.275L266.246 363.583" fill="#0D60A5"/>
<path d="M313.437 343.224C313.437 343.224 310.704 357.347 315.142 358.999C319.581 360.651 337.71 373.75 334.951 379.008C328.758 391.061 291.722 364.862 291.722 364.862L296.311 334.988" fill="#032B43"/>
<path d="M290.043 289.222C290.043 291.945 287.535 338.92 287.535 338.92C287.535 338.92 308.122 356.533 323.443 355.416L330.965 309.813" fill="#032B43"/>
<path d="M253.834 327.31C253.834 327.31 281.166 330.218 297.264 314.792C306.617 305.811 324.295 290.479 324.295 290.479L259.1 286.035" fill="#032B43"/>
<path d="M289.642 116.7L390.293 171.307V197.272C390.293 197.272 372.189 186.826 370.559 201.554C368.879 216.7 390.293 222.726 390.293 222.726L389.591 262.698L347.189 240.595C347.189 240.595 348.016 223.238 334.651 217.747C320.534 212 321.687 227.054 321.687 227.054L288.864 209.767L289.642 116.7Z" fill="#032B43"/>
<path d="M390.292 130.264V96.6208C390.292 96.6208 379.134 95.9926 376.375 87.3142C373.617 78.6357 380.061 71.1904 390.292 74.5641V33.9405L519.203 103.461V150.506C519.203 150.506 540.566 152.251 539.965 166.793C539.363 181.335 519.203 171.702 519.203 171.702V199.32L464.263 168.678C464.263 168.678 469.278 148.668 451.3 142.107C438.286 137.454 436.731 154.229 436.731 154.229L390.292 130.264Z" fill="#032B43"/>
<path d="M389.59 262.675V295.109C389.59 295.109 370.157 283.475 363.863 294.388C357.569 305.3 386.155 316.793 386.155 316.793V354.671L519.203 425.937V332.335L389.59 262.675Z" fill="#032B43"/>
<path d="M304.235 124.587C304.235 124.587 301.903 143.713 312.861 149.204C323.192 154.369 325.223 135.383 325.223 135.383L367.073 157.626V61.3021L291.221 21.1671C291.221 21.1671 268.854 15.5365 265.018 32.4049L266.397 104.206L304.235 124.587Z" fill="#3F88C5" fill-opacity="0.76"/>
<path d="M436.731 195.225C436.731 195.225 435.503 179.566 454.61 182.475C473.717 185.383 466.846 213.35 466.846 213.35" fill="#3F88C5" fill-opacity="0.76"/>
<path d="M679.106 310.069L680.26 228.915C680.26 228.915 682.767 216.165 671.734 210.302L544.353 142.014V189.059C544.353 189.059 568.651 196.039 564.664 207.673C560.677 219.306 544.353 210.232 544.353 210.232V237.873L679.106 310.069Z" fill="#3F88C5" fill-opacity="0.76"/>
<path d="M288.864 209.767L321.587 227.1C321.587 227.1 320.484 210.558 334.551 217.794C348.618 225.03 347.089 240.642 347.089 240.642L393.302 264.816V359.115L297.29 307.231C292.687 303.824 289.642 298.929 288.764 293.527C287.711 284.732 288.864 209.767 288.864 209.767Z" fill="#3F88C5" fill-opacity="0.76"/>
<path d="M389.59 262.675L438.035 288.687C438.035 288.687 429.635 306.859 444.855 313.862C460.076 320.865 460.954 301.577 460.954 301.577L519.203 332.335V297.436C519.203 297.436 499.72 296.156 496.134 283.475C492.548 270.795 512.132 271.679 519.203 275.914V240.316L477.027 216.747L390.292 171.237V197.272C390.292 197.272 372.94 186.151 369.079 198.715C365.217 211.279 375.147 220.306 390.292 222.726L389.59 262.698" fill="#3F88C5" fill-opacity="0.76"/>
<path d="M519.203 348.087V387.501C519.203 387.501 498.917 377.915 495.256 387.92C491.595 397.924 519.203 410.162 519.203 410.162V441.735L623.239 497.575C623.239 497.575 647.085 510 651.85 485.686L652.401 418.213L598.54 389.688C598.54 389.688 602.226 365.63 585.476 358.65C568.726 351.67 570.431 374.82 570.431 374.82L519.203 348.087Z" fill="#3F88C5" fill-opacity="0.76"/>
<path d="M519.203 240.316L578.405 271.656C578.405 271.656 576.249 254.113 594.403 259.045C612.557 263.978 608.144 288.106 608.144 288.106L653.956 312.489L652.427 402.252L598.566 373.727C598.566 373.727 601.073 347.854 585.501 342.689C569.93 337.524 570.456 358.859 570.456 358.859L519.178 332.335V297.435C506.164 297.226 491.596 288.734 496.109 278.124C500.623 267.515 519.178 275.797 519.178 275.797V240.316" fill="#032B43"/>
<path d="M710.149 538.711C709.397 537.85 687.581 533.197 683.695 535.244C679.808 537.292 685.074 542.806 694.953 548.204C704.833 553.601 713.308 558.301 717.295 557.138C721.282 555.975 725.595 553.857 725.595 551.74V530.358" fill="#032B43"/>
<path d="M758.845 577.38C758.845 578.613 761.477 583.546 758.845 584.756C756.212 585.965 738.383 589.828 734.747 594.481C731.112 599.134 732.39 602.694 734.747 603.951C737.105 605.207 778.679 598.32 778.679 598.32L773.664 572.052" fill="#032B43"/>
<path d="M746.984 367.98C746.984 367.98 744.602 358.813 730.384 354.695C716.167 350.576 718.072 379.846 718.072 379.846" fill="#1D3F75"/>
<path d="M719.853 413.35C718.373 413.955 682.441 438.618 685.5 476.472C687.356 499.32 705.284 537.664 705.284 537.664C705.284 537.664 734.221 554.742 752.927 550.414" fill="#3F88C5"/>
<path d="M712.13 424.262C712.13 424.262 702.526 463.001 706.087 487.082C709.648 511.163 746.959 580.381 746.959 580.381C759.991 581.588 773.152 580.418 785.7 576.938C785.7 576.938 763.133 495.179 761.052 486.198C758.97 477.217 761.052 428.194 761.052 428.194" fill="#3F88C5"/>
<path d="M725.746 357.394C725.746 357.394 680.41 339.362 665.792 331.475C665.792 331.475 661.93 345.807 662.707 347.761C663.485 349.716 701.223 386.058 720.806 389.153" fill="#032B43"/>
<path d="M190.018 304.183C190.018 304.183 181.693 298.482 178.559 299.39C175.424 300.297 174.221 332.475 176.402 334.453C178.584 336.43 185.856 343.759 190.018 342.224C194.181 340.688 196.588 334.453 196.588 334.453" fill="#032B43"/>
<path d="M266.547 284.453L216.949 287.268L226.302 319.632L194.331 297.226C188.113 303.392 189.141 309.953 188.815 318.166C188.465 323.424 189.058 328.7 190.57 333.778C190.745 334.336 190.946 334.872 191.172 335.407C194.156 337.943 197.616 340.176 199.998 341.921C205.74 346.133 211.307 350.53 216.949 354.858C224.923 360.953 232.52 366.793 242.626 369.585C252.731 372.377 270.409 365.374 272.465 354.439C276.051 334.848 269.506 303.973 266.547 284.453Z" fill="#032B43"/>
<path d="M656.639 377.868L647.211 373.866C645.531 373.145 644.076 375.472 645.756 376.193L655.185 380.195C656.965 380.893 658.319 378.59 656.639 377.868Z" fill="#606060"/>
<path d="M759.22 426.147C753.921 410.729 749.19 395.155 745.028 379.427C744.577 377.752 741.793 378.473 742.245 380.148C746.39 395.877 751.121 411.45 756.437 426.868C756.989 428.473 759.772 427.752 759.22 426.147Z" fill="#606060"/>
<path d="M221.889 206.253C219.983 203.159 214.066 199.111 210.605 202.67C209.947 203.44 209.638 204.419 209.746 205.397C209.854 206.375 210.369 207.275 211.182 207.905C213.263 209.261 215.645 210.168 218.153 210.558C218.428 210.635 218.72 210.65 219.003 210.603C219.286 210.556 219.553 210.447 219.783 210.286C220.013 210.125 220.198 209.917 220.324 209.677C220.451 209.437 220.514 209.173 220.51 208.906C220.818 208.861 221.11 208.747 221.36 208.574C221.611 208.402 221.812 208.175 221.948 207.915C222.084 207.654 222.149 207.367 222.139 207.077C222.128 206.788 222.043 206.505 221.889 206.253V206.253Z" fill="#FBB5AD"/>
<path d="M264.215 264.723L213.363 253.089C213.363 253.089 214.943 273.564 216.923 287.221C226.026 291.014 237.109 290.944 246.763 289.548C253.61 288.814 260.283 287.054 266.522 284.336C268.551 283.36 270.495 282.239 272.339 280.986C271.562 276.146 264.842 269.725 264.215 264.723Z" fill="#3F88C5"/>
<path d="M275.825 274.657C275.825 278.357 274.772 287.477 274.546 291.177C253.132 285.872 206.844 271.493 203.634 241.875C203.164 237.849 203.679 233.778 205.138 229.962C208.2 226.075 211.79 222.571 215.82 219.539C221.287 214.885 228.057 210.069 235.579 208.836C244.832 207.3 252.129 212.884 258.774 218.701C261.281 224.076 254.06 229.334 255.013 234.802L267.951 270.865L275.85 274.634" fill="#3F88C5"/>
<path d="M235.705 196.249C235.705 196.249 241.322 220.469 232.721 223.541C224.12 226.612 215.344 221.028 213.815 216.561C212.904 212.743 212.701 208.809 213.213 204.927C213.213 204.927 219.732 196.319 235.705 196.249Z" fill="#FBB5AD"/>
<path d="M236.733 191.921C237.009 186.035 228.158 182.312 224.07 187.268C223.05 186.446 221.847 185.843 220.547 185.501C219.247 185.159 217.881 185.087 216.548 185.29C212.787 185.895 211.533 188.361 211.784 191.642C210.703 191.628 209.633 191.851 208.662 192.291C207.691 192.732 206.844 193.378 206.192 194.178C205.461 195.142 205.069 196.292 205.069 197.47C205.069 198.649 205.461 199.798 206.192 200.762C204.865 201.257 203.758 202.154 203.052 203.308C202.346 204.462 202.083 205.804 202.305 207.114C202.423 208.342 202.881 209.52 203.634 210.534C203.463 210.908 203.337 211.298 203.258 211.698C203.081 212.794 203.255 213.915 203.759 214.92C204.263 215.925 205.074 216.771 206.092 217.352C207.268 218.091 208.658 218.48 210.079 218.468C210.551 219.315 211.273 220.018 212.162 220.497C213.05 220.975 214.067 221.207 215.094 221.167C216.373 221.131 217.593 220.657 218.518 219.836C219.444 219.016 220.01 217.908 220.109 216.723C220.168 216.061 220.074 215.395 219.833 214.769C221.023 212.328 221.245 209.576 220.46 206.998C220.841 206.881 221.204 206.716 221.538 206.509C222.567 205.847 223.291 204.851 223.569 203.717C224.764 204.122 226.053 204.226 227.305 204.02C227.885 203.898 228.42 203.639 228.86 203.268C229.299 202.897 229.628 202.427 229.813 201.903C231.45 202.302 233.178 202.236 234.774 201.713C236.37 201.191 237.76 200.235 238.764 198.971C239.41 197.768 239.559 196.388 239.185 195.09C238.811 193.792 237.939 192.665 236.733 191.921V191.921Z" fill="#D86212"/>
<path d="M221.989 212.861C221.84 212.088 221.523 211.351 221.057 210.695C220.592 210.039 219.987 209.478 219.281 209.045C218.947 208.78 218.56 208.58 218.142 208.456C217.724 208.333 217.283 208.288 216.846 208.325C216.409 208.362 215.984 208.479 215.597 208.671C215.21 208.863 214.868 209.125 214.592 209.441C214.167 210.051 213.958 210.769 213.994 211.495C214.03 212.221 214.309 212.918 214.792 213.489C215.946 214.885 217.826 214.909 219.456 215.514C220.434 215.886 221.011 214.978 220.81 214.211C220.987 214.203 221.16 214.161 221.317 214.087C221.475 214.013 221.614 213.908 221.725 213.781C221.837 213.654 221.918 213.506 221.963 213.347C222.008 213.189 222.017 213.023 221.989 212.861V212.861Z" fill="#FBB5AD"/>
<path d="M234.05 206.789C234.05 206.23 232.997 206.463 233.123 207.021L233.925 210.814C234.105 211.384 234.231 211.968 234.301 212.559C234.301 213.606 233.749 213.792 232.897 214.28C232.787 214.339 232.707 214.436 232.674 214.549C232.641 214.663 232.658 214.783 232.721 214.885C232.785 214.987 232.889 215.061 233.011 215.092C233.133 215.123 233.264 215.107 233.373 215.048C234.477 214.42 235.404 214.118 235.329 212.722C235.033 210.722 234.606 208.74 234.05 206.789V206.789Z" fill="#56403D"/>
<path d="M236.256 205.765C236.13 205.765 236.009 205.811 235.919 205.894C235.83 205.977 235.78 206.09 235.78 206.207C235.78 206.324 235.83 206.437 235.919 206.519C236.009 206.602 236.13 206.649 236.256 206.649C236.383 206.649 236.504 206.602 236.593 206.519C236.682 206.437 236.733 206.324 236.733 206.207C236.733 206.09 236.682 205.977 236.593 205.894C236.504 205.811 236.383 205.765 236.256 205.765V205.765Z" fill="#56403D"/>
<path d="M226.979 208.673C226.853 208.673 226.731 208.72 226.642 208.803C226.553 208.885 226.502 208.998 226.502 209.115C226.502 209.232 226.553 209.345 226.642 209.428C226.731 209.511 226.853 209.557 226.979 209.557C227.105 209.557 227.226 209.511 227.316 209.428C227.405 209.345 227.455 209.232 227.455 209.115C227.455 208.998 227.405 208.885 227.316 208.803C227.226 208.72 227.105 208.673 226.979 208.673Z" fill="#56403D"/>
<path d="M231.894 216.747C231.157 217.037 230.332 217.069 229.571 216.838C228.81 216.607 228.166 216.128 227.756 215.49C227.693 215.388 227.589 215.314 227.467 215.284C227.344 215.253 227.214 215.269 227.104 215.327C226.995 215.386 226.915 215.483 226.882 215.596C226.849 215.71 226.866 215.831 226.929 215.932C227.47 216.775 228.327 217.402 229.336 217.694C230.345 217.986 231.434 217.922 232.395 217.514C232.947 217.328 232.47 216.561 231.894 216.747Z" fill="#56403D"/>
<path d="M290.87 269.399C289.758 269.418 288.675 269.727 287.743 270.29C286.812 270.854 286.071 271.65 285.604 272.587C284.827 273.82 284.326 275.146 283.448 276.333C282.019 278.24 280.941 277.496 278.834 276.612C276.728 275.728 274.647 278.706 276.903 279.683C278.64 280.697 280.605 281.326 282.646 281.521C283.279 281.392 283.878 281.144 284.404 280.792C284.93 280.44 285.373 279.991 285.705 279.474C285.786 279.764 285.951 280.028 286.182 280.238C286.413 280.447 286.701 280.595 287.016 280.664C287.33 280.733 287.659 280.722 287.967 280.631C288.275 280.54 288.55 280.373 288.764 280.148C290.837 278.318 292.477 276.107 293.578 273.657C293.76 273.213 293.832 272.737 293.789 272.264C293.745 271.791 293.588 271.333 293.328 270.924C293.068 270.515 292.712 270.165 292.286 269.902C291.861 269.638 291.377 269.466 290.87 269.399V269.399Z" fill="#FBB5AD"/>
<path d="M302.58 283.708C293.703 280.947 284.785 278.202 275.825 275.472C275.273 279.66 274.997 283.848 274.646 288.036C278.443 292.314 282.856 296.087 287.76 299.25C288.085 299.419 288.451 299.507 288.822 299.505C289.194 299.504 289.559 299.414 289.882 299.243C290.205 299.072 290.475 298.826 290.666 298.53C290.856 298.234 290.961 297.897 290.97 297.552C290.894 296.742 290.656 295.953 290.268 295.225C292.081 296.347 294.024 297.275 296.06 297.994C296.509 298.092 296.981 298.055 297.406 297.886C297.83 297.717 298.185 297.426 298.418 297.056C298.651 296.686 298.75 296.257 298.7 295.831C298.65 295.405 298.454 295.005 298.141 294.69L296.361 293.341C297.851 293.579 299.368 293.642 300.874 293.527C303.131 293.341 303.934 290.176 301.451 289.641C300.448 289.432 299.47 289.176 298.492 288.873C300.32 288.657 302.052 287.99 303.507 286.942C304.861 286.012 303.934 284.22 302.58 283.708Z" fill="#FBB5AD"/>
<path d="M293.001 217.468C291.424 217.982 289.978 218.795 288.757 219.854C287.535 220.914 286.565 222.198 285.907 223.625C285.249 225.051 284.918 226.589 284.935 228.141C284.952 229.693 285.317 231.224 286.005 232.638C286.126 232.933 286.349 233.183 286.64 233.347C286.931 233.512 287.272 233.581 287.61 233.545C287.682 232.029 288.1 230.545 288.834 229.19C289.569 227.834 290.605 226.639 291.873 225.681V225.681C293.779 224.215 296.161 222.866 296.888 221.028C298.067 218.329 295.76 216.607 293.001 217.468Z" fill="#FBB5AD"/>
<path d="M670.832 373.494C665.323 370.927 660.253 367.619 655.787 363.676C656.063 359.022 656.364 348.762 650.772 349.716C648.064 350.227 648.264 353.113 648.264 355.113C648.262 356.878 648.363 358.641 648.565 360.395C642.196 362.722 632.041 359.441 628.505 365.397C628.336 365.67 628.247 365.979 628.247 366.293C628.247 366.608 628.336 366.917 628.505 367.189C628.682 367.431 628.893 367.65 629.132 367.84C628.152 368.292 627.294 368.945 626.625 369.748C626.404 369.937 626.232 370.17 626.122 370.43C626.013 370.69 625.969 370.969 625.993 371.247C626.017 371.525 626.109 371.795 626.262 372.035C626.415 372.275 626.625 372.48 626.875 372.633C627.252 372.893 627.666 373.105 628.104 373.261C628.082 373.424 628.082 373.588 628.104 373.75C628.104 375.774 629.809 376.658 632.442 376.891C632.877 377.944 633.709 378.814 634.784 379.341C635.858 379.867 637.102 380.014 638.284 379.753C641.947 379.429 645.572 378.806 649.117 377.892C652.955 379.363 656.698 381.041 660.325 382.917C660.714 383.106 661.16 383.169 661.592 383.094C662.023 383.02 662.415 382.813 662.704 382.507C662.994 382.201 663.164 381.813 663.187 381.406C663.21 381 663.086 380.598 662.833 380.265C663.247 380.032 663.548 379.661 663.674 379.227C663.8 378.794 663.741 378.332 663.51 377.938C663.782 377.603 663.93 377.195 663.93 376.775C663.93 376.355 663.782 375.947 663.51 375.611C663.83 375.592 664.14 375.499 664.411 375.34C664.682 375.182 664.907 374.963 665.065 374.704C666.268 375.355 667.572 375.984 668.751 376.565C671.083 377.589 673.038 374.518 670.832 373.494Z" fill="#FBB5AD"/>
<path d="M644.427 365.653C639.399 366.741 634.243 367.234 629.081 367.119C628.955 367.119 628.834 367.166 628.745 367.249C628.655 367.332 628.605 367.444 628.605 367.561C628.605 367.678 628.655 367.791 628.745 367.874C628.834 367.957 628.955 368.003 629.081 368.003C634.327 368.119 639.568 367.619 644.678 366.514C645.28 366.491 645.004 365.653 644.427 365.653Z" fill="#56403D"/>
<path d="M642.12 371.889C637.652 372.9 633.046 373.284 628.455 373.029C627.828 373.029 627.828 373.89 628.455 373.913C633.138 374.173 637.838 373.781 642.396 372.75C642.998 372.633 642.722 371.749 642.12 371.889Z" fill="#56403D"/>
<path d="M641.218 375.472C638.437 376.216 635.561 376.607 632.667 376.635C632.541 376.635 632.42 376.682 632.33 376.765C632.241 376.848 632.191 376.96 632.191 377.077C632.191 377.195 632.241 377.307 632.33 377.39C632.42 377.473 632.541 377.519 632.667 377.519C635.646 377.486 638.607 377.079 641.469 376.309C641.569 376.264 641.648 376.188 641.694 376.094C641.74 375.999 641.748 375.893 641.719 375.794C641.689 375.694 641.622 375.608 641.531 375.549C641.44 375.49 641.329 375.463 641.218 375.472Z" fill="#56403D"/>
<path d="M708.444 402.275C707.967 406.37 709.773 415.863 712.13 424.262C720.38 428.432 729.641 430.579 739.035 430.498C746.46 430.803 753.89 430.018 761.051 428.171C759.923 407.882 751.497 361.814 740.991 362.745C727.726 363.932 714.637 378.497 714.637 378.497C690.014 381.847 657.792 359.883 657.792 359.883L651.022 379.171C666.369 393.273 686.86 401.518 708.444 402.275V402.275Z" fill="#032B43"/>
<path d="M665.841 333.638C660.826 328.008 657.542 323.773 650.546 320.307C648.464 319.283 645.305 321.54 646.985 323.61C649.106 325.933 651.447 328.075 653.981 330.009V330.172C653.981 330.172 653.981 330.381 653.981 330.474V330.614C652.792 333.956 652.989 337.59 654.533 340.805C656.633 343.7 659.443 346.092 662.732 347.785C663.81 343.085 664.964 338.385 665.841 333.638Z" fill="#FBB5AD"/>
<path d="M841.467 504.369L791.743 531.731C791.743 531.731 793.323 550.065 831.362 564.886L888.583 531.847" fill="url(#paint1_linear)"/>
<path d="M868.271 538.618C884.876 538.618 898.336 527.003 898.336 512.675C898.336 498.348 884.876 486.733 868.271 486.733C851.667 486.733 838.207 498.348 838.207 512.675C838.207 527.003 851.667 538.618 868.271 538.618Z" fill="#0D60A5"/>
<path d="M868.247 508.65C880.683 508.65 890.764 503.588 890.764 497.343C890.764 491.098 880.683 486.035 868.247 486.035C855.811 486.035 845.729 491.098 845.729 497.343C845.729 503.588 855.811 508.65 868.247 508.65Z" fill="#0D60A5"/>
<path d="M867.093 406.23V494.876C867.147 495.313 867.373 495.717 867.726 496.009C868.08 496.302 868.537 496.464 869.012 496.464C869.486 496.464 869.943 496.302 870.297 496.009C870.651 495.717 870.876 495.313 870.93 494.876V406.23C870.876 405.793 870.651 405.39 870.297 405.097C869.943 404.804 869.486 404.643 869.012 404.643C868.537 404.643 868.08 404.804 867.726 405.097C867.373 405.39 867.147 405.793 867.093 406.23Z" fill="#136F63"/>
<path d="M876.146 402.88C876.734 401.848 877.089 400.714 877.188 399.55C877.288 398.386 877.129 397.215 876.722 396.109C875.845 393.783 874.566 391.316 873.538 388.92C872.51 386.524 871.582 384.43 870.454 382.242C869.325 382.778 861.251 394.039 860.925 398.785C860.599 403.531 867.294 407.487 867.294 407.487L869.325 408.673C869.701 408.883 873.187 406.207 873.588 405.881C874.639 405.042 875.508 404.023 876.146 402.88Z" fill="#136F63"/>
<path d="M870.103 428.753C878.628 427.985 884.495 421.33 888.507 414.42C879.506 414.862 871.206 420.144 870.103 428.753Z" fill="#136F63"/>
<path d="M869.476 428.473C866.969 420.912 858.644 416.84 850.544 414.746C852.876 422.843 860.073 429.288 869.476 428.473Z" fill="#136F63"/>
<path d="M868.999 450.53C879.831 449.553 887.329 441.084 892.444 432.289C880.935 432.847 870.353 439.572 868.999 450.53Z" fill="#136F63"/>
<path d="M868.172 450.135C864.887 440.502 854.406 435.477 844.075 432.661C847.034 442.992 856.336 451.205 868.172 450.135Z" fill="#136F63"/>
<path d="M869.827 476.054C882.189 474.937 890.715 465.281 896.532 455.277C883.443 455.905 871.382 463.559 869.827 476.054Z" fill="#136F63"/>
<path d="M868.873 475.635C865.137 464.653 853.177 458.929 841.291 455.719C844.802 467.468 855.383 476.822 868.873 475.635Z" fill="#136F63"/>
<path d="M443.978 244.876C442.875 254.625 440.819 264.28 439.49 274.006C446.034 276.495 459.675 283.499 459.675 283.499L457.168 249.646L443.978 244.876Z" fill="#032B43"/>
<path d="M453.347 253.14C460.019 252.147 464.258 244.564 462.813 236.203C461.368 227.841 454.787 221.868 448.114 222.861C441.441 223.854 437.203 231.437 438.648 239.798C440.093 248.159 446.674 254.133 453.347 253.14Z" fill="#032B43"/>
<path d="M373.366 491.084C369.079 494.76 360.302 481.777 354.986 483.476C346.764 486.162 338.166 487.73 329.46 488.129C321.386 488.525 313.136 487.757 306.266 483.476C303.139 481.334 300.624 478.516 298.94 475.266C297.255 472.016 296.452 468.434 296.601 464.831C296.749 461.227 297.844 457.712 299.791 454.591C301.738 451.47 304.477 448.838 307.77 446.924L298.392 442.433L266.321 463.141C266.321 463.141 268.979 506.696 355.689 500.6L456.365 553.927L482.142 535.849L373.366 491.084Z" fill="#0D60A5"/>
<path d="M334.224 492.945C306.441 492.945 284.676 479.869 284.676 463.164C284.676 446.458 306.441 433.383 334.224 433.383C362.008 433.383 383.773 446.458 383.773 463.164C383.773 479.869 362.008 492.945 334.224 492.945ZM334.224 446.528C313.387 446.528 298.844 455.3 298.844 463.141C298.844 470.981 313.437 479.66 334.224 479.66C355.012 479.66 369.605 470.888 369.605 463.048C369.605 455.207 355.087 446.528 334.224 446.528V446.528Z" fill="#032B43"/>
<path d="M368.377 475.588C370.007 474.216 438.085 512.07 438.085 512.07L482.142 535.826L472.563 542.806C471.373 543.677 469.927 544.194 468.415 544.29C466.902 544.385 465.394 544.054 464.088 543.341L358.071 486.361L368.377 475.588Z" fill="#032B43"/>
<path d="M481.014 519.493L463.16 530.498L472.563 542.689L491.746 531.428C491.846 525.635 487.207 519.842 481.014 519.493Z" fill="#032B43"/>
<path d="M459.75 506.975C458.507 505.986 457.056 505.248 455.489 504.808C453.922 504.367 452.273 504.234 450.648 504.416L433.622 514.909L443.025 527.101L464.038 514.769C463.721 511.762 462.189 508.977 459.75 506.975V506.975Z" fill="#032B43"/>
<path d="M729.682 543.643C717.907 512.134 712.352 478.913 713.283 445.574C713.283 445.426 713.22 445.284 713.107 445.18C712.994 445.075 712.841 445.016 712.681 445.016C712.522 445.016 712.369 445.075 712.256 445.18C712.143 445.284 712.079 445.426 712.079 445.574C711.149 479.008 716.721 512.323 728.529 543.923C728.804 544.597 729.958 544.318 729.682 543.643Z" fill="white"/>
<path d="M719.151 377.845C710.103 378.804 700.939 377.923 692.295 375.262C691.568 375.03 691.242 376.1 691.969 376.333C700.717 379.027 709.992 379.924 719.151 378.962C719.903 378.892 719.928 377.775 719.151 377.845Z" fill="#204472"/>
<path d="M708.443 402.275H715.214L712.129 424.262C712.129 424.262 708.819 408.208 708.443 402.275Z" fill="#204472"/>
<path d="M731.589 353.043C727.351 355.137 722.085 351.74 718.575 349.646C714.312 347.11 710.024 342.666 712.457 337.663C712.833 336.919 711.529 336.477 711.153 337.221C708.645 342.433 712.582 347.435 717.095 350.274C721.107 352.81 727.125 356.626 732.14 354.183C732.968 353.834 732.391 352.67 731.589 353.043Z" fill="#009245"/>
<path d="M711.202 333.592C711.202 333.592 700.871 359.744 710.55 364.955C721.182 370.679 732.19 361 732.19 361C732.19 361 742.772 338.385 732.19 332.522C721.608 326.658 712.857 330.358 711.202 333.592Z" fill="#FBB5AD"/>
<path d="M712.957 354.02C712.69 353.943 712.443 353.816 712.23 353.648C713.415 351.261 714.729 348.931 716.167 346.668C716.218 346.585 716.251 346.494 716.264 346.4C716.278 346.306 716.27 346.21 716.244 346.118C716.217 346.026 716.171 345.94 716.108 345.865C716.046 345.789 715.968 345.726 715.879 345.679C715.79 345.632 715.692 345.601 715.59 345.589C715.488 345.577 715.385 345.583 715.286 345.608C715.187 345.633 715.095 345.675 715.013 345.734C714.932 345.792 714.864 345.864 714.813 345.946C713.276 348.341 711.878 350.811 710.626 353.345C710.527 353.475 710.475 353.629 710.475 353.787C710.475 353.946 710.527 354.1 710.626 354.229C711.099 354.76 711.725 355.155 712.431 355.369C713.509 355.858 713.91 354.439 712.957 354.02Z" fill="#56403D"/>
<path d="M746.433 346.877C747.661 341.386 744.953 337.571 741.117 333.243C740.816 332.902 740.49 332.56 740.139 332.219C741.356 331.824 742.461 331.18 743.374 330.335C743.478 330.251 743.558 330.144 743.605 330.024C743.652 329.903 743.665 329.774 743.642 329.647C743.62 329.521 743.562 329.402 743.476 329.303C743.389 329.203 743.276 329.126 743.148 329.078C742.503 328.892 741.823 328.83 741.151 328.894C740.479 328.958 739.828 329.147 739.236 329.45C739.087 328.179 738.697 326.942 738.083 325.798C738.022 325.685 737.93 325.589 737.818 325.518C737.706 325.447 737.576 325.403 737.44 325.392C737.305 325.38 737.169 325.401 737.044 325.451C736.92 325.502 736.811 325.581 736.729 325.681C736.31 326.112 735.999 326.623 735.817 327.178C735.635 327.733 735.587 328.318 735.676 328.892C730.992 326.176 725.407 325.126 719.954 325.937C717.944 326.303 716.055 327.1 714.437 328.264C713.115 327.664 711.638 327.422 710.174 327.566C708.612 327.688 707.136 328.282 705.972 329.257C704.808 330.232 704.02 331.534 703.73 332.964C703.647 334.512 704.224 336.029 705.336 337.187C706.448 338.345 708.005 339.051 709.673 339.153C711.356 339.411 713.082 339.267 714.688 338.734C713.208 339.851 712.03 341.526 714.688 343.154C719.427 346.016 723.013 343.992 722.386 346.482C721.884 348.529 724.367 350.6 726.448 351.344C726.448 351.693 726.448 352.624 726.598 353.857C727.771 353.891 728.913 354.212 729.908 354.788C730.026 354.726 730.157 354.691 730.292 354.688C730.427 354.684 730.561 354.71 730.682 354.765C730.803 354.821 730.908 354.902 730.987 355.003C731.066 355.105 731.118 355.222 731.137 355.346C731.472 358.743 730.416 362.133 728.178 364.839C731.889 363.573 735.297 361.645 738.208 359.162C742.191 355.906 745.052 351.633 746.433 346.877V346.877ZM737.205 327.868C737.205 327.985 737.205 328.124 737.205 328.241C737.192 328.318 737.192 328.396 737.205 328.473C737.205 328.729 737.205 328.962 737.205 329.218C737.081 328.775 737.081 328.311 737.205 327.868Z" fill="black"/>
<path d="M717.496 356.347C716.715 357.107 715.648 357.559 714.517 357.606C713.387 357.654 712.28 357.294 711.428 356.603C710.901 356.207 710.299 356.998 710.826 357.394C711.867 358.21 713.201 358.633 714.563 358.577C715.925 358.521 717.214 357.99 718.173 357.091C718.649 356.649 717.972 355.905 717.496 356.347Z" fill="#56403D"/>
<path d="M717.672 352.182C717.476 352.114 717.258 352.121 717.068 352.202C716.877 352.283 716.729 352.43 716.656 352.612C716.583 352.794 716.591 352.996 716.678 353.173C716.765 353.349 716.924 353.487 717.12 353.555C717.316 353.623 717.533 353.615 717.724 353.535C717.914 353.454 718.062 353.306 718.136 353.124C718.209 352.942 718.201 352.741 718.114 352.564C718.027 352.387 717.868 352.25 717.672 352.182V352.182Z" fill="#56403D"/>
<path d="M709.271 347.273C709.075 347.205 708.858 347.212 708.667 347.293C708.477 347.373 708.329 347.521 708.256 347.703C708.183 347.885 708.19 348.087 708.277 348.263C708.364 348.44 708.524 348.578 708.72 348.645C708.916 348.713 709.133 348.706 709.324 348.625C709.514 348.545 709.662 348.397 709.735 348.215C709.808 348.033 709.801 347.831 709.714 347.655C709.627 347.478 709.467 347.341 709.271 347.273V347.273Z" fill="#56403D"/>
<path d="M725.319 355.556C725.319 355.556 732.014 346.435 733.744 350.786C735.475 355.137 724.692 359.651 724.692 359.651" fill="#FBB5AD"/>
<path d="M270.51 297.063C270.234 295.667 268.002 296.249 268.203 297.645C270.345 308.099 271.868 318.655 272.766 329.264C272.766 330.684 275.274 330.684 275.274 329.264C274.321 318.458 272.73 307.708 270.51 297.063V297.063Z" fill="#3F88C5" fill-opacity="0.6"/>
<path d="M236.056 350.623C232.574 340.983 229.768 331.144 227.656 321.167C227.355 319.771 225.148 320.353 225.349 321.749C227.462 331.725 230.267 341.565 233.749 351.205C234.25 352.554 236.557 351.973 236.056 350.623Z" fill="#3F88C5" fill-opacity="0.6"/>
<path d="M258.072 287.012C240.973 282.268 225.548 273.377 213.389 261.256C212.611 260.465 211.332 261.651 212.135 262.419C224.514 274.736 240.206 283.77 257.596 288.594C257.804 288.609 258.011 288.556 258.182 288.445C258.353 288.334 258.477 288.171 258.533 287.984C258.589 287.798 258.574 287.599 258.49 287.422C258.406 287.244 258.258 287.1 258.072 287.012V287.012Z" fill="#095349"/>
<path d="M276.878 273.68C265.011 269.209 253.798 263.37 243.503 256.3C242.575 255.672 241.673 257.114 242.6 257.742C253.032 264.867 264.388 270.746 276.402 275.239C277.455 275.681 277.931 274.099 276.878 273.68Z" fill="#095349"/>
<path d="M265.795 258.976L257.52 235.709C257.169 234.709 255.439 235.127 255.79 236.151L264.065 259.418C264.34 260.441 266.071 259.999 265.795 258.976Z" fill="#095349"/>
<path d="M636.752 533.392C638.387 530.765 574.785 493.854 494.695 450.949C414.604 408.043 348.353 375.39 346.719 378.017C345.085 380.643 408.686 417.554 488.777 460.459C568.867 503.365 635.118 536.018 636.752 533.392Z" fill="#0D60A5"/>
</g>
<defs>
<filter id="filter0_d" x="-40" y="-8" width="1103" height="798" filterUnits="userSpaceOnUse" color-interpolation-filters="sRGB">
<feFlood flood-opacity="0" result="BackgroundImageFix"/>
<feColorMatrix in="SourceAlpha" type="matrix" values="0 0 0 0 0 0 0 0 0 0 0 0 0 0 0 0 0 0 127 0"/>
<feOffset dx="10" dy="30"/>
<feGaussianBlur stdDeviation="25"/>
<feColorMatrix type="matrix" values="0 0 0 0 0 0 0 0 0 0 0 0 0 0 0 0 0 0 0.25 0"/>
<feBlend mode="normal" in2="BackgroundImageFix" result="effect1_dropShadow"/>
<feBlend mode="normal" in="SourceGraphic" in2="effect1_dropShadow" result="shape"/>
</filter>
<linearGradient id="paint0_linear" x1="762.029" y1="530.87" x2="699.806" y2="596.652" gradientUnits="userSpaceOnUse">
<stop stop-color="#005CA9"/>
<stop offset="1" stop-color="#3F88C5"/>
</linearGradient>
<linearGradient id="paint1_linear" x1="34130.7" y1="13581.4" x2="33067.3" y2="14931.2" gradientUnits="userSpaceOnUse">
<stop stop-color="#0D4472"/>
<stop offset="1" stop-color="#568CBA"/>
</linearGradient>
</defs>
</svg>
