<svg width="246" height="150" viewBox="0 0 246 150" fill="none" xmlns="http://www.w3.org/2000/svg">
<ellipse cx="47.2792" cy="21.506" rx="19.2072" ry="18.6145" fill="#4F7BC4"/>
<ellipse cx="140.729" cy="18.6145" rx="19.2072" ry="18.6145" fill="#D22739"/>
<ellipse cx="226.793" cy="18.6145" rx="19.2072" ry="18.6145" fill="#F2C534"/>
<rect y="40.8434" width="94.1891" height="27.4699" rx="13.7349" fill="#4F7BC4"/>
<rect x="31.7659" y="145.301" width="92.1687" height="28.0721" rx="14.036" transform="rotate(-90 31.7659 145.301)" fill="#4F7BC4"/>
<rect x="123.369" y="145.301" width="99.759" height="28.0721" rx="14.036" transform="rotate(-90 123.369 145.301)" fill="#D22739"/>
<rect width="74.4924" height="27.7621" rx="13.881" transform="matrix(-0.726821 -0.686827 0.702414 -0.711769 175.28 109.3)" fill="#D22739"/>
<rect width="74.5346" height="27.7463" rx="13.8732" transform="matrix(0.744524 -0.667596 0.683521 0.729931 166.216 90.6024)" fill="#F2C534"/>
<rect x="212.757" y="150" width="104.458" height="28.0721" rx="14.036" transform="rotate(-90 212.757 150)" fill="#F2C534"/>
</svg>
