<?xml version="1.0" standalone="no"?>
<!DOCTYPE svg PUBLIC "-//W3C//DTD SVG 20010904//EN"
 "http://www.w3.org/TR/2001/REC-SVG-20010904/DTD/svg10.dtd">
<svg version="1.0" xmlns="http://www.w3.org/2000/svg"
 width="1080.000000pt" height="1080.000000pt" viewBox="0 0 1080.000000 1080.000000"
 preserveAspectRatio="xMidYMid meet">
<metadata>
Created by potrace 1.11, written by Peter Selinger 2001-2013
</metadata>
<g transform="translate(0.000000,1080.000000) scale(0.100000,-0.100000)"
fill="#000000" stroke="none">
<path d="M0 5400 l0 -5400 5400 0 5400 0 0 5400 0 5400 -5400 0 -5400 0 0
-5400z m10790 0 l0 -5390 -5390 0 -5390 0 0 5390 0 5390 5390 0 5390 0 0
-5390z"/>
<path d="M805 8941 c-304 -86 -451 -417 -312 -701 58 -117 204 -235 316 -255
19 -3 38 -8 43 -11 15 -10 145 -5 194 7 181 44 322 183 369 366 62 237 -75
494 -310 583 -80 30 -216 35 -300 11z"/>
<path d="M9577 8579 c-107 -39 -291 -159 -458 -299 -226 -190 -365 -322 -1024
-965 -82 -80 -342 -327 -401 -381 -153 -139 -344 -294 -363 -294 -4 0 -30 21
-58 48 -45 41 -73 73 -147 163 -11 12 -73 102 -139 198 -67 97 -144 208 -171
248 -28 39 -58 81 -66 93 -48 72 -154 197 -234 276 -95 95 -160 145 -236 184
-25 12 -53 27 -63 31 -45 23 -148 38 -242 36 -83 -2 -110 -7 -157 -29 -71 -33
-131 -74 -183 -124 -203 -197 -252 -417 -144 -649 59 -128 290 -450 545 -758
97 -117 231 -292 324 -422 199 -279 273 -370 409 -505 222 -221 403 -300 575
-250 112 32 278 131 448 267 40 32 81 65 91 73 11 8 25 20 32 27 7 6 34 31 61
54 125 108 258 232 594 559 146 142 279 271 296 286 17 16 56 52 87 80 68 63
216 184 226 184 4 0 7 -966 8 -2147 0 -2146 0 -2148 21 -2248 59 -278 227
-435 507 -471 97 -13 180 -6 257 22 24 9 48 17 53 18 6 1 37 17 70 35 122 69
226 205 254 331 7 30 10 1032 8 2940 l-2 2895 -24 55 c-39 87 -90 159 -171
241 -141 144 -273 210 -430 216 -78 3 -105 0 -153 -18z"/>
<path d="M431 5460 c1 -1907 2 -2000 20 -2108 71 -423 306 -776 684 -1025 277
-182 621 -297 970 -322 118 -9 2207 -9 2265 0 209 30 321 222 345 590 5 76 5
82 0 1358 -3 587 -1 1067 3 1067 13 0 206 -222 317 -364 17 -22 35 -44 41 -50
13 -14 203 -252 229 -287 34 -46 229 -294 236 -299 3 -3 81 -104 173 -225 191
-253 193 -254 306 -395 109 -135 135 -165 250 -280 291 -291 418 -316 685
-135 44 30 92 65 107 77 14 13 37 32 50 42 83 68 229 206 478 453 157 155 294
290 306 300 12 10 48 41 80 69 32 28 97 84 144 124 308 263 513 467 691 688 6
7 24 43 42 79 53 114 42 250 -31 381 -32 57 -134 160 -194 195 -125 73 -290
69 -416 -10 -30 -19 -181 -131 -198 -148 -6 -5 -40 -35 -75 -65 -132 -115
-310 -283 -729 -690 -184 -179 -285 -272 -391 -363 l-57 -48 -73 103 c-65 92
-247 334 -274 365 -5 7 -14 18 -20 25 -42 54 -130 164 -135 168 -3 3 -24 27
-45 55 -38 47 -121 148 -169 205 -11 14 -66 79 -120 145 -55 66 -102 122 -106
125 -3 3 -39 46 -80 95 -41 50 -77 92 -80 95 -18 18 -141 177 -286 370 -148
197 -209 278 -273 355 -55 68 -107 132 -116 141 -5 7 -37 43 -70 80 -147 169
-298 305 -387 350 -285 145 -655 -5 -771 -313 l-22 -58 -3 -1698 -2 -1698
-598 4 c-328 2 -610 7 -627 11 -16 3 -66 13 -110 22 -44 9 -84 17 -90 18 -54
13 -80 21 -145 43 -93 32 -280 122 -300 144 -3 3 -25 19 -50 36 -139 96 -256
260 -293 413 -20 81 -25 146 -33 485 -4 149 -8 304 -9 345 -7 249 -8 351 -1
357 4 4 343 8 754 9 411 0 752 2 757 3 7 0 9 182 8 523 0 288 -2 526 -2 530
-1 4 -343 6 -761 5 -500 -1 -761 1 -763 8 -1 6 -2 349 -2 763 1 413 -1 753 -4
753 -3 1 -237 2 -519 3 l-512 1 1 -1995z"/>
</g>
</svg>
