<!--
Talentmaker website

Copyright (C) 2020 Luke Zhang, Ethan Lim
https://Luke-zhang-04.github.io
https://github.com/ethanlim04

Author: Luke Zhang - luke-zhang-04.github.io

License: BSD-3-Clause
-->
<svg width="496" height="299" viewBox="0 0 496 299" fill="none" xmlns="http://www.w3.org/2000/svg"><title>Talentmaker SVG | Work In Progress</title><g clip-path="url(#clip0)"><path opacity="0.1" d="M496 192.041C496.009 200.142 495.009 208.214 493.023 216.077C492.355 218.727 491.579 221.322 490.694 223.861C489.612 226.996 488.358 230.071 486.938 233.073C486.222 234.592 485.466 236.08 484.668 237.539C484.681 245.846 482.936 254.066 479.543 261.678C473.41 275.337 462.473 286.381 448.726 292.797C440.131 296.816 430.737 298.93 421.214 298.988H94.1579C79.6065 299.018 65.3065 295.272 52.7116 288.129L52.5179 288.022C50.7239 286.993 48.9749 285.903 47.2708 284.753C43.4365 282.157 39.8343 279.247 36.5028 276.053C31.9936 271.735 28.0203 266.91 24.6652 261.678C16.7852 249.416 12.6108 235.216 12.6255 220.725C4.64529 207.002 -0.00805664 190.563 -0.00805664 172.899C-0.00805664 150.612 7.38676 130.282 19.536 114.892C22.0689 111.677 24.8433 108.651 27.8362 105.841C30.7892 103.06 33.9632 100.514 37.3282 98.2265C40.0204 96.3943 42.8341 94.7397 45.7505 93.2739C46.9676 92.6672 48.1888 92.0935 49.4311 91.5611C50.5218 91.0865 51.6251 90.6449 52.7411 90.228C54.0802 89.73 55.4362 89.2719 56.8091 88.8537C58.1819 88.4355 59.5365 88.0695 60.8728 87.7559C62.8381 87.2854 64.8369 86.9029 66.8695 86.6085C68.554 86.365 70.2385 86.1958 71.9229 86.0678C73.2621 85.9688 74.6139 85.9152 75.9741 85.8987H76.711C78.2102 85.8987 79.701 85.9564 81.1791 86.0555C81.3349 85.7501 81.5034 85.4405 81.6592 85.1392C82.2487 84.0373 82.8594 82.9395 83.4742 81.8664C83.4728 81.8568 83.4728 81.8471 83.4742 81.8375C83.5795 81.6477 83.6847 81.462 83.7942 81.2804C84.2912 80.4013 84.8091 79.5304 85.3397 78.6679C85.584 78.2551 85.824 77.8672 86.0725 77.4792C86.125 77.3828 86.1827 77.2892 86.2451 77.1986C86.4978 76.7859 86.7547 76.3732 87.0158 75.9604C88.3156 73.9244 89.6674 71.9241 91.0711 69.9596L91.4291 69.4561C91.6481 69.1506 91.8502 68.8535 92.0944 68.5481C92.6756 67.7515 93.2736 66.9509 93.8758 66.1667C94.2969 65.6054 94.718 65.0483 95.1728 64.5159C96.2677 63.1401 97.3907 61.7644 98.5417 60.3887C99.6928 59.013 100.889 57.6551 102.13 56.3152C102.298 56.1295 102.467 55.9479 102.643 55.7663L104.442 53.843C104.53 53.7522 104.606 53.6697 104.69 53.5871C104.905 53.3602 105.111 53.1332 105.343 52.9144C106.307 51.9115 107.297 50.9293 108.291 49.9511C113.348 45.014 118.737 40.413 124.419 36.1788C124.643 36.0055 124.87 35.8404 125.093 35.6753C126.163 34.887 127.249 34.107 128.336 33.3393C134.312 29.1377 140.559 25.319 147.038 21.9071C147.484 21.6553 147.939 21.4201 148.398 21.189C154.206 18.1774 160.18 15.4824 166.291 13.1163C169.622 11.8245 173.029 10.6111 176.457 9.50088C178.739 8.76624 181.03 8.06876 183.351 7.41254C186.978 6.389 190.63 5.4714 194.308 4.65973C205.143 2.27706 216.166 0.805198 227.256 0.260178C230.625 0.0923402 234.032 0.00567106 237.477 0.000168183C254.098 -0.0213978 270.655 2.03117 286.747 6.10836C286.914 6.35478 287.141 6.55568 287.409 6.69214C287.676 6.8286 287.975 6.89613 288.276 6.88839H289.691C290.306 7.05347 290.916 7.21856 291.531 7.3919C294.965 8.36041 298.349 9.41833 301.684 10.5657L302.527 10.8628C310.758 13.7316 318.768 17.1799 326.492 21.1807C333.455 24.7786 340.16 28.8381 346.559 33.3311C347.544 34.0244 348.515 34.7233 349.473 35.4277C350.635 34.6985 351.817 33.9997 353.019 33.3311C357.659 30.741 362.587 28.6818 367.707 27.194C378.411 24.0896 389.737 23.6555 400.655 25.9311C414.657 28.8407 427.333 36.0632 437.57 46.3357C441.739 50.5388 445.449 55.1558 448.642 60.1122C448.873 60.4671 449.105 60.8262 449.328 61.1894C452.072 65.5761 454.43 70.1834 456.378 74.9617C456.449 75.1392 456.521 75.3042 456.584 75.4776C458.382 79.9519 459.832 84.553 460.921 89.2416C460.972 89.481 461.031 89.7163 461.081 89.9556C462.101 94.4931 462.793 99.0953 463.153 103.728C463.153 103.893 463.153 104.062 463.187 104.236C463.364 106.632 463.454 109.053 463.457 111.499C463.457 113.687 463.381 115.858 463.242 118.012C463.242 118.247 463.208 118.491 463.187 118.734C463.149 119.357 463.094 119.972 463.04 120.6C466.256 123.142 469.266 125.925 472.043 128.924C473.27 130.237 474.458 131.599 475.606 133.01C479.103 137.306 482.177 141.918 484.786 146.782C491.907 159.956 496 175.454 496 192.041Z" fill="#5C94C2"/><path opacity="0.1" d="M448.414 291.27C448.414 294.089 438.505 296.73 421.214 299H94.1576C79.6063 299.03 65.3062 295.284 52.7113 288.141L52.5176 288.034C57.4868 286.259 66.4566 284.604 78.6647 283.11L79.2122 283.044C84.6867 282.388 90.8055 281.765 97.4929 281.175C97.6613 281.175 97.834 281.15 98.0024 281.129C103.309 280.667 108.953 280.234 114.936 279.829C115.125 279.829 115.31 279.796 115.5 279.788C117.808 279.626 120.163 279.472 122.566 279.326L123.493 279.268C140.99 278.203 160.879 277.353 182.449 276.792H182.474C185.495 276.709 188.548 276.636 191.634 276.573C195.064 276.493 198.537 276.423 202.052 276.362C204.735 276.305 207.451 276.263 210.175 276.222H210.239C222.531 276.04 235.232 275.95 248.219 275.95C280.333 275.95 310.688 276.523 337.584 277.555H337.66C341.796 277.712 345.855 277.885 349.814 278.063L353.183 278.22C357.649 278.429 362.001 278.653 366.237 278.892C416.055 281.67 448.414 286.181 448.414 291.27Z" fill="#5C94C2"/><g opacity="0.2"><path opacity="0.2" d="M286.477 274.056C286.464 274.501 286.412 274.944 286.322 275.381C283.391 274.924 280.443 274.511 277.478 274.143C277.478 274.027 277.478 273.907 277.478 273.788C277.505 272.55 277.869 271.342 278.531 270.288C279.398 268.942 280.716 268.1 282.169 268.146C283.622 268.191 284.881 269.112 285.66 270.502C286.25 271.595 286.532 272.821 286.477 274.056Z" fill="#3F3D56"/><path opacity="0.2" d="M286.719 267.003C286.822 263.811 284.889 261.161 282.402 261.084C279.915 261.007 277.815 263.532 277.712 266.724C277.609 269.916 279.542 272.566 282.029 272.643C284.517 272.72 286.616 270.195 286.719 267.003Z" fill="#3F3D56"/><path opacity="0.2" d="M286.949 259.937C287.052 256.745 285.119 254.096 282.632 254.018C280.144 253.941 278.045 256.466 277.942 259.658C277.839 262.85 279.772 265.5 282.259 265.577C284.746 265.654 286.846 263.129 286.949 259.937Z" fill="#3F3D56"/><path opacity="0.2" d="M287.175 252.871C287.278 249.679 285.345 247.03 282.858 246.953C280.37 246.876 278.27 249.401 278.168 252.592C278.065 255.784 279.998 258.434 282.485 258.511C284.972 258.588 287.072 256.063 287.175 252.871Z" fill="#3F3D56"/><path opacity="0.2" d="M287.4 245.805C287.503 242.614 285.57 239.964 283.083 239.887C280.596 239.81 278.496 242.335 278.393 245.526C278.29 248.718 280.223 251.368 282.71 251.445C285.198 251.522 287.297 248.997 287.4 245.805Z" fill="#3F3D56"/><path opacity="0.2" d="M267.569 196.779C266.976 195.992 266.442 195.164 265.969 194.303L277.87 192.763L265.06 192.462C263.916 189.804 263.338 186.946 263.361 184.062C263.383 181.178 264.006 178.329 265.19 175.689L282.085 184.955L266.609 173.052C268.17 170.577 270.236 168.444 272.675 166.787C275.115 165.13 277.878 163.983 280.79 163.419C283.703 162.855 286.703 162.886 289.602 163.509C292.502 164.132 295.24 165.335 297.644 167.041C300.049 168.748 302.068 170.922 303.576 173.428C305.085 175.934 306.05 178.718 306.411 181.606C306.773 184.494 306.522 187.424 305.676 190.212C304.831 193.001 303.407 195.589 301.495 197.815C302.417 199.039 303.201 200.358 303.832 201.748L288.212 209.094L304.775 204.212C305.818 207.585 305.986 211.159 305.264 214.612C304.542 218.065 302.953 221.286 300.64 223.985C303.044 227.182 304.482 230.979 304.789 234.939C305.096 238.9 304.259 242.865 302.375 246.382C300.491 249.899 297.634 252.825 294.133 254.825C290.632 256.826 286.627 257.82 282.576 257.695C278.525 257.57 274.592 256.33 271.226 254.117C267.86 251.905 265.198 248.808 263.543 245.182C261.888 241.556 261.308 237.547 261.869 233.613C262.43 229.679 264.109 225.979 266.714 222.937C263.842 219.116 262.363 214.459 262.516 209.715C262.668 204.971 264.444 200.415 267.557 196.779H267.569Z" fill="#5C94C2"/><path opacity="0.1" d="M305.693 211.05C305.546 215.797 303.765 220.356 300.64 223.985C303.044 227.182 304.482 230.978 304.789 234.939C305.096 238.9 304.259 242.865 302.375 246.382C300.491 249.899 297.634 252.824 294.133 254.825C290.632 256.826 286.627 257.82 282.576 257.695C278.525 257.57 274.592 256.33 271.226 254.117C267.86 251.904 265.198 248.808 263.543 245.182C261.888 241.556 261.308 237.547 261.869 233.613C262.43 229.679 264.109 225.979 266.714 222.937C263.948 219.251 305.769 208.677 305.693 211.05Z" fill="black"/></g><g opacity="0.2"><path opacity="0.2" d="M222.468 274.056C222.454 274.501 222.402 274.944 222.312 275.381C219.381 274.924 216.433 274.511 213.468 274.143C213.468 274.027 213.468 273.907 213.468 273.788C213.496 272.55 213.859 271.342 214.521 270.288C215.389 268.942 216.707 268.1 218.16 268.146C219.612 268.191 220.871 269.112 221.651 270.502C222.24 271.595 222.522 272.821 222.468 274.056Z" fill="#3F3D56"/><path opacity="0.2" d="M222.705 267.005C222.808 263.813 220.875 261.163 218.388 261.086C215.9 261.009 213.8 263.534 213.698 266.726C213.595 269.918 215.528 272.568 218.015 272.645C220.502 272.722 222.602 270.197 222.705 267.005Z" fill="#3F3D56"/><path opacity="0.2" d="M222.935 259.939C223.038 256.747 221.105 254.097 218.617 254.02C216.13 253.943 214.03 256.468 213.927 259.66C213.824 262.852 215.757 265.502 218.245 265.579C220.732 265.656 222.832 263.131 222.935 259.939Z" fill="#3F3D56"/><path opacity="0.2" d="M223.16 252.873C223.263 249.681 221.33 247.031 218.843 246.954C216.356 246.877 214.256 249.402 214.153 252.594C214.05 255.786 215.983 258.436 218.47 258.513C220.958 258.59 223.057 256.065 223.16 252.873Z" fill="#3F3D56"/><path opacity="0.2" d="M223.386 245.807C223.489 242.616 221.556 239.966 219.069 239.889C216.581 239.812 214.481 242.337 214.378 245.528C214.276 248.72 216.209 251.37 218.696 251.447C221.183 251.524 223.283 248.999 223.386 245.807Z" fill="#3F3D56"/><path opacity="0.2" d="M203.56 196.779C202.967 195.992 202.432 195.164 201.959 194.303L213.86 192.763L201.05 192.462C199.907 189.804 199.329 186.946 199.351 184.062C199.373 181.178 199.996 178.329 201.18 175.689L218.076 184.955L202.599 173.052C204.161 170.577 206.226 168.444 208.666 166.787C211.106 165.13 213.868 163.983 216.781 163.419C219.693 162.855 222.693 162.886 225.593 163.509C228.493 164.132 231.23 165.335 233.634 167.041C236.039 168.748 238.058 170.922 239.567 173.428C241.075 175.934 242.04 178.718 242.401 181.606C242.763 184.494 242.513 187.424 241.667 190.212C240.821 193.001 239.397 195.589 237.485 197.815C238.407 199.039 239.191 200.358 239.822 201.748L224.203 209.094L240.765 204.212C241.808 207.585 241.976 211.159 241.254 214.612C240.532 218.065 238.943 221.286 236.63 223.985C239.035 227.182 240.473 230.979 240.779 234.939C241.086 238.9 240.25 242.865 238.365 246.382C236.481 249.899 233.625 252.825 230.123 254.825C226.622 256.826 222.617 257.82 218.566 257.695C214.515 257.57 210.582 256.33 207.216 254.117C203.85 251.905 201.188 248.808 199.533 245.182C197.879 241.556 197.299 237.547 197.859 233.613C198.42 229.679 200.099 225.979 202.705 222.937C199.832 219.116 198.353 214.459 198.506 209.715C198.659 204.971 200.434 200.415 203.547 196.779H203.56Z" fill="#5C94C2"/><path opacity="0.1" d="M241.683 211.05C241.536 215.797 239.755 220.356 236.63 223.985C239.035 227.182 240.473 230.978 240.779 234.939C241.086 238.9 240.25 242.865 238.365 246.382C236.481 249.899 233.625 252.824 230.123 254.825C226.622 256.826 222.617 257.82 218.566 257.695C214.515 257.57 210.582 256.33 207.216 254.117C203.85 251.904 201.188 248.808 199.533 245.182C197.879 241.556 197.299 237.547 197.859 233.613C198.42 229.679 200.099 225.979 202.705 222.937C199.938 219.251 241.759 208.677 241.683 211.05Z" fill="black"/></g><g opacity="0.2"><path opacity="0.2" d="M397.315 278.571C397.283 279.414 397.18 280.253 397.008 281.08C391.365 280.197 385.681 279.407 379.957 278.711C379.957 278.488 379.957 278.261 379.957 278.03C380.01 275.647 380.711 273.32 381.987 271.29C383.671 268.703 386.198 267.081 388.99 267.163C391.782 267.246 394.212 269.025 395.728 271.703C396.871 273.813 397.419 276.184 397.315 278.571Z" fill="#3F3D56"/><path opacity="0.2" d="M397.774 264.983C397.972 258.836 394.249 253.733 389.458 253.584C384.667 253.436 380.622 258.299 380.424 264.445C380.226 270.592 383.949 275.695 388.74 275.843C393.531 275.992 397.575 271.129 397.774 264.983Z" fill="#3F3D56"/><path opacity="0.2" d="M398.211 251.379C398.409 245.232 394.686 240.129 389.895 239.981C385.104 239.832 381.059 244.695 380.861 250.842C380.663 256.988 384.386 262.091 389.177 262.24C393.968 262.388 398.013 257.526 398.211 251.379Z" fill="#3F3D56"/><path opacity="0.2" d="M398.653 237.776C398.851 231.629 395.128 226.526 390.337 226.378C385.546 226.229 381.501 231.092 381.303 237.239C381.105 243.385 384.828 248.488 389.619 248.637C394.41 248.785 398.455 243.923 398.653 237.776Z" fill="#3F3D56"/><path opacity="0.2" d="M398.597 223.554C398.786 217.404 395.052 212.304 390.259 212.163C385.465 212.022 381.427 216.893 381.239 223.043C381.051 229.193 384.784 234.292 389.577 234.433C394.371 234.574 398.409 229.703 398.597 223.554Z" fill="#3F3D56"/><path opacity="0.2" d="M360.91 129.803C359.773 128.288 358.745 126.698 357.831 125.044L380.74 122.081L356.084 121.499C353.881 116.383 352.767 110.881 352.809 105.329C352.851 99.7768 354.048 94.2914 356.328 89.2083L388.859 107.042L359.069 84.1278C362.082 79.3749 366.06 75.281 370.757 72.1012C375.455 68.9214 380.77 66.7238 386.372 65.6454C391.973 64.5669 397.742 64.6308 403.317 65.833C408.893 67.0352 414.156 69.3499 418.779 72.633C423.402 75.916 427.285 80.0969 430.187 84.9153C433.088 89.7336 434.946 95.086 435.645 100.639C436.344 106.192 435.868 111.826 434.247 117.191C432.626 122.556 429.896 127.536 426.225 131.821C427.999 134.18 429.508 136.719 430.727 139.394L400.655 153.546L432.538 144.137C434.547 150.622 434.874 157.496 433.489 164.137C432.105 170.778 429.052 176.975 424.608 182.168C429.236 188.324 432.004 195.632 432.594 203.256C433.184 210.881 431.573 218.514 427.945 225.284C424.317 232.053 418.819 237.685 412.079 241.536C405.338 245.388 397.628 247.302 389.83 247.061C382.032 246.82 374.46 244.433 367.981 240.174C361.502 235.914 356.376 229.954 353.191 222.974C350.005 215.994 348.888 208.276 349.967 200.703C351.046 193.13 354.278 186.008 359.293 180.15C353.765 172.794 350.92 163.831 351.213 154.7C351.506 145.569 354.921 136.8 360.91 129.799V129.803Z" fill="#5C94C2"/><path opacity="0.1" d="M434.31 157.274C434.034 166.406 430.621 175.181 424.625 182.177C429.253 188.332 432.021 195.64 432.611 203.265C433.201 210.889 431.59 218.523 427.962 225.292C424.334 232.061 418.836 237.694 412.095 241.545C405.355 245.396 397.645 247.311 389.847 247.07C382.049 246.829 374.477 244.442 367.998 240.182C361.519 235.923 356.393 229.962 353.208 222.982C350.022 216.002 348.905 208.285 349.984 200.712C351.063 193.139 354.295 186.016 359.31 180.159C353.945 173.056 434.458 152.705 434.31 157.274Z" fill="black"/></g><path d="M66.4607 279.297L70.8782 279.285H77.1065L84.9814 153.91L162.968 26.3685L159.578 22.8027V13.7725L75.2368 150.955L66.4607 279.297Z" fill="#F1C0C0"/><path opacity="0.1" d="M71.3499 279.285H77.1065L84.9814 153.91L162.968 26.3686L159.578 22.8027L79.1363 151.999L71.3499 279.285Z" fill="black"/><path d="M53.4438 280.341L255.517 295.496L255.689 295.509L451.252 283.721L451.399 283.713V275.62L235.914 271.744L56.1348 271.575H54.8209L54.6777 272.483L53.4438 280.341Z" fill="#F1C0C0"/><path opacity="0.1" d="M53.4438 280.341L255.517 295.496L255.689 295.509L451.252 283.721L451.399 283.565V275.789H451.227L255.517 282.194L56.1348 271.575H56.1053L55.7516 271.802L54.6777 272.483L53.4438 280.341Z" fill="black"/><path opacity="0.1" d="M53.4438 280.341L255.517 295.496V282.194L55.7516 271.802L54.6777 272.483L53.4438 280.341Z" fill="black"/><path d="M159.553 22.6333L248.64 116.344L245.886 281.183L253.454 282.079L253.58 282.095H261.147L262.053 123.423L428.87 178.033L431.683 275.269L437.772 275.937L439.836 276.164L435.06 171.289L260.676 111.289L165.057 13.8672H159.553V22.6333Z" fill="#F1C0C0"/><path opacity="0.1" d="M261.366 120.389L262.053 123.423L428.87 178.033L431.683 275.269L437.772 275.938L432.997 176.011L261.366 120.389Z" fill="black"/><path opacity="0.1" d="M159.553 22.6333L248.64 116.344L245.886 281.183L253.454 282.079L255.517 110.95L159.553 13.8672V22.6333Z" fill="black"/><path d="M261.69 186.543L322.875 198.351L322.896 198.355L430.057 219.045L434.963 217.117L434.946 216.779L434.626 210.072L261.754 175.837L261.69 186.543Z" fill="#F1C0C0"/><path opacity="0.1" d="M322.896 198.355L430.057 219.045L434.963 217.118L434.947 216.779L322.896 198.355Z" fill="black"/><path d="M326.993 144.682L328.648 233.969L329.503 279.776L337.037 279.528L341.778 279.371L340.304 145.973L337.037 144.909L336.321 144.682H326.993Z" fill="#F1C0C0"/><path opacity="0.1" d="M327.061 144.661V144.682L328.648 233.969L329.503 279.776L337.037 279.528V144.661H327.061Z" fill="black"/><path d="M208.984 167.484C209.426 167.719 209.848 167.988 210.247 168.289C210.719 168.693 211.142 169.149 211.51 169.647C213.317 171.937 214.984 174.599 214.808 177.488C214.811 177.908 214.73 178.325 214.569 178.715C214.408 179.105 214.17 179.459 213.869 179.758C213.123 180.381 212.054 180.41 211.077 180.41C210.015 180.41 208.899 180.41 207.981 179.874C207.063 179.337 206.297 178.293 205.21 178.318C205.057 178.343 204.901 178.343 204.747 178.318C204.372 178.198 204.297 177.715 204.052 177.41C203.631 176.861 202.743 176.997 202.081 177.236C201.42 177.476 200.688 177.835 200.035 177.558C199.656 177.362 199.346 177.059 199.146 176.687C197.584 174.211 197.251 171.236 196.956 168.359C196.775 166.609 195.394 160.641 199.205 161.999C200.89 162.593 202.465 163.782 203.998 164.653L208.984 167.484Z" fill="#3F3D56"/><path d="M205.219 168.074C205.559 168.314 205.972 168.435 206.391 168.419C206.81 168.403 207.211 168.249 207.531 167.983C208.158 167.428 208.557 166.668 208.655 165.845C209.076 165.717 209.291 166.258 209.56 166.588C210.032 167.15 210.992 167.141 211.422 167.74C211.721 168.152 211.653 168.726 211.864 169.193C212.138 169.795 212.816 170.109 213.279 170.596C213.716 171.128 214.032 171.746 214.205 172.408L214.896 174.438C215.226 175.283 215.439 176.167 215.528 177.067C215.571 177.517 215.523 177.971 215.385 178.403C215.248 178.834 215.024 179.235 214.727 179.581C213.801 180.559 212.281 180.662 210.937 180.633C210.489 180.642 210.041 180.591 209.607 180.48C208.415 180.117 207.653 178.941 207.337 177.756C207.021 176.572 207.055 175.33 206.869 174.116C206.669 172.924 206.316 171.762 205.817 170.658C205.446 169.799 204.427 168.52 204.444 167.608C204.747 167.608 204.966 167.88 205.219 168.074Z" fill="#3F3D56"/><path d="M206.731 163.893C206.534 163.307 206.419 162.698 206.389 162.081C206.389 160.843 206.966 159.679 207.547 158.573L202.734 159.213C202.153 159.291 201.504 159.407 201.176 159.882C201.051 160.117 200.986 160.378 200.986 160.643C200.986 160.908 201.051 161.169 201.176 161.404C201.417 161.875 201.609 162.369 201.749 162.878C201.76 163.323 201.812 163.767 201.905 164.203C202.054 164.523 202.264 164.813 202.524 165.057C203.901 166.551 204.932 168.313 205.96 170.059C205.93 170.01 208.861 167.785 208.743 167.059C208.676 166.646 207.83 166.151 207.56 165.755C207.188 165.179 206.908 164.552 206.731 163.893Z" fill="#BE6F72"/><path d="M248 147.769V151.834L176.97 165.412L173.286 167.6H160.572V165.309L230.36 148.784L248 147.769Z" fill="#F1C0C0"/><path opacity="0.1" d="M248 151.834L176.97 165.412L173.286 167.6H160.572L230.878 152.853L248 151.834Z" fill="black"/><path d="M190.972 263.172C190.181 262.233 189.088 261.584 187.873 261.33C186.657 261.077 185.389 261.234 184.277 261.777C184.038 261.887 183.828 262.048 183.662 262.248C183.241 262.825 183.51 263.622 183.548 264.336C183.645 266.078 182.23 267.493 180.958 268.711C180.276 269.363 179.581 270.06 179.274 270.948C178.966 271.835 179.194 272.962 180.019 273.424C180.379 273.601 180.771 273.707 181.173 273.738C182.519 273.995 183.899 274.033 185.258 273.849C186.601 273.597 187.919 272.85 188.5 271.637C188.612 271.308 188.798 271.008 189.044 270.758C189.785 270.184 190.922 270.857 191.764 270.448C192.459 270.11 192.488 269.577 192.497 268.876C192.522 266.936 192.227 264.74 190.972 263.172Z" fill="#5C94C2"/><path d="M201.079 263.098C201.597 264.435 201.669 265.892 201.736 267.32C201.774 268.145 201.799 269.029 201.344 269.726C200.89 270.424 200.001 270.791 199.15 270.964C197.394 271.319 195.36 270.985 194.227 269.619C193.36 268.575 193.179 267.143 193.339 265.789C193.474 264.679 193.76 263.379 192.947 262.59C192.737 262.38 192.463 262.231 192.269 262.004C191.848 261.501 191.916 260.741 192.143 260.122C192.439 259.53 192.661 258.905 192.804 258.261C192.838 257.955 198.506 258.475 199.028 258.727C199.74 259.07 199.63 259.643 199.845 260.337C200.144 261.303 200.717 262.173 201.079 263.098Z" fill="#5C94C2"/><path d="M202.119 203.807C203.231 204.513 203.66 205.899 203.833 207.187C204.309 210.716 203.475 214.282 203.412 217.843C203.353 222.833 204.827 227.914 203.568 232.747C202.814 235.636 203.454 238.937 202.747 241.855C202.536 242.722 202.149 243.539 201.946 244.406C201.525 246.284 201.968 248.248 202.561 250.085C202.751 250.58 202.871 251.098 202.919 251.624C202.891 252.435 202.681 253.229 202.304 253.952L199.778 259.808C199.496 260.465 198.384 260.572 197.672 260.659C196.333 260.815 194.838 260.927 193.773 260.114C192.707 259.301 192.45 257.939 192.286 256.668C191.971 254.227 191.83 251.768 191.865 249.309C191.911 248.667 191.853 248.022 191.692 247.398C191.461 246.692 190.951 246.081 190.812 245.334C190.635 244.369 191.136 243.419 191.322 242.445C191.449 241.556 191.435 240.652 191.28 239.767C191.115 238.446 190.926 237.125 190.711 235.813C190.408 233.976 190.842 232.165 191.132 230.324C191.406 228.595 191.056 226.832 190.711 225.115C190.741 226.509 190.564 227.899 190.185 229.243C189.962 229.899 189.641 230.526 189.448 231.195C188.584 234.195 190.425 237.344 190.164 240.452C190.042 241.905 189.46 243.341 189.625 244.773C189.738 245.821 190.235 246.783 190.576 247.782C190.917 248.781 191.094 249.924 190.576 250.857C189.208 253.391 190.231 256.837 191.456 259.437C191.705 259.898 191.922 260.375 192.105 260.865C192.467 262.037 192.164 263.296 192.261 264.517C191.908 264.574 191.547 264.551 191.205 264.45C190.862 264.349 190.548 264.173 190.286 263.935C190.1 263.746 189.949 263.523 189.768 263.325C189.262 262.852 188.663 262.486 188.008 262.247C187.623 262.036 187.184 261.938 186.744 261.963C186.281 262.089 185.865 262.343 185.544 262.693C185.127 263.052 184.686 263.382 184.222 263.68C184.024 263.828 183.793 263.929 183.548 263.973C183.425 263.991 183.298 263.971 183.187 263.916C183.076 263.86 182.986 263.772 182.929 263.663C182.903 263.594 182.887 263.522 182.883 263.448C182.726 262.202 182.643 260.948 182.634 259.693C182.634 257.534 179.998 256.048 179.665 253.915C179.4 252.194 179.893 250.44 179.728 248.706C179.648 247.815 179.396 246.94 179.413 246.048C179.413 245.471 179.547 244.905 179.594 244.332C179.632 243.695 179.622 243.056 179.564 242.421L179.434 240.427C179.307 238.459 179.168 236.449 178.377 234.649C177.438 232.548 176.882 230.302 176.734 228.013C176.65 226.568 176.705 225.124 176.536 223.675C176.385 222.367 176.048 221.067 176.145 219.754C176.225 218.739 176.566 217.757 176.646 216.741C176.81 214.789 176.052 212.891 175.458 211.021C174.864 209.152 174.427 207.08 175.206 205.276C175.317 204.98 175.502 204.716 175.745 204.509C176.043 204.315 176.383 204.191 176.738 204.145C183.964 202.658 191.37 202.195 198.729 202.771C199.929 202.838 201.093 203.194 202.119 203.807Z" fill="#3F3D56"/><path d="M178.213 159.973C181.938 159.973 184.959 157.013 184.959 153.361C184.959 149.71 181.938 146.75 178.213 146.75C174.487 146.75 171.466 149.71 171.466 153.361C171.466 157.013 174.487 159.973 178.213 159.973Z" fill="#BE6F72"/><path d="M176.907 161.619C177.004 161.997 177.004 162.393 176.907 162.771C176.801 163.035 176.652 163.28 176.465 163.497C175.812 164.323 175.089 165.093 174.304 165.8C174.704 166.675 175.424 167.372 176.322 167.752C177.213 168.124 178.148 168.386 179.105 168.532C179.583 168.655 180.08 168.689 180.571 168.631C181.023 168.52 181.451 168.33 181.834 168.07L185.582 165.87C186.147 165.57 186.671 165.2 187.14 164.768C187.827 164.076 188.217 163.151 188.227 162.185C188.244 162.012 188.196 161.838 188.092 161.698C187.948 161.575 187.768 161.501 187.578 161.487C186.26 161.202 185.22 160.154 184.63 158.966C184.097 157.747 183.752 156.458 183.607 155.14L179.611 157.203C179.017 157.513 178.427 157.822 177.812 158.091C177.421 158.264 176.629 158.408 176.351 158.759C175.82 159.407 176.768 160.839 176.907 161.619Z" fill="#BE6F72"/><path d="M174.33 164.599C173.761 165.056 173.317 165.645 173.037 166.312C172.776 167.137 173.037 168.008 173.273 168.825C174.378 172.308 175.223 175.866 175.8 179.469C176.153 181.946 176.284 184.459 176.456 186.964C176.81 192.074 177.324 200.221 178.01 205.297C180.537 205.408 183.001 204.686 185.506 204.422C190.189 203.935 195.011 205.049 199.597 204.009C198.485 199.705 197.373 192.354 196.262 188.054C195.77 186.359 195.429 184.626 195.243 182.874C195.146 181.615 195.205 180.352 195.221 179.085C195.259 176.609 195.12 174.133 194.981 171.657C194.821 168.768 194.661 165.879 193.962 163.051C193.914 162.691 193.741 162.358 193.474 162.106C193.053 161.805 192.505 161.912 192.004 161.978C190.47 162.169 188.917 161.809 187.633 160.963C187.077 160.592 186.332 160.138 185.814 160.55C185.593 160.799 185.447 161.104 185.393 161.429C185.163 162.013 184.81 162.543 184.355 162.982C183.9 163.421 183.355 163.76 182.756 163.976C181.556 164.402 180.3 164.655 179.025 164.727C178.635 164.809 178.229 164.764 177.867 164.599C177.269 164.24 177.227 162.948 176.473 162.862C175.812 162.787 174.776 164.182 174.33 164.599Z" fill="#3F3D56"/><path d="M184.293 174.678C182.739 173.221 182.057 171.108 180.924 169.313C180.153 168.105 179.168 167.043 178.014 166.176C177.435 165.801 176.903 165.359 176.431 164.859C176.031 164.377 175.728 163.733 175.121 163.547C174.871 163.494 174.611 163.501 174.364 163.567C174.116 163.634 173.889 163.759 173.702 163.931C173.331 164.278 172.98 164.644 172.649 165.029C170.864 166.84 167.727 167.092 166.312 169.189C165.93 169.633 165.67 170.166 165.558 170.736C165.15 173.788 165.956 176.876 167.807 179.362C168.165 179.938 168.715 180.376 169.365 180.6C169.277 181.37 169.381 182.149 169.668 182.87C170.448 185.482 171.406 188.04 172.536 190.526C172.266 191.499 172.077 192.491 171.971 193.494C171.677 196.015 171.95 198.574 171.672 201.1C171.445 203.164 170.83 205.173 170.809 207.241C170.809 207.571 170.839 207.963 171.129 208.133C171.284 208.21 171.457 208.246 171.63 208.236L176.81 208.389C179.817 208.475 182.853 208.562 185.814 208.017C186.208 207.96 186.59 207.841 186.946 207.666C187.949 207.117 188.281 205.879 188.441 204.777C188.65 203.348 188.733 201.904 188.69 200.46C189.317 202.404 190.063 204.414 191.958 205.256C192.96 205.702 194.105 205.669 195.204 205.64C197.573 205.536 199.934 205.298 202.275 204.926C202.419 204.943 202.566 204.928 202.703 204.88C202.839 204.832 202.963 204.753 203.063 204.65C203.164 204.547 203.238 204.422 203.28 204.286C203.322 204.15 203.332 204.006 203.307 203.865L203.332 201.612C203.383 197.035 202.224 192.66 201.774 188.104C201.631 186.667 201.643 185.215 201.285 183.807C201.138 183.217 200.923 182.639 200.793 182.045C200.68 181.463 200.61 180.874 200.582 180.283L200.254 175.743C200.098 173.642 199.875 171.616 199.71 169.519C199.62 167.477 199.318 165.45 198.809 163.469C198.443 162.23 197.681 160.827 196.363 160.674C195.659 160.596 194.977 160.897 194.307 161.108C192.662 161.616 190.895 161.608 189.254 161.087C188.747 160.891 188.218 160.752 187.679 160.674C187.408 160.638 187.131 160.673 186.878 160.776C186.625 160.879 186.404 161.046 186.239 161.261C186.075 161.583 185.999 161.941 186.016 162.301C185.818 166.424 185.451 170.67 184.293 174.678Z" fill="#5C94C2"/><path d="M177.518 174.802C175.576 172.796 173.584 170.753 171.083 169.477C170.098 168.974 168.977 168.594 167.887 168.784C166.796 168.974 165.781 169.903 165.832 170.988C165.865 171.661 166.282 172.255 166.413 172.915C166.564 173.658 166.345 174.451 166.581 175.169C166.773 175.642 167.059 176.073 167.423 176.436L170.405 179.899C171.668 181.343 172.932 182.808 174.557 183.807C176.183 184.806 178.288 185.272 180.074 184.562C181.344 183.984 182.4 183.033 183.097 181.842C183.839 180.687 184.361 179.424 185.056 178.231C186.137 176.325 187.564 174.629 189.267 173.225C188.391 173.002 187.292 172.688 186.74 171.987C186.583 171.764 186.449 171.526 186.34 171.277L185.658 169.832C185.426 169.821 185.194 169.856 184.976 169.936C184.759 170.016 184.561 170.14 184.394 170.299C184.102 170.63 183.788 170.943 183.455 171.236C182.862 171.673 182.057 171.793 181.518 172.292C181.31 172.507 181.121 172.739 180.954 172.986C180.546 173.511 180.029 173.944 179.436 174.258C178.843 174.571 178.189 174.756 177.518 174.802Z" fill="#3F3D56"/><path d="M189.423 166.172C190.884 163.559 190.817 160.427 191.233 157.476C191.279 156.694 191.558 155.943 192.038 155.317C192.88 154.384 194.367 154.372 195.638 154.492C196.013 154.533 196.481 154.706 196.46 155.074C196.43 155.205 196.364 155.327 196.27 155.424C195.037 156.984 194.312 158.871 194.19 160.839C194.851 161.289 195.874 160.365 196.51 160.839C196.931 161.186 196.737 161.871 196.485 162.366C195.898 163.514 195.293 164.653 194.67 165.784C194.172 166.78 193.523 167.697 192.745 168.503C192.21 169.007 191.583 169.403 191.04 169.898C189.776 171.058 189.014 172.697 187.709 173.827C187.598 173.945 187.449 174.019 187.288 174.038C187.121 174.026 186.965 173.958 186.845 173.844C186.193 173.324 185.652 172.683 185.254 171.958C184.757 171.058 184.832 170.794 185.616 170.158C187.081 169.023 188.509 167.806 189.423 166.172Z" fill="#BE6F72"/><path d="M175.075 173.027C175.328 173.179 175.64 173.353 175.917 173.225C176.031 173.157 176.127 173.066 176.2 172.957C176.681 172.327 177.083 171.642 177.396 170.918C177.449 170.815 177.48 170.703 177.484 170.588C177.484 170.323 177.244 170.129 177.021 169.977C175.825 169.23 174.539 168.631 173.193 168.194C172.081 167.781 170.919 167.422 169.74 167.525C169.297 167.554 168.864 167.671 168.468 167.868C168.072 168.065 167.721 168.339 167.436 168.673C166.594 169.733 168.005 170.055 168.889 170.439C170.936 171.351 173.151 171.879 175.075 173.027Z" fill="#5C94C2"/><path opacity="0.1" d="M173.749 180.043C173.734 180.137 173.743 180.233 173.774 180.324C173.804 180.414 173.856 180.496 173.925 180.563C174.048 179.977 173.888 179.358 174.014 178.768C174.199 177.88 175.079 177.212 175.155 176.32C173.542 176.011 173.761 179.085 173.749 180.043Z" fill="black"/><path opacity="0.2" d="M248 147.769V151.834L230.877 152.853L230.359 148.784L248 147.769Z" fill="black"/><path d="M172.14 154.343C173.21 153.489 172.591 151.698 173.315 150.551C173.736 149.923 174.448 149.593 175.147 149.312C175.991 148.926 176.894 148.68 177.821 148.586C178.285 148.542 178.753 148.602 179.191 148.76C179.628 148.917 180.023 149.17 180.348 149.498C180.621 149.804 180.807 150.175 181.064 150.493C181.382 150.864 181.796 151.143 182.263 151.301C182.731 151.46 183.233 151.491 183.717 151.392C184.277 151.269 184.858 150.852 184.82 150.291C184.757 149.949 184.579 149.638 184.315 149.407L183.11 148.099C181.742 146.613 180.221 145.037 178.213 144.665C176.815 144.405 175.383 144.772 174.035 145.214C173.492 145.392 172.881 145.656 172.73 146.196C172.629 146.568 172.78 146.972 172.692 147.348C172.519 148.095 171.542 148.347 171.087 148.974C170.633 149.601 170.772 150.344 170.641 151.038C170.51 151.731 170.131 152.408 170.085 153.126C170.056 153.559 170.279 154.364 170.776 154.521C171.273 154.678 171.833 153.828 172.14 154.343Z" fill="#3F3D56"/><path d="M184.411 149.696C184.056 147.88 183.291 146.165 182.171 144.677C181.175 143.287 179.79 142.209 178.183 141.574C177.379 141.266 176.515 141.141 175.655 141.207C174.796 141.274 173.962 141.53 173.218 141.958C172.113 142.731 171.253 143.793 170.738 145.024C169.647 147.327 169.243 150.142 170.51 152.354C171.015 151.751 171.883 152.024 172.649 151.805C173.61 151.537 174.422 150.909 175.336 150.517C178.094 149.325 181.463 150.29 184.411 149.696Z" fill="#FED253"/><path opacity="0.1" d="M171.155 149.568C171.058 148.825 170.995 147.962 171.534 147.434C171.56 147.402 171.594 147.376 171.633 147.359C171.672 147.342 171.714 147.334 171.757 147.335C171.794 147.347 171.829 147.366 171.859 147.392C171.888 147.418 171.912 147.449 171.929 147.484C172.241 147.965 172.506 148.473 172.721 149.003C172.407 148.932 172.079 148.955 171.779 149.069C171.478 149.183 171.22 149.383 171.037 149.642" fill="black"/><path opacity="0.1" d="M180.996 147.471L180.844 145.998C180.82 145.877 180.83 145.751 180.874 145.635C180.937 145.538 181.035 145.467 181.149 145.436C181.262 145.406 181.384 145.418 181.489 145.47C181.696 145.582 181.867 145.75 181.981 145.953C182.332 146.48 182.623 147.043 182.849 147.632C182.171 147.504 181.473 147.513 180.798 147.657" fill="black"/><path opacity="0.1" d="M184.765 207.27V210.638L181.864 210.828H166.602V207.27H184.765Z" fill="black"/><path d="M184.765 207.27V210.827H166.602L118.351 151.59V148.792H128.466L184.765 207.27Z" fill="#F1C0C0"/><path opacity="0.1" d="M184.765 207.27V210.827H166.602L118.351 151.59V148.792H128.466L184.765 207.27Z" fill="black"/><path opacity="0.1" d="M184.765 207.27V210.827H166.602L118.351 151.59V148.792L166.863 207.27H184.765Z" fill="black"/><path d="M124.676 266.643C124.708 266.81 124.704 266.982 124.665 267.148C124.625 267.314 124.552 267.47 124.448 267.607C124.345 267.744 124.213 267.858 124.063 267.943C123.912 268.028 123.745 268.081 123.573 268.1C122.402 268.488 121.16 268.872 120.33 269.751C119.5 270.63 119.336 272.26 120.33 272.974C120.838 273.274 121.421 273.43 122.014 273.424C123.922 273.552 125.91 273.527 127.641 272.735C128.879 272.173 130.045 271.216 131.405 271.303C132.109 271.344 132.858 271.666 133.486 271.352C134.113 271.038 134.29 270.163 134.294 269.433C134.31 267.908 134.076 266.39 133.599 264.938C133.536 264.74 130.858 264.588 130.538 264.526L127.291 264.113C126.676 264.035 125.35 263.581 124.865 264.084C124.381 264.588 124.676 266.044 124.676 266.643Z" fill="#5C94C2"/><path d="M144.052 256.342C144.189 257.085 144.412 257.81 144.717 258.504C145.168 259.627 145.744 260.82 146.848 261.364C147.85 261.856 149.08 261.678 150.099 261.212C150.524 261.039 150.897 260.762 151.181 260.407C151.51 259.845 151.657 259.199 151.602 258.554C151.602 256.957 151.505 255.306 150.76 253.886C150.12 252.648 149.004 251.583 148.987 250.213L145.151 250.939C144.945 250.959 144.75 251.034 144.586 251.158C144.465 251.283 144.38 251.439 144.342 251.608C143.933 253.152 143.834 254.76 144.052 256.342Z" fill="#5C94C2"/><path d="M98.2381 217.134C98.0781 218.462 98.1455 219.886 98.853 221.034C99.5604 222.181 101.051 222.94 102.34 222.482C102.406 222.466 102.468 222.436 102.522 222.396C102.576 222.356 102.622 222.305 102.656 222.247C102.69 222.108 102.67 221.961 102.601 221.834C102.032 220.346 102.079 218.7 102.731 217.245C102.816 217.055 102.997 216.832 103.195 216.907C103.277 216.948 103.344 217.014 103.384 217.096C103.588 217.442 103.69 217.836 103.679 218.235C103.62 218.597 103.608 218.965 103.645 219.329C103.725 219.684 104.113 220.018 104.45 219.866C104.547 219.807 104.631 219.73 104.697 219.638C104.763 219.547 104.809 219.443 104.833 219.333C105.772 216.671 105.347 213.762 104.917 210.976C104.921 210.912 104.91 210.848 104.885 210.788C104.861 210.729 104.824 210.676 104.776 210.632C104.728 210.588 104.671 210.555 104.609 210.536C104.547 210.516 104.481 210.51 104.416 210.518C102.428 210.324 101.342 209.857 100.205 211.669C99.2278 213.196 98.2381 215.297 98.2381 217.134Z" fill="#5C94C2"/><path d="M121.475 210.361C120.886 212.763 120.292 215.194 120.254 217.662C120.265 219.199 120.383 220.734 120.608 222.255L121.05 225.83C121.202 227.035 121.349 228.236 121.564 229.428C121.701 230.043 121.776 230.669 121.787 231.298C121.746 231.918 121.646 232.533 121.488 233.135C121.223 234.398 121.075 235.683 121.046 236.973C121 239.036 121.261 241.1 121.425 243.164C121.753 247.276 121.703 251.408 121.277 255.512C121.107 256.62 121.353 257.75 121.968 258.694C122.218 258.992 122.423 259.322 122.579 259.676C122.895 260.621 122.158 261.567 121.968 262.536C121.847 263.293 122.037 264.065 122.496 264.684C122.956 265.303 123.647 265.718 124.419 265.838C127.788 266.23 131.25 266.053 134.286 267.563C134.606 266.647 133.907 265.607 134.227 264.674C134.429 264.097 134.985 263.721 135.364 263.234C135.873 262.492 136.127 261.61 136.088 260.716C136.103 259.55 135.892 258.392 135.465 257.303C135.107 256.395 134.593 255.5 134.623 254.526C134.623 254.047 134.795 253.543 134.597 253.102C134.462 252.848 134.277 252.622 134.054 252.437C132.796 251.086 132.022 249.369 131.852 247.547C131.688 245.739 131.747 243.918 132.029 242.124C132.235 240.415 132.513 238.611 133.62 237.278C133.107 233.236 133.409 229.134 134.509 225.206C134.618 224.843 134.791 224.422 135.17 224.335C135.321 224.32 135.473 224.341 135.613 224.396C135.754 224.45 135.879 224.537 135.979 224.649C136.64 225.256 136.956 226.135 137.242 226.977C137.558 227.889 137.878 228.863 137.638 229.796C137.537 230.208 137.335 230.572 137.217 230.968C136.961 231.764 137.005 232.624 137.343 233.39C137.508 233.671 137.611 233.981 137.646 234.303C137.607 234.579 137.522 234.846 137.394 235.095C137.237 235.583 137.188 236.098 137.248 236.607C137.308 237.115 137.477 237.606 137.743 238.046C138.28 238.922 138.942 239.719 139.71 240.411C139.343 241.995 139.438 243.648 139.983 245.182C140.023 245.251 140.048 245.327 140.057 245.405C140.067 245.484 140.06 245.564 140.038 245.64C139.962 245.797 139.769 245.854 139.617 245.966C139.196 246.304 139.457 246.944 139.739 247.386C140.513 248.598 141.366 249.759 142.295 250.861C143.138 251.847 143.062 253.75 144.317 254.105C144.844 254.216 145.39 254.216 145.917 254.105C147.155 253.919 148.536 253.568 149.143 252.495C149.391 252.053 149.492 251.517 149.88 251.187C150.267 250.857 150.768 250.799 150.983 250.403C151.198 250.006 150.958 249.486 151.029 249.028C151.101 248.57 151.509 248.203 151.64 247.72C151.952 246.606 150.625 245.689 150.444 244.55C150.183 242.899 152.305 241.661 152.217 240.01C152.032 236.424 151.914 232.821 151.724 229.234C151.486 226.022 151.453 222.798 151.623 219.581C151.771 217.579 152.044 215.483 151.295 213.621C150.217 210.997 147.244 209.523 144.367 209.242C141.491 208.962 138.623 209.63 135.772 210.068C131.041 210.783 126.233 210.881 121.475 210.361Z" fill="#3F3D56"/><path d="M130.024 170.914C133.75 170.914 136.77 167.954 136.77 164.302C136.77 160.651 133.75 157.69 130.024 157.69C126.298 157.69 123.278 160.651 123.278 164.302C123.278 167.954 126.298 170.914 130.024 170.914Z" fill="#FBBEBE"/><path d="M127.278 172.148C127.049 172.671 126.664 173.114 126.173 173.418C125.682 173.722 125.109 173.874 124.529 173.852C124.284 174.843 124.87 175.842 125.539 176.622C126.93 178.207 128.726 179.401 130.744 180.079C132.762 180.758 134.928 180.896 137.019 180.481C137.832 180.338 138.604 180.022 139.28 179.556C140.191 178.811 140.803 177.772 141.007 176.626C141.201 175.488 141.256 174.331 141.171 173.18C141.195 172.952 141.128 172.725 140.986 172.544C140.817 172.416 140.609 172.349 140.396 172.354C138.973 172.231 137.486 172.177 136.236 171.492C134.985 170.807 134.096 169.259 134.698 167.988C134.602 168.186 132.142 168.281 131.818 168.322C130.803 168.462 129.788 168.619 128.778 168.801C128.292 168.827 127.812 168.916 127.35 169.065C126.739 169.375 126.967 169.222 127.11 169.783C127.325 170.642 127.641 171.256 127.278 172.148Z" fill="#FBBEBE"/><path d="M132.412 176.168C131.503 176.178 130.597 176.08 129.713 175.875C128.82 175.67 128.033 175.156 127.497 174.426C127.186 173.964 126.984 173.382 126.487 173.122C125.674 172.709 124.748 173.407 124.099 174.046C123.509 174.677 122.824 175.217 122.069 175.648C121.168 176.114 120.115 176.279 119.265 176.828C118.6 177.32 118.03 177.924 117.58 178.611L111.613 186.576C109.217 189.779 107.132 193.217 104.997 196.597C103.148 199.523 102.18 202.891 100.786 206.048C100.676 206.242 100.63 206.464 100.655 206.684C100.706 206.899 100.971 207.072 101.157 206.948C100.529 207.559 101.081 208.599 100.933 209.457C100.766 210.058 100.416 210.595 99.9312 210.997C100.858 210.878 101.799 210.922 102.711 211.125C103.653 211.386 104.541 211.805 105.338 212.363C105.848 212.284 105.802 211.397 106.181 211.067C106.408 210.873 106.745 210.898 107.044 210.84C108.168 210.625 108.615 209.301 109.478 208.554C110.198 207.93 111.217 207.728 111.979 207.142C113.217 206.189 113.483 204.492 114.131 203.085C114.683 201.892 115.55 200.852 116.035 199.631C116.35 198.838 116.502 197.98 116.953 197.249C117.673 196.069 119.029 195.442 120.322 194.876C121.139 194.517 122.006 194.146 122.886 194.203C122.84 196.123 122.591 198.013 123.017 199.886C123.164 200.547 123.371 201.191 123.547 201.847C124.352 204.802 124.541 207.881 124.579 210.927C126.514 210.493 128.49 210.26 130.475 210.233C132.037 210.188 133.595 210.386 135.158 210.357C137.01 210.324 138.842 209.973 140.695 209.849C142.548 209.726 144.485 209.849 146.123 210.675C145.99 208.059 146.065 205.438 146.347 202.833L146.793 198.731C146.894 197.539 147.081 196.356 147.353 195.19C147.597 194.249 147.951 193.341 148.221 192.404C149.168 189.102 148.995 185.578 148.814 182.14C148.722 180.373 148.027 178.636 147.21 177.063C146.914 176.479 146.576 175.917 146.199 175.379C145.212 174.046 143.896 172.98 142.375 172.28C140.854 171.58 139.176 171.269 137.499 171.376C137.285 171.383 137.074 171.427 136.876 171.508C136.52 171.731 136.243 172.055 136.08 172.437C135.209 173.972 133.944 175.257 132.412 176.168Z" fill="#3F3D56"/><path d="M124.091 166.494C124.28 166.081 124.79 165.928 125.101 165.598C125.699 164.971 125.43 163.968 125.522 163.122C125.674 161.883 126.723 160.848 127.923 160.406C129.147 160.021 130.449 159.94 131.713 160.171C132.321 160.214 132.909 160.406 133.423 160.728C133.642 160.885 133.844 161.087 134.05 161.231C134.426 161.454 134.876 161.524 135.304 161.426C135.732 161.328 136.104 161.07 136.341 160.707C134.85 158.949 133.199 157.092 130.934 156.551C130.157 156.396 129.365 156.322 128.571 156.332C127.523 156.312 126.441 156.295 125.472 156.687C124.154 157.22 123.227 158.446 122.752 159.766C122.335 161.105 122.113 162.494 122.09 163.893C122.004 164.827 122.004 165.766 122.09 166.7C122.253 167.975 122.736 169.19 123.497 170.237C123.6 170.399 123.745 170.532 123.918 170.621C125.838 171.446 123.935 166.836 124.091 166.494Z" fill="#3F3D56"/><path d="M136.122 159.688C135.89 157.744 134.475 156.139 132.972 154.847C131.76 153.727 130.317 152.875 128.74 152.35C127.152 151.892 125.324 151.991 123.964 152.919C122.869 153.667 122.175 154.855 121.64 156.052C120.937 157.464 120.589 159.021 120.625 160.592C120.73 162.152 121.505 163.733 122.886 164.521C123.383 163.803 124.246 163.431 125.076 163.138C128.692 161.794 132.379 160.642 136.122 159.688Z" fill="#FED253"/><path opacity="0.1" d="M123.349 158.879C123.484 158.879 123.573 159.015 123.64 159.127C123.983 159.65 124.277 160.203 124.52 160.778C124.027 160.881 123.181 160.996 122.937 160.571C122.806 160.357 122.962 158.858 123.349 158.879Z" fill="black"/><path opacity="0.1" d="M132.947 157.946C132.846 158.041 132.728 157.847 132.728 157.707V156.105C132.725 156.061 132.735 156.017 132.757 155.978C132.775 155.958 132.796 155.942 132.82 155.931C132.844 155.919 132.87 155.913 132.896 155.911C133.237 155.874 133.519 156.159 133.738 156.432C134.071 156.873 134.36 157.344 134.602 157.839L132.82 157.785" fill="black"/><path d="M155.178 184.463C155.565 184.103 155.979 183.77 156.416 183.469C157.582 182.705 158.993 182.404 160.303 181.917C161.612 181.43 162.943 180.642 163.453 179.362C163.708 178.562 163.791 177.719 163.697 176.886C163.709 176.537 163.646 176.19 163.511 175.867C163.351 175.581 163.123 175.337 162.846 175.157C161.069 173.869 158.685 173.766 156.479 173.898C151.614 174.194 146.845 175.36 142.409 177.34C142.175 177.416 141.969 177.56 141.82 177.753C141.733 177.932 141.694 178.129 141.706 178.326C141.628 179.543 141.789 180.764 142.182 181.921C142.763 183.39 143.959 184.575 144.46 186.073C144.688 186.746 144.763 187.46 144.961 188.137C145.124 188.836 145.545 189.45 146.145 189.862C147.808 190.836 149.379 189.527 150.533 188.512L155.178 184.463Z" fill="#3F3D56"/><path d="M133.393 190.18L131.258 185.615C130.945 184.982 130.675 184.33 130.449 183.663C130.205 182.866 130.087 182.041 129.86 181.24C129.11 178.574 127.22 176.354 126.297 173.741C126.239 173.505 126.12 173.288 125.952 173.11C125.817 173.016 125.663 172.953 125.501 172.925C125.339 172.896 125.172 172.903 125.013 172.945C123.724 173.163 122.718 174.125 121.539 174.67C120.991 174.917 120.402 175.082 119.854 175.367C119.581 175.494 119.338 175.678 119.143 175.905C118.949 176.132 118.806 176.398 118.726 176.684C118.595 177.315 118.915 177.922 119.185 178.537C120.33 181.071 120.591 183.902 120.642 186.676C120.68 188.541 120.583 190.543 119.458 192.041C117.298 194.93 118.679 199.173 119.488 202.668C119.585 203.081 119.698 203.527 119.766 203.964C119.837 204.512 119.869 205.063 119.863 205.615C119.863 207.468 119.757 209.379 118.966 211.059C119.747 211.466 120.609 211.706 121.492 211.76C123.938 212.066 126.393 212.28 128.858 212.404C129.63 212.475 130.409 212.436 131.17 212.289C132.073 212.049 132.87 211.522 133.433 210.789C133.997 210.057 134.295 209.161 134.282 208.244C134.416 209.387 134.665 210.63 135.511 211.422C136.358 212.214 137.592 212.334 138.741 212.396C141.986 212.565 145.239 212.475 148.469 212.128C148.675 212.119 148.878 212.072 149.067 211.992C149.69 211.686 149.724 210.844 149.673 210.167C149.581 208.9 149.484 207.633 149.328 206.374C149.196 205.572 149.128 204.761 149.126 203.948C149.19 203.112 149.331 202.283 149.547 201.471C150.111 198.896 150.558 196.267 150.368 193.63C150.293 192.987 150.267 192.34 150.288 191.694C150.398 190.237 151.181 188.851 151.034 187.402C150.613 183.143 150.271 178.772 149.059 174.661C148.84 173.927 148.562 173.139 147.909 172.718C147.067 172.164 145.883 172.453 144.919 172.103C144.467 171.896 144.036 171.646 143.635 171.356C142.762 170.821 141.762 170.519 140.733 170.481C139.958 170.452 139.095 170.621 138.628 171.232C138.411 171.576 138.268 171.959 138.206 172.358C137.596 174.876 136.88 177.365 136.164 179.853L135.478 182.239L133.637 188.644C133.456 189.325 133.578 189.536 133.393 190.18Z" fill="#5C94C2"/><path d="M144.161 165.189L184.895 207.142V210.7H166.733L136.122 171.545" fill="#F1C0C0"/><path opacity="0.1" d="M144.161 165.189L184.895 207.142V210.7H166.733L136.122 171.545" fill="black"/><path opacity="0.1" d="M136.77 170.992L136.901 171.038L166.994 207.142H184.895V210.7H166.733L136.122 171.545L136.77 170.992Z" fill="black"/><path d="M141.457 171.876C139.983 172.507 138.345 173.316 137.903 174.835C137.816 175.101 137.797 175.385 137.848 175.66C137.956 175.984 138.161 176.268 138.437 176.475C138.713 176.682 139.047 176.803 139.394 176.82C140.087 176.836 140.777 176.713 141.419 176.457L150.116 173.642C150.351 173.568 150.621 173.456 150.68 173.229C150.695 173.087 150.666 172.943 150.596 172.817C150.326 172.173 150.061 170.856 149.496 170.406C149.033 170.043 148.115 170.171 147.555 170.179C145.399 170.196 143.373 171.05 141.457 171.876Z" fill="#5C94C2"/><path d="M149.21 173.976C150.675 173.972 152.132 174.193 153.527 174.632C154.928 175.078 156.169 175.909 157.102 177.026C157.374 177.338 157.567 177.708 157.666 178.107C157.75 178.52 159.123 178.767 158.82 179.048C159.742 178.904 159.523 179.329 160.458 179.32C161.393 179.312 162.404 179.077 162.964 178.346C163.353 177.746 163.526 177.036 163.457 176.328C163.469 175.838 163.374 175.351 163.179 174.9C162.757 174.034 161.789 173.567 160.896 173.167L153.375 169.795C152.939 169.568 152.47 169.405 151.985 169.312C151.577 169.274 151.166 169.284 150.76 169.341L147.353 169.725C148.098 170.197 148.705 170.852 149.113 171.624C149.521 172.396 149.717 173.259 149.682 174.129" fill="#3F3D56"/></g><defs><clipPath id="clip0"><rect width="496" height="299" fill="white"/></clipPath></defs></svg>
