<svg width="1000" height="1000" fill="none" xmlns="http://www.w3.org/2000/svg"><path fill-rule="evenodd" clip-rule="evenodd" d="M129.825 126.71c-1.345 1.623-.365 113.775 1.06 121.29.573 3.025 1.718 11.438 2.543 18.698.825 7.257 2.192 14.85 3.037 16.872.845 2.02 1.535 4.748 1.535 6.06 0 4.38 6.003 25.718 11.218 39.87 18.455 50.09 54.195 94.258 91.947 113.633C254.85 450.158 267.405 456 268.81 456c.515 0 2.905.863 5.313 1.918 2.407 1.055 6.627 2.235 9.377 2.625 2.75.39 5.45 1.045 6 1.455.55.41 3.25 1.22 6 1.802 23.08 4.878 17.358 4.588 97.71 4.963 53.453.247 76.308.03 77.75-.74 2.21-1.183 3.075-117.28 1.028-138.023-2.638-26.73-4.608-38.06-8.69-50-.845-2.475-2.1-6.79-2.79-9.59-.69-2.802-1.943-6.177-2.783-7.5-.84-1.325-1.827-3.842-2.19-5.59-.365-1.75-1.28-3.695-2.035-4.32-.755-.625-1.65-2.345-1.99-3.82-.34-1.472-2.152-5.155-4.027-8.18-1.878-3.025-4.033-6.85-4.793-8.5-.76-1.65-2.125-3.617-3.035-4.372-.91-.755-1.655-1.755-1.655-2.22 0-5.07-32.07-38.63-46-48.135a638.726 638.726 0 0 1-6.74-4.71c-2.332-1.65-5.482-3.705-7-4.563-1.517-.857-4.11-2.41-5.76-3.45-4.957-3.12-24.73-12.772-28.735-14.027-2.055-.643-3.995-1.585-4.31-2.095-.315-.51-1.335-.933-2.265-.938-.93-.005-3.94-1.115-6.69-2.467-2.75-1.353-5.65-2.475-6.442-2.49-.795-.018-5.295-1.185-10-2.593-19.043-5.7-21.798-6.4-27.558-7.005-3.3-.347-8.25-1.24-11-1.985-2.75-.745-10.4-1.827-17-2.407-6.6-.58-14.475-1.508-17.5-2.063-8.47-1.555-109.905-1.8-111.175-.27Zm116.655 76.218c2.738.65 10.218 1.832 16.62 2.625 6.403.792 13.163 2.062 15.02 2.82 1.86.76 5.63 1.705 8.38 2.097 2.75.395 5.45 1.07 6 1.5.55.43 3.25 1.478 6 2.33 14.363 4.44 29.153 11.238 40.5 18.613 3.025 1.965 6.288 3.9 7.25 4.297.963.4 1.75 1.098 1.75 1.553 0 .455 2.293 2.575 5.095 4.712 7.14 5.445 17.193 15.973 21.6 22.623 9.983 15.055 15.538 27.875 19.898 45.902 2.11 8.735 3.377 78.138 1.477 81-2.437 3.675-71.027 1.995-82.752-2.025-2.853-.977-7.128-2.09-9.5-2.47-2.375-.382-5.805-1.552-7.625-2.6-1.818-1.047-3.843-1.915-4.5-1.927-1.708-.03-18.855-9.145-21.368-11.358-.697-.615-3.102-2.47-5.34-4.12-4.005-2.952-16.332-15.017-20.74-20.297-6.19-7.42-21.245-33.51-21.245-36.82 0-.32-.642-1.998-1.43-3.733-3.495-7.697-6.465-16.67-7.585-22.912-.67-3.72-1.582-6.99-2.03-7.265-.447-.278-1.12-3.085-1.495-6.238-.375-3.155-1.497-8.885-2.497-12.735-3.093-11.915-4.82-54.387-2.293-56.435 2.285-1.855 32.035-1.225 40.81.863Z" fill="#B40664"/><path fill-rule="evenodd" clip-rule="evenodd" d="M319.5 522.645c-3.757.295-19.085 3.265-28 5.428-9.96 2.415-26.445 7.762-30.105 9.767-1.042.57-5.27 2.65-9.395 4.62-7.482 3.575-10.827 5.398-16.5 8.99-21.302 13.485-33.727 24.385-47.945 42.05-7.75 9.633-8.225 10.275-12.09 16.425-1.877 2.983-3.76 5.683-4.187 6-.428.315-1.57 2.15-2.54 4.075-.968 1.925-2.65 4.85-3.738 6.5-1.875 2.845-3.575 6.233-6.532 13-.72 1.65-2.47 5.4-3.888 8.333-1.42 2.932-2.58 5.827-2.58 6.435 0 .605-.87 2.93-1.935 5.167-2.675 5.623-5.992 15.185-7.135 20.565-.525 2.475-1.85 7.09-2.942 10.255-1.093 3.163-1.988 7.03-1.988 8.593 0 1.562-.9 5.455-2 8.652-1.1 3.198-2 7.018-2 8.49 0 1.473-1.132 10.74-2.515 20.595-2.475 17.628-2.512 18.805-2.25 73.415l.265 55.5 53 .29c49.038.27 54.123.138 68-1.777 29.18-4.023 43.998-6.518 50.5-8.498 2.475-.755 9.45-2.777 15.5-4.495 6.05-1.72 12.275-3.777 13.83-4.572 1.558-.795 3.358-1.453 4-1.458.645-.005 3.42-1.115 6.17-2.467 2.75-1.353 5.54-2.475 6.198-2.49 3.515-.093 31.577-15.683 41.007-22.783 3.105-2.337 5.93-4.25 6.28-4.25.353 0 1.525-.787 2.61-1.75 1.085-.962 4.833-4.197 8.325-7.187 3.495-2.99 9.33-8.568 12.968-12.395 3.637-3.825 7.545-7.903 8.685-9.06 3.75-3.813 16.377-21.453 16.41-22.925.01-.448 1.07-2.248 2.357-4 5.378-7.32 19.66-41.053 19.66-46.438 0-1.212.66-3.9 1.468-5.975.807-2.072 2.612-11.202 4.007-20.287l2.538-16.518-.255-71.982-.258-71.983-74.5-.085c-40.975-.047-76.3.058-78.5.23Zm211.75.018c-1.567.632-1.783 134.432-.245 152.337 1.587 18.49 9.17 47.108 16.425 62 8.018 16.458 12.077 23.363 19.685 33.473 4.062 5.4 7.995 10.64 8.74 11.647 4.99 6.738 29.133 29.005 33.707 31.09 1.34.613 2.438 1.458 2.438 1.883 0 .425.82 1.032 1.823 1.352 1.005.318 2.75 1.438 3.877 2.49 1.13 1.053 4.68 3.315 7.893 5.03 3.21 1.713 6.527 3.738 7.372 4.498.845.76 2.778 1.692 4.295 2.07 1.518.38 3.003 1.082 3.3 1.565.62 1 14.665 7.902 16.083 7.902.515 0 2.7.9 4.857 2 2.158 1.1 4.627 2 5.49 2 .86 0 2.452.62 3.537 1.375 1.085.758 5.348 2.35 9.473 3.543 16.607 4.795 25.743 7.2 30.5 8.03 2.75.48 8.375 1.57 12.5 2.425 4.125.855 12 2.005 17.5 2.557 5.5.553 15.175 1.693 21.5 2.53 12.887 1.708 106.317 2.26 108.867.643 3.183-2.015 1.173-122.453-2.292-137.465-.78-3.375-1.735-9.513-2.125-13.638-.388-4.125-1.547-9.75-2.577-12.5S862 695.55 862 694.39c0-1.162-1.125-5.657-2.5-9.99-1.375-4.33-2.5-8.97-2.5-10.31 0-1.337-.608-3.142-1.348-4.012-.742-.868-1.937-3.758-2.657-6.425-.72-2.665-2.137-6.473-3.152-8.46-1.013-1.988-1.843-4.133-1.843-4.763 0-1.387-13.543-28.21-15.343-30.39-.7-.847-1.782-2.742-2.407-4.212-.625-1.47-1.825-3.495-2.668-4.5-.842-1.005-4.582-5.938-8.307-10.96-11.787-15.89-27.535-31.46-41.608-41.135-11.695-8.043-12.974-8.838-19.667-12.25-3.575-1.823-7.175-3.873-8-4.555-.825-.683-3.392-1.745-5.707-2.363-2.315-.615-4.441-1.495-4.726-1.955-.282-.46-2.665-1.425-5.292-2.147-2.625-.72-5.675-1.843-6.775-2.493-1.1-.65-4.7-1.747-8-2.44-3.3-.692-6.855-1.71-7.9-2.26-1.045-.55-4.645-1.39-8-1.865-3.355-.475-8.125-1.357-10.6-1.96-9.765-2.38-156.385-4.447-161.75-2.282ZM470.768 592c.222 55.818.015 68.885-1.195 75.5-.805 4.4-1.738 12.258-2.07 17.46-.333 5.203-.993 9.928-1.465 10.5-.473.573-1.395 3.965-2.048 7.54-.652 3.575-1.802 7.85-2.555 9.5-.755 1.65-1.897 5.25-2.545 8-.645 2.75-1.727 5.675-2.405 6.5-.677.825-1.537 3.21-1.912 5.303-.375 2.092-1.288 4.035-2.025 4.317-.74.285-1.83 2.448-2.425 4.808-.595 2.362-1.765 4.86-2.603 5.555-.835.695-1.52 2.042-1.52 2.995 0 .952-1.125 2.945-2.5 4.427-1.375 1.485-2.5 3.398-2.5 4.253s-1.145 2.967-2.542 4.697c-1.398 1.73-3.213 4.045-4.035 5.145l-4.473 6c-1.64 2.2-3.762 5.018-4.715 6.26-1.532 1.998-5.742 6.418-9.465 9.943a76.463 76.463 0 0 0-2.497 2.5c-.675.712-3.375 3.215-6 5.56-2.625 2.345-6.72 6.037-9.098 8.207-2.38 2.168-5.132 4.2-6.12 4.513-.985.312-2.595 1.457-3.577 2.542-.983 1.088-2.323 1.975-2.978 1.975-.655 0-1.995.888-2.977 1.975-.983 1.085-2.635 2.243-3.673 2.573-1.037.33-4.917 2.59-8.617 5.025-3.703 2.432-7.42 4.425-8.26 4.425-.84.002-2.595.75-3.9 1.665-3.685 2.58-11.408 6.327-13.073 6.342-.825.008-3.75 1.12-6.5 2.473-2.75 1.352-5.727 2.475-6.615 2.49-.887.017-2.702.887-4.032 1.932-1.375 1.083-4.983 2.21-8.385 2.62-3.283.395-6.648 1.313-7.48 2.04-.833.725-4.208 1.763-7.5 2.305-3.293.54-7.6 1.668-9.57 2.503-1.97.835-7.145 1.827-11.5 2.205-4.355.38-9.718 1.265-11.918 1.972-2.2.708-11.2 1.805-20 2.443-8.8.637-19.182 1.555-23.075 2.037-3.89.485-27.29.948-52 1.028l-44.925.145-.277-53.85c-.228-44.69-.023-55.038 1.215-60.848.82-3.85 1.995-12.625 2.612-19.5.618-6.875 1.723-14.322 2.458-16.55.732-2.227 1.785-7.317 2.34-11.31.552-3.99 1.465-7.81 2.025-8.487.562-.678 1.515-4.313 2.115-8.083.602-3.767 1.752-7.787 2.555-8.932.8-1.145 1.462-2.995 1.467-4.11.005-1.115 1.115-4.278 2.468-7.028 1.352-2.75 2.475-6.392 2.49-8.095.02-1.762.87-3.852 1.975-4.852 1.07-.968 2.252-3.175 2.63-4.905.38-1.733 1.53-4.22 2.557-5.533 1.028-1.312 1.87-3.205 1.87-4.205 0-1.002 1.125-3.48 2.5-5.505 1.375-2.027 2.5-4.247 2.5-4.937 0-.69.59-1.48 1.31-1.758.723-.275 1.865-2.347 2.54-4.605.678-2.257 1.588-4.105 2.023-4.105.975 0 7.127-9.37 7.127-10.855 0-.59.9-1.557 2-2.145 1.1-.587 2-1.565 2-2.17s1.013-2.107 2.25-3.34c1.238-1.232 3.375-3.65 4.75-5.37 3.403-4.255 11.27-13.21 12.5-14.222.55-.455 4.375-3.813 8.5-7.468 4.125-3.652 8.513-7.115 9.75-7.695 1.238-.58 2.25-1.382 2.25-1.78 0-.4 3.15-2.63 7-4.955s7-4.572 7-4.99c0-.417 1.315-1.022 2.923-1.345 1.61-.322 3.747-1.45 4.75-2.507 1.005-1.06 3.26-2.23 5.007-2.605 1.75-.375 3.695-1.298 4.32-2.053.625-.755 2.57-1.675 4.32-2.042 1.748-.37 4.583-1.525 6.298-2.565 1.715-1.04 3.982-1.893 5.04-1.893 1.055 0 3.582-.847 5.615-1.885 2.032-1.035 5.84-2.172 8.462-2.527 2.62-.355 6.79-1.49 9.265-2.523 2.475-1.03 9-2.397 14.5-3.037 5.5-.64 12.7-1.518 16-1.948 3.3-.43 37.5-.737 76-.68l70 .1.268 67.5ZM339 595.025c-14.797 1.18-27.422 3.133-29.742 4.595-1.233.78-4.383 1.698-7 2.043-2.618.342-6.88 1.685-9.475 2.98-2.593 1.297-5.42 2.357-6.28 2.357-.86 0-1.805.625-2.098 1.388-.292.762-1.82 1.645-3.392 1.96-1.573.315-3.683 1.392-4.685 2.392-1.005 1.003-3.065 2.445-4.578 3.21-1.512.763-2.75 1.763-2.75 2.22 0 .455-.595.83-1.322.83-.728 0-3.733 2.25-6.678 5s-5.695 5-6.11 5c-.415 0-1.04.9-1.39 2-.35 1.1-1.192 2-1.875 2-.682 0-2.565 1.81-4.182 4.02-1.618 2.213-4.63 5.925-6.693 8.25-2.062 2.328-4.29 5.693-4.952 7.48-.66 1.788-1.55 3.25-1.978 3.25-.43 0-1.692 1.688-2.81 3.75a592.821 592.821 0 0 1-2.872 5.25c-.463.825-1.785 3.525-2.938 6-5.392 11.593-7.202 16.015-7.232 17.688-.015.997-1.138 4.062-2.49 6.812-1.353 2.75-2.463 6.028-2.468 7.283-.005 1.255-.65 3.812-1.432 5.685-.78 1.87-1.95 6.917-2.598 11.217-.647 4.298-1.615 8.353-2.152 9.008-.538.655-1.375 5.83-1.865 11.5-.488 5.67-1.64 18.827-2.558 29.24l-1.672 18.932 2.385 1.955c2.942 2.413 36.275 1.82 51.49-.915 4.89-.877 11.93-1.952 15.64-2.385 3.712-.432 7.762-1.45 9-2.26 1.24-.81 4.947-1.807 8.242-2.217 3.295-.41 7.57-1.538 9.5-2.503 1.93-.965 5.253-2.025 7.385-2.355 2.13-.33 4.605-1.24 5.5-2.025.893-.782 2.75-1.73 4.125-2.102 3.198-.87 13.04-5.538 15-7.113.825-.665 2.6-1.545 3.943-1.955 2.357-.72 12.722-7.65 16.307-10.902.963-.873 2.1-1.588 2.53-1.588 2.333 0 24.22-23.4 24.22-25.892 0-.555.615-1.368 1.365-1.808.75-.44 2.163-2.375 3.14-4.3.975-1.925 2.055-3.725 2.4-4 1.47-1.175 7.095-13.215 7.095-15.185 0-1.187.678-2.905 1.503-3.817.827-.915 1.975-4.213 2.55-7.328.577-3.117 1.79-7.355 2.695-9.417 2.515-5.738 3.257-80.07.835-83.768L395.955 594l-24.227.173c-13.325.095-28.053.477-32.728.852Zm346 4.423c3.025.907 8.413 2.315 11.973 3.132 3.562.815 7.482 2.145 8.714 2.953 1.233.807 2.788 1.467 3.456 1.467 1.825 0 18.849 8.838 22.322 11.588a595.998 595.998 0 0 0 5.975 4.657c7.77 5.96 23.342 22.855 26.277 28.513.783 1.505 1.96 3.415 2.618 4.24.657.827 2.54 4.187 4.18 7.467 1.643 3.283 3.535 6.565 4.208 7.295.675.733 1.675 2.998 2.227 5.035.55 2.038 1.913 5.488 3.025 7.668 1.115 2.177 2.025 4.665 2.025 5.527 0 .86.62 2.453 1.38 3.538.758 1.085 1.935 4.672 2.613 7.972.68 3.3 1.797 7.125 2.485 8.5.687 1.375 1.55 4.843 1.915 7.705.365 2.863 1.29 6.975 2.052 9.138.763 2.165 1.672 8.147 2.022 13.295.35 5.15 1.318 14.537 2.151 20.862.832 6.325 1.37 15.55 1.197 20.5l-.315 9-15 .285c-15.327.29-20.6-.17-42.5-3.722-16.55-2.685-31.318-6.495-43-11.095-15.608-6.145-20.67-8.298-22-9.355-.825-.655-3.075-1.958-5-2.895-4.342-2.115-6.687-3.585-10.32-6.468-1.557-1.237-3.41-2.25-4.117-2.25-2.25 0-24.885-23.232-29.715-30.5-6.95-10.46-12.255-21.552-15.775-33-2.04-6.63-2.938-11.032-5.103-25-.512-3.3-.94-19.627-.95-36.282l-.02-30.283 2.25-.972c4.055-1.753 72.24-.468 78.75 1.485ZM396.5 633c0 40.428-1.907 52.933-11.09 72.688-1.325 2.855-2.41 5.46-2.41 5.79 0 .332-.83 1.822-1.842 3.312a472.898 472.898 0 0 0-4.75 7.19c-4.585 7.065-5.373 7.993-14.903 17.535-9.657 9.67-11.247 10.978-22.005 18.123-7.382 4.905-28.27 15.362-30.682 15.362-.78 0-1.85.433-2.378.96-.527.528-3.88 1.7-7.45 2.608-3.57.905-6.94 2-7.49 2.43-.55.43-4.527 1.505-8.84 2.39-4.312.882-8.29 1.882-8.84 2.222-1.09.675-23.935 3.94-38.32 5.48-4.95.528-13.725.838-19.5.685l-10.5-.275.153-18.5c.082-10.175.63-21.875 1.215-26 1.945-13.722 4.76-28.475 5.822-30.5.575-1.1 1.36-3.8 1.743-6 .81-4.642 5.13-18.627 7.107-23l4.408-9.752c1.68-3.715 3.052-7.1 3.052-7.523 0-.422 1.788-3.457 3.973-6.747 2.182-3.288 3.982-6.363 4-6.833.015-.47 1.15-2.27 2.522-4a769.18 769.18 0 0 0 4.75-6.057c9.243-11.943 17.138-19.005 32.255-28.848 7.753-5.047 21.943-11.077 30-12.75 2.75-.57 6.125-1.48 7.5-2.025 5.488-2.167 15.96-2.727 48.5-2.6l34 .135V633Z" fill="#46A3B9"/><path fill-rule="evenodd" clip-rule="evenodd" d="M761 127.012c-3.025.395-10.9 1.223-17.5 1.838s-13.575 1.58-15.5 2.145c-1.925.565-8.148 1.72-13.825 2.567-5.68.848-11.755 2.138-13.5 2.863-1.748.727-6.1 2.075-9.675 2.995-15.805 4.065-19.495 5.322-31.565 10.75-2.238 1.007-4.563 1.83-5.165 1.83-.605 0-3.953 1.575-7.435 3.5-3.485 1.925-7.01 3.762-7.835 4.082-3.295 1.275-5.7 2.58-10 5.43-2.475 1.64-5.85 3.678-7.5 4.528-3.15 1.625-5.275 3.12-14.865 10.467-3.225 2.47-6.993 5.24-8.37 6.153-1.38.912-3.715 2.937-5.193 4.5-1.475 1.562-3.782 3.808-5.127 4.993-10.305 9.067-28.953 33.909-33.94 45.214-.575 1.303-1.935 3.501-3.025 4.886-1.09 1.385-1.99 3.469-2.003 4.632-.012 1.162-.902 3.24-1.977 4.615-1.075 1.375-1.968 3.175-1.985 4-.015.825-.65 2.695-1.413 4.153-1.465 2.807-1.967 4.332-5.902 17.847-7.76 26.65-8.7 39.79-8.7 121.67 0 64.04.007 64.262 2.077 65.372 3.863 2.065 150.558.761 160.423-1.427 30.78-6.827 33.545-7.533 35.807-9.118 1.175-.822 2.965-1.497 3.978-1.497 2.672 0 30.73-13.21 33.952-15.985.695-.598 4.188-2.955 7.763-5.238 3.575-2.285 7.85-5.415 9.5-6.96 1.65-1.545 3.33-2.81 3.732-2.812.633-.005 7.768-6.228 12.685-11.063C810.482 402.567 831 375.99 831 372.385c0-.628.7-1.722 1.557-2.432.858-.713 2.215-2.681 3.018-4.373.802-1.695 2.112-4.205 2.91-5.58 2.575-4.438 9.292-19.382 10.565-23.5.68-2.2 1.845-4.888 2.592-5.973.748-1.085 1.358-2.667 1.358-3.515 0-.847.9-3.222 2-5.272 1.1-2.053 2-4.818 2-6.14 0-1.325 1.122-5.715 2.492-9.755 1.373-4.04 2.498-8.47 2.5-9.845.005-1.375.86-4.75 1.9-7.5s2.405-9.725 3.033-15.5c.625-5.775 1.585-12.3 2.13-14.5 3.022-12.188 5.557-123.128 2.97-129.935L871.05 126l-52.275.147c-28.753.08-54.75.47-57.775.865ZM797.817 209c.175 4.125-.62 16.5-1.767 27.5-2.593 24.85-2.56 24.612-4.558 32.5-.905 3.575-2.072 8.3-2.59 10.5-3.445 14.603-11.232 35.908-15.157 41.473-.96 1.36-1.745 2.947-1.745 3.524 0 1.275-8.32 14.813-11.68 19.003-1.323 1.65-3.398 4.242-4.613 5.76-2.337 2.922-15.687 16.535-17.9 18.255-20.675 16.052-43.002 24.17-72.807 26.468-20.57 1.587-57.06 1.047-59.375-.876-2.42-2.012-1.925-66.337.607-78.607 5.505-26.695 15.923-46.003 34.705-64.328C654.15 237.282 654.46 237 655.44 237c.48 0 2.362-1.138 4.185-2.528 1.825-1.392 6.257-4.09 9.855-5.997a913.75 913.75 0 0 0 8.28-4.435c13.277-7.363 43.817-16.413 66.24-19.63a3799.05 3799.05 0 0 0 16.5-2.4c2.75-.415 12.2-.697 21-.63l16 .12.317 7.5Z" fill="#FCAD08"/><path fill-rule="evenodd" clip-rule="evenodd" d="M324.5 525.08c-3.3.43-10.5 1.308-16 1.948-5.5.64-12.025 2.007-14.5 3.037-2.475 1.033-6.645 2.168-9.265 2.523-2.622.355-6.43 1.492-8.462 2.527-2.033 1.038-4.56 1.885-5.615 1.885-1.058 0-3.325.853-5.04 1.893-1.715 1.04-4.55 2.194-6.298 2.564-1.75.368-3.695 1.288-4.32 2.043-.625.755-2.57 1.677-4.32 2.052-1.747.375-4.002 1.546-5.007 2.606-1.003 1.057-3.14 2.185-4.75 2.507-1.608.323-2.923.928-2.923 1.345 0 .418-3.15 2.665-7 4.99s-7 4.555-7 4.955c0 .397-1.012 1.2-2.25 1.78-1.237.58-5.625 4.043-9.75 7.695-4.125 3.655-7.95 7.013-8.5 7.468-1.23 1.012-9.097 9.967-12.5 14.222-1.375 1.72-3.512 4.138-4.75 5.37-1.237 1.233-2.25 2.735-2.25 3.34s-.9 1.583-2 2.17c-1.1.588-2 1.555-2 2.145 0 1.485-6.152 10.855-7.127 10.855-.435 0-1.345 1.848-2.023 4.105-.675 2.258-1.817 4.33-2.54 4.605-.72.278-1.31 1.068-1.31 1.758s-1.125 2.91-2.5 4.937c-1.375 2.025-2.5 4.503-2.5 5.505 0 1-.842 2.893-1.87 4.205-1.027 1.313-2.177 3.8-2.557 5.532-.378 1.73-1.56 3.938-2.63 4.906-1.105 1-1.955 3.09-1.975 4.852-.015 1.703-1.138 5.345-2.49 8.095-1.353 2.75-2.463 5.912-2.468 7.027-.005 1.115-.667 2.966-1.467 4.111-.803 1.145-1.953 5.165-2.555 8.932-.6 3.77-1.553 7.405-2.115 8.083-.56.677-1.473 4.497-2.025 8.487-.555 3.993-1.608 9.083-2.34 11.31-.735 2.228-1.84 9.675-2.458 16.55-.617 6.875-1.792 15.65-2.612 19.5-1.238 5.81-1.443 16.158-1.215 60.848l.277 53.85 44.925-.145c24.71-.08 48.11-.543 52-1.028 3.893-.482 14.275-1.4 23.075-2.037 8.8-.638 17.8-1.735 20-2.443 2.2-.707 7.563-1.592 11.918-1.972 4.355-.378 9.53-1.37 11.5-2.205 1.97-.835 6.277-1.963 9.57-2.503 3.292-.542 6.667-1.58 7.5-2.305.832-.727 4.197-1.645 7.48-2.04 3.402-.41 7.01-1.537 8.385-2.62 1.33-1.045 3.145-1.915 4.032-1.932.888-.015 3.865-1.138 6.615-2.49 2.75-1.353 5.675-2.465 6.5-2.473 1.665-.015 9.388-3.762 13.073-6.342 1.305-.915 3.06-1.663 3.9-1.665.84 0 4.557-1.993 8.26-4.425 3.7-2.435 7.58-4.695 8.617-5.025 1.038-.33 2.69-1.488 3.673-2.573.982-1.087 2.322-1.975 2.977-1.975.655 0 1.995-.887 2.978-1.975.982-1.085 2.592-2.23 3.577-2.542.988-.313 3.74-2.345 6.12-4.513 2.378-2.17 6.473-5.862 9.098-8.207 2.625-2.345 5.325-4.848 6-5.56.675-.715 1.8-1.84 2.497-2.5 3.723-3.525 7.933-7.945 9.465-9.943.953-1.242 3.075-4.06 4.715-6.26l4.473-6c.822-1.1 2.637-3.415 4.035-5.145 1.397-1.73 2.542-3.842 2.542-4.697s1.125-2.768 2.5-4.253c1.375-1.482 2.5-3.475 2.5-4.427 0-.953.685-2.3 1.52-2.995.838-.695 2.008-3.193 2.603-5.555.595-2.36 1.685-4.523 2.425-4.808.737-.282 1.65-2.225 2.025-4.317.375-2.093 1.235-4.478 1.912-5.303.678-.825 1.76-3.75 2.405-6.5.648-2.75 1.79-6.35 2.545-8 .753-1.65 1.903-5.925 2.555-9.5.653-3.575 1.575-6.967 2.048-7.54.472-.572 1.132-5.297 1.465-10.5.332-5.202 1.265-13.06 2.07-17.46 1.21-6.615 1.417-19.682 1.195-75.5l-.268-67.5-70-.1c-38.5-.058-72.7.25-76 .68Zm73.083 71.405c2.422 3.697 1.68 78.03-.835 83.768-.905 2.062-2.118 6.3-2.695 9.417-.575 3.115-1.723 6.413-2.55 7.328-.825.912-1.503 2.63-1.503 3.817 0 1.97-5.625 14.01-7.095 15.185-.345.275-1.425 2.075-2.4 4-.977 1.925-2.39 3.86-3.14 4.3-.75.44-1.365 1.253-1.365 1.808C376 728.6 354.113 752 351.78 752c-.43 0-1.567.715-2.53 1.588-3.585 3.252-13.95 10.182-16.307 10.902-1.343.41-3.118 1.29-3.943 1.955-1.96 1.575-11.802 6.243-15 7.113-1.375.372-3.232 1.32-4.125 2.102-.895.785-3.37 1.695-5.5 2.025-2.132.33-5.455 1.39-7.385 2.355-1.93.965-6.205 2.093-9.5 2.503-3.295.41-7.002 1.407-8.242 2.217-1.238.81-5.288 1.828-9 2.26-3.71.433-10.75 1.508-15.64 2.385-15.215 2.735-48.548 3.328-51.49.915l-2.385-1.955 1.672-18.932c.918-10.413 2.07-23.57 2.558-29.24.49-5.67 1.327-10.845 1.865-11.5.537-.655 1.505-4.71 2.152-9.008.648-4.3 1.818-9.347 2.598-11.217.782-1.873 1.427-4.43 1.432-5.685.005-1.255 1.115-4.533 2.468-7.283 1.352-2.75 2.475-5.815 2.49-6.812.03-1.673 1.84-6.095 7.232-17.688 1.153-2.475 2.475-5.175 2.938-6 .462-.825 1.755-3.187 2.872-5.25 1.118-2.062 2.38-3.75 2.81-3.75.428 0 1.318-1.462 1.978-3.25.662-1.787 2.89-5.152 4.952-7.48 2.063-2.325 5.075-6.037 6.693-8.25 1.617-2.21 3.5-4.02 4.182-4.02.683 0 1.525-.9 1.875-2 .35-1.1.975-2 1.39-2 .415 0 3.165-2.25 6.11-5 2.945-2.75 5.95-5 6.678-5 .727 0 1.322-.375 1.322-.83 0-.457 1.238-1.457 2.75-2.22 1.513-.765 3.573-2.208 4.578-3.21 1.002-1 3.112-2.077 4.685-2.392 1.572-.315 3.1-1.198 3.392-1.961.293-.762 1.238-1.387 2.098-1.387.86 0 3.687-1.06 6.28-2.358 2.595-1.295 6.857-2.637 9.475-2.98 2.617-.345 5.767-1.262 7-2.042 4.835-3.05 29.637-5.215 62.47-5.447l24.227-.173 1.628 2.485Z" fill="#3A7C73"/></svg>