<svg width="1000" height="1000" fill="none" xmlns="http://www.w3.org/2000/svg"><g clip-path="url(#a)"><path d="M110.594 341.174 83 217h333.717l-115.55 124.174H110.594Zm371.66 2.587H344.283l112.101-125.036h25.87v125.036Zm36.217-125.899v123.312h187.123l117.275-123.312H518.471Zm374.246 127.623L916 218.725h-51.739l-114.688 126.76h143.144Z" fill="#373737"/><path d="M108.87 491.217V378.253H261.5l-126.761 133.66-25.869-20.696Zm-.863 291.464V527.435l332.855 255.246H108.007Zm376.834-405.29H309.79L166.645 527.435l315.609 250.934 2.587-400.978Zm34.492 112.102V376.529h152.631L545.203 510.188l-25.87-20.695Zm0 292.326V526.572l332.855 255.247H519.333Zm376.834-405.29H721.116L577.971 526.572 893.58 777.507l2.587-400.978Z" fill="#BE1E2D"/></g><defs><clipPath id="a"><path fill="#fff" transform="translate(83 217)" d="M0 0h833v565.681H0z"/></clipPath></defs></svg>