<svg width="1000" height="1000" fill="none" xmlns="http://www.w3.org/2000/svg"><g clip-path="url(#a)"><path fill="#fff" d="M63 442h573v19H63z"/><path d="m348.5 243 294.016 204.75H54.484L348.5 243Z" fill="#fff"/><path d="M313.802 932.931a27.584 27.584 0 0 0 26.226 6.622c11.718-3.326 19.671-13.898 26.73-23.826l20.886-29.359-17.602 3.228c-12.659 2.32-25.631 4.757-36.655 11.399-11.024 6.641-19.853 18.498-19.155 31.348" fill="#E6E6E6"/><path d="M297.44 972.481c3.087-10.526 6.192-21.195 11.642-30.788 4.841-8.519 11.455-15.994 20.18-20.642a45.075 45.075 0 0 1 14.84-4.827c1.354-.191 1.574 1.915.227 2.106a42.848 42.848 0 0 0-23.833 11.721c-7.208 7.052-11.936 16.145-15.432 25.503-2.116 5.658-3.824 11.454-5.523 17.25a1.094 1.094 0 0 1-1.209.887 1.065 1.065 0 0 1-.887-1.209l-.005-.001Z" fill="#F4F4F4"/><path d="M637.344 548.563a14.117 14.117 0 0 1 17.398 12.877l48.29 13.575-19.704 17.066-42.836-15.508a14.19 14.19 0 0 1-14.016-12.607 14.193 14.193 0 0 1 10.868-15.403ZM761.436 959.75l-14.076-.002-6.697-54.292 20.776.001-.003 54.293Z" fill="#FFB7B7"/><path d="m765.026 973.394-45.387-.001v-.574a17.665 17.665 0 0 1 17.666-17.666h.001l27.72.001v18.24Z" fill="#333"/><path d="m843.918 959.75-14.077-.002-6.696-54.292 20.774.001-.001 54.293Z" fill="#FFB7B7"/><path d="m847.507 973.394-45.387-.001v-.575a17.666 17.666 0 0 1 17.666-17.665h.001l27.721.001-.001 18.24Z" fill="#333"/><path d="m749.936 648.132-20.735 143.621 5.166 151.318 31.136 2.48 9.737-135.704 24.784-75.668 14.571 107.864.599 101.028 32.151 2.48 11.214-212.399-8.248-92.371-100.375 7.351Z" fill="#373737"/><path d="M809.907 455.843c18.116 0 32.802-14.686 32.802-32.802s-14.686-32.801-32.802-32.801-32.802 14.685-32.802 32.801 14.686 32.802 32.802 32.802Z" fill="#FFB7B7"/><path d="m789.689 473.684-36.212 182.433s60.968 17.498 87.676 1.344c26.709-16.154 14.741-66.022 14.741-66.022l-4.892-84.855-9.039-21.458-7.67-17.713-44.604 6.271Z" fill="#EEE"/><path d="m779.088 603.179 12.51-133.036-10.004 7.303-34.979 11.36-2.394 93.663-24.468 123.168s17.489 34.127 39.164-22.332l20.171-80.126Z" fill="#373737"/><path d="m763.45 502.815-16.834-14.009-37.834 82.187-42.219-9.247-1.995 24.934 61.17 24.208 41.685-58.032-3.973-50.041Zm65.488 71.245 4.714-108.274 17.35 13.436 30.985 8.636-4.543 86.202 6.538 133.756-32.485 10.289-9.119-84.401-13.44-59.644Z" fill="#373737"/><path d="M831.022 661.219a14.121 14.121 0 0 1 6.881-9.764 14.108 14.108 0 0 1 11.902-.993l31.836-38.765 7.71 24.901-31.414 32.994a14.194 14.194 0 0 1-25.113 1.548 14.202 14.202 0 0 1-1.802-9.921Z" fill="#FFB7B7"/><path d="m861.242 499.877 20.745-12.019 52.2 103.082-50.893 70.67-29.027-23.209 35.247-45.965-32.125-49.369 3.853-43.19Z" fill="#373737"/><path d="m840.757 396.818 1.59-3.2-8.001-3.976s-8.827-14.362-24.8-10.326c-15.972 4.036-23.159 6.452-23.159 6.452l-7.981 4.015 4.006 3.986-7.186 2.416 4.8 2.385-5.586 3.211 3.007 16.459s4.995-12.484 14.597-7.713c9.601 4.77 27.164-2.466 27.164-2.466l15.259 29.529s3.148-10.351 8.76-7.591c0 0 14.338-22.834-2.47-33.181Z" fill="#2F2E41"/><path d="M641.511 444.942h-.21l-120.293 51.365-164.585 70.28a5.324 5.324 0 0 1-4.066.021l-169.804-70.447-123.248-51.135-.188-.084h-.21a7.343 7.343 0 0 0-7.335 7.335v318.546a7.343 7.343 0 0 0 7.335 7.335h582.604a7.343 7.343 0 0 0 7.334-7.335V452.277a7.34 7.34 0 0 0-7.334-7.335Z" fill="#fff"/><path d="M642.034 447.037a1.044 1.044 0 0 1-.599-.187L351.644 245.03a5.257 5.257 0 0 0-6.003.011L57.937 446.848a1.05 1.05 0 0 1-1.633-1.04c.048-.273.202-.517.43-.676l287.704-201.807a7.353 7.353 0 0 1 8.404-.014L642.633 445.13a1.046 1.046 0 0 1-.599 1.907Z" fill="#3F3D56"/><path d="m74.377 454.192 274.548-203.475L625.558 468.67 363.071 624.275l-142.507-32.483-146.187-137.6Z" fill="#E6E6E6"/><path d="M232.593 720.386H96.959a6.35 6.35 0 0 1-5.868-3.901 6.34 6.34 0 0 1 1.366-6.913 6.342 6.342 0 0 1 4.484-1.86h135.652a6.338 6.338 0 1 1 .019 12.674h-.019Zm-86.971-27.244H96.959a6.34 6.34 0 0 1-6.355-6.328 6.333 6.333 0 0 1 3.91-5.862 6.336 6.336 0 0 1 2.427-.484h48.681a6.337 6.337 0 0 1 .018 12.674h-.018Z" fill="#3F88C5"/><path d="M352.786 567.524a7.923 7.923 0 0 1-3.006-.589l-169.323-70.257V276.762a7.342 7.342 0 0 1 7.335-7.335h324.833a7.342 7.342 0 0 1 7.335 7.335v220.069l-.318.136-163.759 69.934a7.972 7.972 0 0 1-3.097.623Z" fill="#032B43"/><path d="M639.939 444.942h-.21l-120.293 51.365-164.585 70.28a5.332 5.332 0 0 1-2.031.415 5.331 5.331 0 0 1-2.035-.394l-169.804-70.447-123.248-51.135-.188-.084h-.21A7.343 7.343 0 0 0 50 452.277v318.546a7.344 7.344 0 0 0 7.335 7.335h582.604a7.343 7.343 0 0 0 7.334-7.335V452.277a7.34 7.34 0 0 0-7.334-7.335Zm5.239 325.881a5.246 5.246 0 0 1-1.535 3.704 5.246 5.246 0 0 1-3.704 1.535H57.335a5.245 5.245 0 0 1-5.24-5.239V452.277a5.25 5.25 0 0 1 5.04-5.239l123.846 51.386 168.997 70.122a7.465 7.465 0 0 0 5.7-.031l163.758-69.934 120.712-51.543a5.255 5.255 0 0 1 5.03 5.239v318.546Z" fill="#3F3D56"/><path d="M326.425 351.632H211.162a8.385 8.385 0 0 1-8.368-8.383 8.383 8.383 0 0 1 8.368-8.382h115.263a8.383 8.383 0 0 1 0 16.765Zm-59.727-35.627h-55.536a8.382 8.382 0 1 1 0-16.765h55.536a8.386 8.386 0 0 1 8.383 8.383 8.382 8.382 0 0 1-8.383 8.382ZM436.416 435.46H260.378a8.384 8.384 0 0 1-8.383-8.382 8.383 8.383 0 0 1 8.383-8.383h176.038a8.383 8.383 0 1 1 0 16.765Zm0 38.77H260.378a8.392 8.392 0 0 1-3.213-.633 8.394 8.394 0 0 1-4.545-4.538 8.385 8.385 0 0 1 1.821-9.144 8.375 8.375 0 0 1 5.937-2.45h176.038a8.37 8.37 0 0 1 5.937 2.45 8.382 8.382 0 0 1-5.937 14.315Z" fill="#fff"/><path d="M948.721 974.719H612.413a1.28 1.28 0 1 1 0-2.558h336.308a1.28 1.28 0 1 1 0 2.558Zm-586.941 0H237.742a1.28 1.28 0 1 1 0-2.558H361.78a1.278 1.278 0 0 1 0 2.558Zm-78.431-39.536a27.588 27.588 0 0 0 23.265-13.799c5.963-10.622 4.147-23.726 2.151-35.743l-5.894-35.545-10.205 14.701c-7.339 10.572-14.818 21.447-17.951 33.93-3.133 12.483-1.032 27.116 8.524 35.735" fill="#E6E6E6"/><path d="M299.638 974.762c-5.234-9.64-10.556-19.394-13.457-30.04-2.575-9.453-3.156-19.417-.247-28.866a45.077 45.077 0 0 1 7.118-13.887c.825-1.09 2.467.248 1.646 1.334a42.848 42.848 0 0 0-8.633 25.116c-.138 10.084 2.921 19.865 7.042 28.965 2.489 5.504 5.366 10.818 8.248 16.126a1.092 1.092 0 0 1-.232 1.481 1.064 1.064 0 0 1-1.481-.232l-.004.003Z" fill="#F4F4F4"/></g><defs><clipPath id="a"><path fill="#fff" transform="translate(50 242)" d="M0 0h900v733.192H0z"/></clipPath></defs></svg>