<svg id="e4yex09ykkwl1" xmlns="http://www.w3.org/2000/svg" viewBox="0 0 1006 774" shape-rendering="geometricPrecision" text-rendering="geometricPrecision"><style>@keyframes e4yex09ykkwl20_to__to{0%{transform:translate(.058286px,-18.515986px)}16.666667%{transform:translate(.058286px,-18.515986px);animation-timing-function:cubic-bezier(.42,0,.58,1)}83.333333%{transform:translate(.058286px,14.484014px)}}@keyframes e4yex09ykkwl21_to__to{0%{transform:translate(0,0)}23.333333%{transform:translate(0,0);animation-timing-function:cubic-bezier(.42,0,.58,1)}90%{transform:translate(-24px,3px)}}@keyframes e4yex09ykkwl22_to__to{0%{transform:translate(1.169704px,0)}16.666667%{transform:translate(1.169704px,0);animation-timing-function:cubic-bezier(.42,0,.58,1)}83.333333%{transform:translate(24.169704px,14px)}}@keyframes e4yex09ykkwl26_to__to{0%,23.333333%{transform:translate(0,0)}90%{transform:translate(0,-16px)}}@keyframes e4yex09ykkwl32_to__to{0%{transform:translate(0,0)}6.666667%{transform:translate(0,0);animation-timing-function:cubic-bezier(.42,0,.58,1)}73.333333%{transform:translate(1px,42px)}}</style><defs><linearGradient id="e4yex09ykkwl5-fill" x1="762.029" y1="530.87" x2="699.806" y2="596.652" spreadMethod="pad" gradientUnits="userSpaceOnUse"><stop id="e4yex09ykkwl5-fill-0" offset="0%" stop-color="#005CA9"/><stop id="e4yex09ykkwl5-fill-1" offset="100%" stop-color="#3F88C5"/></linearGradient><linearGradient id="e4yex09ykkwl53-fill" x1="34130.7" y1="13581.4" x2="33067.3" y2="14931.2" spreadMethod="pad" gradientUnits="userSpaceOnUse"><stop id="e4yex09ykkwl53-fill-0" offset="0%" stop-color="#0D4472"/><stop id="e4yex09ykkwl53-fill-1" offset="100%" stop-color="#568CBA"/></linearGradient></defs><g id="e4yex09ykkwl2"><path id="e4yex09ykkwl3" d="m68.13 357.719 295.884-163.401c3.478-1.908 7.444-2.915 11.485-2.915 4.04 0 8.006 1.007 11.484 2.915l547.813 299.93c3.336 1.837 6.106 4.44 8.042 7.559 1.936 3.118 2.973 6.648 3.011 10.247.038 3.599-.925 7.146-2.795 10.299-1.87 3.154-4.585 5.806-7.881 7.703L658.921 688.269c-5.78 3.316-12.42 5.116-19.215 5.21-6.795.095-13.491-1.521-19.375-4.675L68.405 393.806c-3.4-1.827-6.225-4.446-8.2-7.598-1.973-3.152-3.026-6.727-3.054-10.372-.027-3.645.97-7.234 2.896-10.411 1.925-3.178 4.711-5.834 8.082-7.706Z" fill="#3F88C5" fill-opacity=".76" stroke="none" stroke-width="1"/><path id="e4yex09ykkwl4" d="M289.365 229.38a14.743 14.743 0 0 1-3.059 1.745.441.441 0 0 1-.066.406.497.497 0 0 1-.385.199h-1.63a13.084 13.084 0 0 1-5.241.071 12.665 12.665 0 0 1-4.789-1.978 30.872 30.872 0 0 1-6.72-3.77c-5.015-3.676-10.03-9.12-15.722-12.936 0 1.07.15 2.141.276 3.164l1.228 10.261 2.182 18.194c0 .326 0 1.28.175 1.559 9.479 11.354 35.482 7.353 35.482 7.353s15.396-36.901-1.731-24.268Z" fill="#3F88C5" stroke="none" stroke-width="1"/><path id="e4yex09ykkwl5" d="m683.695 535.221-67.301 45.602 98.72 57.283 63.565-39.786" fill="url(#e4yex09ykkwl5-fill)" stroke="none" stroke-width="1"/><path id="e4yex09ykkwl6" d="m291.697 364.862-30.591 21.499 35.782 22.405 35.807-27.477" fill="#0D60A5" stroke="none" stroke-width="1"/><path id="e4yex09ykkwl7" d="m183.022 329.916-54.287 32.038 74.799 40.321 62.712-38.692" fill="#0D60A5" stroke="none" stroke-width="1"/><path id="e4yex09ykkwl8" d="M313.437 343.224s-2.733 14.123 1.705 15.775c4.439 1.652 22.568 14.751 19.809 20.009-6.193 12.053-43.229-14.146-43.229-14.146l4.589-29.874" fill="#032B43" stroke="none" stroke-width="1"/><path id="e4yex09ykkwl9" d="M290.043 289.222c0 2.723-2.508 49.698-2.508 49.698s20.587 17.613 35.908 16.496l7.522-45.603" fill="#032B43" stroke="none" stroke-width="1"/><path id="e4yex09ykkwl10" d="M253.834 327.31s27.332 2.908 43.43-12.518c9.353-8.981 27.031-24.313 27.031-24.313l-65.195-4.444" fill="#032B43" stroke="none" stroke-width="1"/><path id="e4yex09ykkwl11" d="M710.149 538.711c-.752-.861-22.568-5.514-26.454-3.467-3.887 2.048 1.379 7.562 11.258 12.96 9.88 5.397 18.355 10.097 22.342 8.934 3.987-1.163 8.3-3.281 8.3-5.398v-21.382" fill="#032B43" stroke="none" stroke-width="1"/><path id="e4yex09ykkwl12" d="M758.845 577.38c0 1.233 2.632 6.166 0 7.376-2.633 1.209-20.462 5.072-24.098 9.725-3.635 4.653-2.357 8.213 0 9.47 2.358 1.256 43.932-5.631 43.932-5.631l-5.015-26.268" fill="#032B43" stroke="none" stroke-width="1"/><path id="e4yex09ykkwl13" d="M746.984 367.98s-2.382-9.167-16.6-13.285c-14.217-4.119-12.312 25.151-12.312 25.151" fill="#1D3F75" stroke="none" stroke-width="1"/><path id="e4yex09ykkwl14" d="M719.853 413.35c-1.48.605-37.412 25.268-34.353 63.122 1.856 22.848 19.784 61.192 19.784 61.192s28.937 17.078 47.643 12.75" fill="#3F88C5" stroke="none" stroke-width="1"/><path id="e4yex09ykkwl15" d="M712.13 424.262s-9.604 38.739-6.043 62.82c3.561 24.081 40.872 93.299 40.872 93.299a107.908 107.908 0 0 0 38.741-3.443s-22.567-81.759-24.648-90.74c-2.082-8.981 0-58.004 0-58.004" fill="#3F88C5" stroke="none" stroke-width="1"/><path id="e4yex09ykkwl16" d="M725.746 357.394s-45.336-18.032-59.954-25.919c0 0-3.862 14.332-3.085 16.286.778 1.955 38.516 38.297 58.099 41.392" fill="#032B43" stroke="none" stroke-width="1"/><path id="e4yex09ykkwl17" d="M190.018 304.183s-8.325-5.701-11.459-4.793c-3.135.907-4.338 33.085-2.157 35.063 2.182 1.977 9.454 9.306 13.616 7.771 4.163-1.536 6.57-7.771 6.57-7.771" fill="#032B43" stroke="none" stroke-width="1"/><path id="e4yex09ykkwl18" d="m266.547 284.453-49.598 2.815 9.353 32.364-31.971-22.406c-6.218 6.166-5.19 12.727-5.516 20.94a44.335 44.335 0 0 0 1.755 15.612c.175.558.376 1.094.602 1.629 2.984 2.536 6.444 4.769 8.826 6.514 5.742 4.212 11.309 8.609 16.951 12.937 7.974 6.095 15.571 11.935 25.677 14.727 10.105 2.792 27.783-4.211 29.839-15.146 3.586-19.591-2.959-50.466-5.918-69.986Z" fill="#032B43" stroke="none" stroke-width="1"/><path id="e4yex09ykkwl19" d="m656.639 377.868-9.428-4.002c-1.68-.721-3.135 1.606-1.455 2.327l9.429 4.002c1.78.698 3.134-1.605 1.454-2.327Z" fill="#606060" stroke="none" stroke-width="1"/><g transform="translate(.058 -18.516)" style="animation:e4yex09ykkwl20_to__to 3000ms linear infinite alternate forwards"><g id="e4yex09ykkwl20"><g style="animation:e4yex09ykkwl21_to__to 3000ms linear infinite alternate forwards"><path id="e4yex09ykkwl21" d="m679.106 310.069 1.154-81.154s2.507-12.75-8.526-18.613l-127.381-68.288v47.045s24.298 6.98 20.311 18.614c-3.987 11.633-20.311 2.559-20.311 2.559v27.641l134.753 72.196Z" fill="#3F88C5" fill-opacity=".76" stroke="none" stroke-width="1"/></g><g transform="translate(1.17)" style="animation:e4yex09ykkwl22_to__to 3000ms linear infinite alternate forwards"><path id="e4yex09ykkwl22" d="M304.235 124.587s-2.332 19.126 8.626 24.617c10.331 5.165 12.362-13.821 12.362-13.821l41.85 22.243V61.302l-75.852-40.135s-22.367-5.63-26.203 11.238l1.379 71.801 37.838 20.381Z" fill="#3F88C5" fill-opacity=".76" stroke="none" stroke-width="1"/></g><path id="e4yex09ykkwl23" d="m289.642 116.7 100.651 54.607v25.965s-18.104-10.446-19.734 4.282c-1.68 15.146 19.734 21.172 19.734 21.172l-.702 39.972-42.402-22.103s.827-17.357-12.538-22.848c-14.117-5.747-12.964 9.307-12.964 9.307l-32.823-17.287.778-93.067Z" fill="#032B43" stroke="none" stroke-width="1"/><path id="e4yex09ykkwl24" d="m389.59 262.675 48.445 26.012s-8.4 18.172 6.82 25.175c15.221 7.003 16.099-12.285 16.099-12.285l58.249 30.758v-34.899s-19.483-1.28-23.069-13.961c-3.586-12.68 15.998-11.796 23.069-7.561v-35.598l-42.176-23.569-86.735-45.51v26.035s-17.352-11.121-21.213 1.443c-3.862 12.564 6.068 21.591 21.213 24.011l-.702 39.972" fill="#3F88C5" fill-opacity=".76" stroke="none" stroke-width="1"/><path id="e4yex09ykkwl25" d="m519.203 240.316 59.202 31.34s-2.156-17.543 15.998-12.611c18.154 4.933 13.741 29.061 13.741 29.061l45.812 24.383-1.529 89.763-53.861-28.525s2.507-25.873-13.065-31.038c-15.571-5.165-15.045 16.17-15.045 16.17l-51.278-26.524v-34.9c-13.014-.209-27.582-8.701-23.069-19.311 4.514-10.609 23.069-2.327 23.069-2.327v-35.481" fill="#032B43" stroke="none" stroke-width="1"/><g style="animation:e4yex09ykkwl26_to__to 3000ms linear infinite alternate forwards"><path id="e4yex09ykkwl26" d="M519.203 348.087v39.414s-20.286-9.586-23.947.419c-3.661 10.004 23.947 22.242 23.947 22.242v31.573l104.036 55.84S647.085 510 651.85 485.686l.551-67.473-53.861-28.525s3.686-24.058-13.064-31.038-15.045 16.17-15.045 16.17l-51.228-26.733Z" fill="#3F88C5" fill-opacity=".76" stroke="none" stroke-width="1"/></g><path id="e4yex09ykkwl27" d="M389.59 262.675v32.434s-19.433-11.634-25.727-.721c-6.294 10.912 22.292 22.405 22.292 22.405v37.878l133.048 71.266v-93.602l-129.613-69.66Z" fill="#032B43" stroke="none" stroke-width="1"/><path id="e4yex09ykkwl28" d="m288.864 209.767 32.723 17.333s-1.103-16.542 12.964-9.306c14.067 7.236 12.538 22.848 12.538 22.848l46.213 24.174v94.299l-96.012-51.884c-4.603-3.407-7.648-8.302-8.526-13.704-1.053-8.795.1-83.76.1-83.76Z" fill="#3F88C5" fill-opacity=".76" stroke="none" stroke-width="1"/><path id="e4yex09ykkwl29" d="M443.978 244.876c-1.103 9.749-3.159 19.404-4.488 29.13 6.544 2.489 20.185 9.493 20.185 9.493l-2.507-33.853-13.19-4.77Z" fill="#032B43" stroke="none" stroke-width="1"/><path id="e4yex09ykkwl30" d="M453.347 253.14c6.672-.993 10.911-8.576 9.466-16.937-1.445-8.362-8.026-14.335-14.699-13.342-6.673.993-10.911 8.576-9.466 16.937 1.445 8.361 8.026 14.335 14.699 13.342Z" fill="#032B43" stroke="none" stroke-width="1"/><path id="e4yex09ykkwl31" d="M436.731 195.225s-1.228-15.659 17.879-12.75c19.107 2.908 12.236 30.875 12.236 30.875" fill="#3F88C5" fill-opacity=".76" stroke="none" stroke-width="1"/><g style="animation:e4yex09ykkwl32_to__to 3000ms linear infinite alternate forwards"><path id="e4yex09ykkwl32" d="M390.292 130.264V96.621s-11.158-.628-13.917-9.307c-2.758-8.678 3.686-16.124 13.917-12.75V33.941l128.911 69.52v47.045s21.363 1.745 20.762 16.287c-.602 14.542-20.762 4.909-20.762 4.909v27.618l-54.94-30.642s5.015-20.01-12.964-26.571c-13.013-4.653-14.568 12.122-14.568 12.122l-46.439-23.965Z" fill="#032B43" stroke="none" stroke-width="1"/></g></g></g><path id="e4yex09ykkwl33" d="M759.22 426.147a674.85 674.85 0 0 1-14.192-46.72c-.451-1.675-3.235-.954-2.783.721a656.568 656.568 0 0 0 14.192 46.72c.552 1.605 3.335.884 2.783-.721Z" fill="#606060" stroke="none" stroke-width="1"/><path id="e4yex09ykkwl34" d="M221.889 206.253c-1.906-3.094-7.823-7.142-11.284-3.583a3.584 3.584 0 0 0-.859 2.727c.108.978.623 1.878 1.436 2.508a17.78 17.78 0 0 0 6.971 2.653c.275.077.567.092.85.045.283-.047.55-.156.78-.317.23-.161.415-.369.541-.609.127-.24.19-.504.186-.771.308-.045.6-.159.85-.332.251-.172.452-.399.588-.659.135-.261.201-.548.191-.838a1.702 1.702 0 0 0-.25-.824Z" fill="#FBB5AD" stroke="none" stroke-width="1"/><path id="e4yex09ykkwl35" d="m264.215 264.723-50.852-11.634s1.58 20.475 3.56 34.132c9.103 3.793 20.186 3.723 29.84 2.327a67.52 67.52 0 0 0 19.759-5.212 45.253 45.253 0 0 0 5.817-3.35c-.777-4.84-7.497-11.261-8.124-16.263Z" fill="#3F88C5" stroke="none" stroke-width="1"/><path id="e4yex09ykkwl36" d="M275.825 274.657c0 3.7-1.053 12.82-1.279 16.52-21.414-5.305-67.702-19.684-70.912-49.302a25.136 25.136 0 0 1 1.504-11.913 57.887 57.887 0 0 1 10.682-10.423c5.467-4.654 12.237-9.47 19.759-10.703 9.253-1.536 16.55 4.048 23.195 9.865 2.507 5.375-4.714 10.633-3.761 16.101l12.938 36.063 7.899 3.769" fill="#3F88C5" stroke="none" stroke-width="1"/><path id="e4yex09ykkwl37" d="M235.705 196.249s5.617 24.22-2.984 27.292c-8.601 3.071-17.377-2.513-18.906-6.98a32.026 32.026 0 0 1-.602-11.634s6.519-8.608 22.492-8.678Z" fill="#FBB5AD" stroke="none" stroke-width="1"/><path id="e4yex09ykkwl38" d="M236.733 191.921c.276-5.886-8.575-9.609-12.663-4.653a9.44 9.44 0 0 0-3.523-1.767 9.893 9.893 0 0 0-3.999-.211c-3.761.605-5.015 3.071-4.764 6.352a7.347 7.347 0 0 0-3.122.649 6.814 6.814 0 0 0-2.47 1.887 5.442 5.442 0 0 0-1.123 3.292 5.44 5.44 0 0 0 1.123 3.292c-1.327.495-2.434 1.392-3.14 2.546a5.507 5.507 0 0 0-.747 3.806 6.83 6.83 0 0 0 1.329 3.42 5.238 5.238 0 0 0-.376 1.164 5.288 5.288 0 0 0 .501 3.222 5.822 5.822 0 0 0 2.333 2.432 7.387 7.387 0 0 0 3.987 1.116 5.186 5.186 0 0 0 2.083 2.029c.888.478 1.905.71 2.932.67a5.392 5.392 0 0 0 3.424-1.331c.926-.82 1.492-1.928 1.591-3.113a4.354 4.354 0 0 0-.276-1.954 10.606 10.606 0 0 0 .627-7.771 4.626 4.626 0 0 0 1.078-.489c1.029-.662 1.753-1.658 2.031-2.792a7.747 7.747 0 0 0 3.736.303 3.541 3.541 0 0 0 1.555-.752c.439-.371.768-.841.953-1.365a9.075 9.075 0 0 0 4.961-.19c1.596-.522 2.986-1.478 3.99-2.742a5.151 5.151 0 0 0 .421-3.881c-.374-1.298-1.246-2.425-2.452-3.169Z" fill="#D86212" stroke="none" stroke-width="1"/><path id="e4yex09ykkwl39" d="M221.989 212.861a5.556 5.556 0 0 0-.932-2.166 6.044 6.044 0 0 0-1.776-1.65 3.376 3.376 0 0 0-1.139-.589 3.541 3.541 0 0 0-2.545.215 3.25 3.25 0 0 0-1.005.77 3.3 3.3 0 0 0-.598 2.054c.036.726.315 1.423.798 1.994 1.154 1.396 3.034 1.42 4.664 2.025.978.372 1.555-.536 1.354-1.303.177-.008.35-.05.507-.124.158-.074.297-.179.408-.306a1.115 1.115 0 0 0 .264-.92Z" fill="#FBB5AD" stroke="none" stroke-width="1"/><path id="e4yex09ykkwl40" d="M234.05 206.789c0-.559-1.053-.326-.927.232l.802 3.793c.18.57.306 1.154.376 1.745 0 1.047-.552 1.233-1.404 1.721a.452.452 0 0 0-.223.269.415.415 0 0 0 .047.336.48.48 0 0 0 .29.207.505.505 0 0 0 .362-.044c1.104-.628 2.031-.93 1.956-2.326-.296-2-.723-3.982-1.279-5.933Z" fill="#56403D" stroke="none" stroke-width="1"/><path id="e4yex09ykkwl41" d="M236.256 205.765a.497.497 0 0 0-.337.129.429.429 0 0 0-.139.313c0 .117.05.23.139.312a.498.498 0 0 0 .674 0 .426.426 0 0 0 .14-.312.43.43 0 0 0-.14-.313.493.493 0 0 0-.337-.129Z" fill="#56403D" stroke="none" stroke-width="1"/><path id="e4yex09ykkwl42" d="M226.979 208.673a.496.496 0 0 0-.337.13.426.426 0 0 0-.14.312c0 .117.051.23.14.313a.495.495 0 0 0 .337.129.497.497 0 0 0 .337-.129.429.429 0 0 0 .139-.313c0-.117-.05-.23-.139-.312a.498.498 0 0 0-.337-.13Z" fill="#56403D" stroke="none" stroke-width="1"/><path id="e4yex09ykkwl43" d="M231.894 216.747a3.552 3.552 0 0 1-2.323.091 3.279 3.279 0 0 1-1.815-1.348.47.47 0 0 0-.289-.206.512.512 0 0 0-.363.043.453.453 0 0 0-.222.269.414.414 0 0 0 .047.336c.541.843 1.398 1.47 2.407 1.762a4.593 4.593 0 0 0 3.059-.18c.552-.186.075-.953-.501-.767Z" fill="#56403D" stroke="none" stroke-width="1"/><path id="e4yex09ykkwl44" d="M290.87 269.399a6.263 6.263 0 0 0-3.127.891 5.641 5.641 0 0 0-2.139 2.297c-.777 1.233-1.278 2.559-2.156 3.746-1.429 1.907-2.507 1.163-4.614.279-2.106-.884-4.187 2.094-1.931 3.071a14.052 14.052 0 0 0 5.743 1.838 4.935 4.935 0 0 0 1.758-.729 4.549 4.549 0 0 0 1.301-1.318c.081.29.246.554.477.764.231.209.519.357.834.426.314.069.643.058.951-.033.308-.091.583-.258.797-.483a19.143 19.143 0 0 0 4.814-6.491 2.96 2.96 0 0 0-.25-2.733 3.262 3.262 0 0 0-1.042-1.022 3.572 3.572 0 0 0-1.416-.503Z" fill="#FBB5AD" stroke="none" stroke-width="1"/><path id="e4yex09ykkwl45" d="M302.58 283.708a4833.193 4833.193 0 0 0-26.755-8.236c-.552 4.188-.828 8.376-1.179 12.564a63.631 63.631 0 0 0 13.114 11.214 2.28 2.28 0 0 0 1.062.255 2.281 2.281 0 0 0 1.06-.262c.323-.171.593-.417.784-.713a1.9 1.9 0 0 0 .304-.978 6.169 6.169 0 0 0-.702-2.327 29.966 29.966 0 0 0 5.792 2.769c.449.098.921.061 1.346-.108.424-.169.779-.46 1.012-.83a1.88 1.88 0 0 0 .282-1.225 1.941 1.941 0 0 0-.559-1.141l-1.78-1.349c1.49.238 3.007.301 4.513.186 2.257-.186 3.06-3.351.577-3.886a32.046 32.046 0 0 1-2.959-.768 10.743 10.743 0 0 0 5.015-1.931c1.354-.93.427-2.722-.927-3.234Z" fill="#FBB5AD" stroke="none" stroke-width="1"/><path id="e4yex09ykkwl46" d="M293.001 217.468a12.286 12.286 0 0 0-4.244 2.386 11.22 11.22 0 0 0-2.85 3.771 10.491 10.491 0 0 0-.972 4.516 10.53 10.53 0 0 0 1.07 4.497c.121.295.344.545.635.709.291.165.632.234.97.198.072-1.516.49-3 1.224-4.355a10.95 10.95 0 0 1 3.039-3.509c1.906-1.466 4.288-2.815 5.015-4.653 1.179-2.699-1.128-4.421-3.887-3.56Z" fill="#FBB5AD" stroke="none" stroke-width="1"/><path id="e4yex09ykkwl47" d="M670.832 373.494c-5.509-2.567-10.579-5.875-15.045-9.818.276-4.654.577-14.914-5.015-13.96-2.708.511-2.508 3.397-2.508 5.397a45.708 45.708 0 0 0 .301 5.282c-6.369 2.327-16.524-.954-20.06 5.002a1.7 1.7 0 0 0-.258.896c0 .315.089.624.258.896.177.242.388.461.627.651a7.162 7.162 0 0 0-2.507 1.908 1.845 1.845 0 0 0-.503.682 1.725 1.725 0 0 0 .14 1.605c.153.24.363.445.613.598.377.26.791.472 1.229.628a1.82 1.82 0 0 0 0 .489c0 2.024 1.705 2.908 4.338 3.141.435 1.053 1.267 1.923 2.342 2.45a5.361 5.361 0 0 0 3.5.412 67.07 67.07 0 0 0 10.833-1.861 110.4 110.4 0 0 1 11.208 5.025 2.09 2.09 0 0 0 1.267.177 1.992 1.992 0 0 0 1.112-.587c.29-.306.46-.694.483-1.101a1.721 1.721 0 0 0-.354-1.141c.414-.233.715-.604.841-1.038a1.635 1.635 0 0 0-.164-1.289c.272-.335.42-.743.42-1.163 0-.42-.148-.828-.42-1.164.32-.019.63-.112.901-.271.271-.158.496-.377.654-.636 1.203.651 2.507 1.28 3.686 1.861 2.332 1.024 4.287-2.047 2.081-3.071Z" fill="#FBB5AD" stroke="none" stroke-width="1"/><path id="e4yex09ykkwl48" d="M644.427 365.653a65.68 65.68 0 0 1-15.346 1.466.494.494 0 0 0-.336.13.424.424 0 0 0-.14.312c0 .117.05.23.14.313.089.083.21.129.336.129a66.844 66.844 0 0 0 15.597-1.489c.602-.023.326-.861-.251-.861Z" fill="#56403D" stroke="none" stroke-width="1"/><path id="e4yex09ykkwl49" d="M642.12 371.889a49.52 49.52 0 0 1-13.665 1.14c-.627 0-.627.861 0 .884 4.683.26 9.383-.132 13.941-1.163.602-.117.326-1.001-.276-.861Z" fill="#56403D" stroke="none" stroke-width="1"/><path id="e4yex09ykkwl50" d="M641.218 375.472a34.39 34.39 0 0 1-8.551 1.163.498.498 0 0 0-.337.13.427.427 0 0 0-.139.312c0 .118.05.23.139.313.09.083.211.129.337.129 2.979-.033 5.94-.44 8.802-1.21a.457.457 0 0 0 .225-.215.416.416 0 0 0 .025-.3.447.447 0 0 0-.188-.245.502.502 0 0 0-.313-.077Z" fill="#56403D" stroke="none" stroke-width="1"/><path id="e4yex09ykkwl51" d="M708.444 402.275c-.477 4.095 1.329 13.588 3.686 21.987 8.25 4.17 17.511 6.317 26.905 6.236a75.769 75.769 0 0 0 22.016-2.327c-1.128-20.289-9.554-66.357-20.06-65.426-13.265 1.187-26.354 15.752-26.354 15.752-24.623 3.35-56.845-18.614-56.845-18.614l-6.77 19.288c15.347 14.102 35.838 22.347 57.422 23.104Z" fill="#032B43" stroke="none" stroke-width="1"/><path id="e4yex09ykkwl52" d="M665.841 333.638c-5.015-5.63-8.299-9.865-15.295-13.331-2.082-1.024-5.241 1.233-3.561 3.303a53.065 53.065 0 0 0 6.996 6.399v.605a13.204 13.204 0 0 0 .552 10.191c2.1 2.895 4.91 5.287 8.199 6.98 1.078-4.7 2.232-9.4 3.109-14.147Z" fill="#FBB5AD" stroke="none" stroke-width="1"/><path id="e4yex09ykkwl53" d="m841.467 504.369-49.724 27.362s1.58 18.334 39.619 33.155l57.221-33.039" fill="url(#e4yex09ykkwl53-fill)" stroke="none" stroke-width="1"/><path id="e4yex09ykkwl54" d="M868.271 538.618c16.605 0 30.065-11.615 30.065-25.943 0-14.327-13.46-25.942-30.065-25.942-16.604 0-30.064 11.615-30.064 25.942 0 14.328 13.46 25.943 30.064 25.943Z" fill="#0D60A5" stroke="none" stroke-width="1"/><path id="e4yex09ykkwl55" d="M868.247 508.65c12.436 0 22.517-5.062 22.517-11.307s-10.081-11.308-22.517-11.308-22.518 5.063-22.518 11.308 10.082 11.307 22.518 11.307Z" fill="#0D60A5" stroke="none" stroke-width="1"/><path id="e4yex09ykkwl56" d="M867.093 406.23v88.646c.054.437.28.841.633 1.133.354.293.811.455 1.286.455.474 0 .931-.162 1.285-.455a1.75 1.75 0 0 0 .633-1.133V406.23a1.753 1.753 0 0 0-.633-1.133 2.017 2.017 0 0 0-1.285-.454c-.475 0-.932.161-1.286.454a1.757 1.757 0 0 0-.633 1.133Z" fill="#136F63" stroke="none" stroke-width="1"/><path id="e4yex09ykkwl57" d="M876.146 402.88a8.113 8.113 0 0 0 1.042-3.33 7.973 7.973 0 0 0-.466-3.441c-.877-2.326-2.156-4.793-3.184-7.189s-1.956-4.49-3.084-6.678c-1.129.536-9.203 11.797-9.529 16.543-.326 4.746 6.369 8.702 6.369 8.702l2.031 1.186c.376.21 3.862-2.466 4.263-2.792a10.228 10.228 0 0 0 2.558-3.001Z" fill="#136F63" stroke="none" stroke-width="1"/><path id="e4yex09ykkwl58" d="M870.103 428.753c8.525-.768 14.392-7.423 18.404-14.333-9.001.442-17.301 5.724-18.404 14.333Z" fill="#136F63" stroke="none" stroke-width="1"/><path id="e4yex09ykkwl59" d="M869.476 428.473c-2.507-7.561-10.832-11.633-18.932-13.727 2.332 8.097 9.529 14.542 18.932 13.727Z" fill="#136F63" stroke="none" stroke-width="1"/><path id="e4yex09ykkwl60" d="M868.999 450.53c10.832-.977 18.33-9.446 23.445-18.241-11.509.558-22.091 7.283-23.445 18.241Z" fill="#136F63" stroke="none" stroke-width="1"/><path id="e4yex09ykkwl61" d="M868.172 450.135c-3.285-9.633-13.766-14.658-24.097-17.474 2.959 10.331 12.261 18.544 24.097 17.474Z" fill="#136F63" stroke="none" stroke-width="1"/><path id="e4yex09ykkwl62" d="M869.827 476.054c12.362-1.117 20.888-10.773 26.705-20.777-13.089.628-25.15 8.282-26.705 20.777Z" fill="#136F63" stroke="none" stroke-width="1"/><path id="e4yex09ykkwl63" d="M868.873 475.635c-3.736-10.982-15.696-16.706-27.582-19.916 3.511 11.749 14.092 21.103 27.582 19.916Z" fill="#136F63" stroke="none" stroke-width="1"/><path id="e4yex09ykkwl64" d="M373.366 491.084c-4.287 3.676-13.064-9.307-18.38-7.608a96.474 96.474 0 0 1-25.526 4.653c-8.074.396-16.324-.372-23.194-4.653-3.127-2.142-5.642-4.96-7.326-8.21a20.77 20.77 0 0 1-2.339-10.435c.148-3.604 1.243-7.119 3.19-10.24 1.947-3.121 4.686-5.753 7.979-7.667l-9.378-4.491-32.071 20.708s2.658 43.555 89.368 37.459l100.676 53.327 25.777-18.078-108.776-44.765Z" fill="#0D60A5" stroke="none" stroke-width="1"/><path id="e4yex09ykkwl65" d="M334.224 492.945c-27.783 0-49.548-13.076-49.548-29.781 0-16.706 21.765-29.781 49.548-29.781s49.549 13.075 49.549 29.781c0 16.705-21.766 29.781-49.549 29.781Zm0-46.417c-20.837 0-35.38 8.772-35.38 16.613 0 7.84 14.593 16.519 35.38 16.519 20.788 0 35.381-8.772 35.381-16.612 0-7.841-14.518-16.52-35.381-16.52Z" fill="#032B43" stroke="none" stroke-width="1"/><path id="e4yex09ykkwl66" d="M368.377 475.588c1.63-1.372 69.708 36.482 69.708 36.482l44.057 23.756-9.579 6.98a7.875 7.875 0 0 1-4.148 1.484 8.003 8.003 0 0 1-4.327-.949l-106.017-56.98 10.306-10.773Z" fill="#032B43" stroke="none" stroke-width="1"/><path id="e4yex09ykkwl67" d="m481.014 519.493-17.854 11.005 9.403 12.191 19.183-11.261c.1-5.793-4.539-11.586-10.732-11.935Z" fill="#032B43" stroke="none" stroke-width="1"/><path id="e4yex09ykkwl68" d="M459.75 506.975a12.092 12.092 0 0 0-4.261-2.167 12.685 12.685 0 0 0-4.841-.392l-17.026 10.493 9.403 12.192 21.013-12.332c-.317-3.007-1.849-5.792-4.288-7.794Z" fill="#032B43" stroke="none" stroke-width="1"/><path id="e4yex09ykkwl69" d="M729.682 543.643c-11.775-31.509-17.33-64.73-16.399-98.069a.535.535 0 0 0-.176-.394.626.626 0 0 0-.426-.164.625.625 0 0 0-.425.164.536.536 0 0 0-.177.394c-.93 33.434 4.642 66.749 16.45 98.349.275.674 1.429.395 1.153-.28Z" fill="#FFF" stroke="none" stroke-width="1"/><path id="e4yex09ykkwl70" d="M719.151 377.845a67.304 67.304 0 0 1-26.856-2.583c-.727-.232-1.053.838-.326 1.071a68.267 68.267 0 0 0 27.182 2.629c.752-.07.777-1.187 0-1.117Z" fill="#204472" stroke="none" stroke-width="1"/><path id="e4yex09ykkwl71" d="M708.443 402.275h6.771l-3.085 21.987s-3.31-16.054-3.686-21.987Z" fill="#204472" stroke="none" stroke-width="1"/><path id="e4yex09ykkwl72" d="M731.589 353.043c-4.238 2.094-9.504-1.303-13.014-3.397-4.263-2.536-8.551-6.98-6.118-11.983.376-.744-.928-1.186-1.304-.442-2.508 5.212 1.429 10.214 5.942 13.053 4.012 2.536 10.03 6.352 15.045 3.909.828-.349.251-1.513-.551-1.14Z" fill="#009245" stroke="none" stroke-width="1"/><path id="e4yex09ykkwl73" d="M711.202 333.592s-10.331 26.152-.652 31.363c10.632 5.724 21.64-3.955 21.64-3.955s10.582-22.615 0-28.478c-10.582-5.864-19.333-2.164-20.988 1.07Z" fill="#FBB5AD" stroke="none" stroke-width="1"/><path id="e4yex09ykkwl74" d="M712.957 354.02a2.125 2.125 0 0 1-.727-.372 76.157 76.157 0 0 1 3.937-6.98.693.693 0 0 0 .077-.55.741.741 0 0 0-.365-.439.826.826 0 0 0-.593-.071.8.8 0 0 0-.273.126.747.747 0 0 0-.2.212 76.18 76.18 0 0 0-4.187 7.399.727.727 0 0 0 0 .884 3.944 3.944 0 0 0 1.805 1.14c1.078.489 1.479-.93.526-1.349Z" fill="#56403D" stroke="none" stroke-width="1"/><path id="e4yex09ykkwl75" d="M746.433 346.877c1.228-5.491-1.48-9.306-5.316-13.634a18.485 18.485 0 0 0-.978-1.024 8.723 8.723 0 0 0 3.235-1.884.757.757 0 0 0 .231-.311.694.694 0 0 0 .037-.377.714.714 0 0 0-.166-.344.81.81 0 0 0-.328-.225 5.38 5.38 0 0 0-3.912.372 10.24 10.24 0 0 0-1.153-3.652.764.764 0 0 0-.265-.28.863.863 0 0 0-.774-.067.8.8 0 0 0-.315.23c-.419.431-.73.942-.912 1.497a3.68 3.68 0 0 0-.141 1.714c-4.684-2.716-10.269-3.766-15.722-2.955a13.63 13.63 0 0 0-5.517 2.327 8.357 8.357 0 0 0-4.263-.698 7.452 7.452 0 0 0-4.202 1.691c-1.164.975-1.952 2.277-2.242 3.707-.083 1.548.494 3.065 1.606 4.223s2.669 1.864 4.337 1.966c1.683.258 3.409.114 5.015-.419-1.48 1.117-2.658 2.792 0 4.42 4.739 2.862 8.325.838 7.698 3.328-.502 2.047 1.981 4.118 4.062 4.862 0 .349 0 1.28.15 2.513a7.021 7.021 0 0 1 3.31.931.88.88 0 0 1 .774-.023.825.825 0 0 1 .305.238.744.744 0 0 1 .15.343c.335 3.397-.721 6.787-2.959 9.493 3.711-1.266 7.119-3.194 10.03-5.677 3.983-3.256 6.844-7.529 8.225-12.285Zm-9.228-19.009v.373a.695.695 0 0 0 0 .232v.745a2.496 2.496 0 0 1 0-1.35Z" fill="#000" stroke="none" stroke-width="1"/><path id="e4yex09ykkwl76" d="M717.496 356.347a4.545 4.545 0 0 1-2.979 1.259 4.605 4.605 0 0 1-3.089-1.003c-.527-.396-1.129.395-.602.791a5.691 5.691 0 0 0 3.737 1.183c1.362-.056 2.651-.587 3.61-1.486.476-.442-.201-1.186-.677-.744Z" fill="#56403D" stroke="none" stroke-width="1"/><path id="e4yex09ykkwl77" d="M717.672 352.182a.844.844 0 0 0-.604.02.756.756 0 0 0-.412.41.686.686 0 0 0 .022.561.772.772 0 0 0 .442.382.85.85 0 0 0 .604-.02.764.764 0 0 0 .412-.411.684.684 0 0 0-.022-.56.769.769 0 0 0-.442-.382Z" fill="#56403D" stroke="none" stroke-width="1"/><path id="e4yex09ykkwl78" d="M709.271 347.273a.845.845 0 0 0-.604.02.754.754 0 0 0-.411.41.684.684 0 0 0 .021.56.767.767 0 0 0 .443.382.845.845 0 0 0 .604-.02.754.754 0 0 0 .411-.41.684.684 0 0 0-.021-.56.77.77 0 0 0-.443-.382Z" fill="#56403D" stroke="none" stroke-width="1"/><path id="e4yex09ykkwl79" d="M725.319 355.556s6.695-9.121 8.425-4.77c1.731 4.351-9.052 8.865-9.052 8.865" fill="#FBB5AD" stroke="none" stroke-width="1"/><path id="e4yex09ykkwl80" d="M270.51 297.063c-.276-1.396-2.508-.814-2.307.582a271.655 271.655 0 0 1 4.563 31.619c0 1.42 2.508 1.42 2.508 0a276.842 276.842 0 0 0-4.764-32.201Z" fill="#3F88C5" fill-opacity=".6" stroke="none" stroke-width="1"/><path id="e4yex09ykkwl81" d="M236.056 350.623a222.081 222.081 0 0 1-8.4-29.456c-.301-1.396-2.508-.814-2.307.582a222.275 222.275 0 0 0 8.4 29.456c.501 1.349 2.808.768 2.307-.582Z" fill="#3F88C5" fill-opacity=".6" stroke="none" stroke-width="1"/><path id="e4yex09ykkwl82" d="M258.072 287.012c-17.099-4.744-32.524-13.635-44.683-25.756-.778-.791-2.057.395-1.254 1.163 12.379 12.317 28.071 21.351 45.461 26.175a.953.953 0 0 0 .586-.149.84.84 0 0 0 .351-.461.781.781 0 0 0-.043-.562.868.868 0 0 0-.418-.41Z" fill="#095349" stroke="none" stroke-width="1"/><path id="e4yex09ykkwl83" d="M276.878 273.68c-11.867-4.471-23.08-10.31-33.375-17.38-.928-.628-1.83.814-.903 1.442 10.432 7.125 21.788 13.004 33.802 17.497 1.053.442 1.529-1.14.476-1.559Z" fill="#095349" stroke="none" stroke-width="1"/><path id="e4yex09ykkwl84" d="m265.795 258.976-8.275-23.267c-.351-1-2.081-.582-1.73.442l8.275 23.267c.275 1.023 2.006.581 1.73-.442Z" fill="#095349" stroke="none" stroke-width="1"/><path id="e4yex09ykkwl85" d="M636.752 533.392c1.635-2.627-61.967-39.538-142.057-82.443-80.091-42.906-146.342-75.559-147.976-72.932-1.634 2.626 61.967 39.537 142.058 82.442 80.09 42.906 146.341 75.559 147.975 72.933Z" fill="#0D60A5" stroke="none" stroke-width="1"/></g></svg>