<svg width="1000" height="1000" fill="none" xmlns="http://www.w3.org/2000/svg"><path d="m63.341 680.799-3.12 15.65a156 156 0 0 1-.747 3.621 15.27 15.27 0 0 0-7.84.438 73.238 73.238 0 0 1 5.383 9.005c-1.965 6.057-4.85 11.655-9.678 15.703a24.265 24.265 0 0 1-23.448 4.124l.14-.62c-5.192-10.073-2.372-22.775 4.08-32.079a62.353 62.353 0 0 1 11.59-12.252c4.358-3.632 9.07-6.891 13.738-10.106a6.399 6.399 0 0 1 9.902 6.516Z" fill="#fff"/><path d="M25.001 766.994c-1.313-9.564-2.663-19.249-1.742-28.915.818-8.585 3.437-16.969 8.77-23.844a39.637 39.637 0 0 1 10.176-9.222c1.018-.641 1.954.971.941 1.609a37.713 37.713 0 0 0-14.915 17.997c-3.248 8.259-3.77 17.263-3.205 26.037.339 5.306 1.055 10.575 1.779 15.842a.962.962 0 0 1-.652 1.147.94.94 0 0 1-1.147-.652l-.005.001Z" fill="#F4F4F4"/><path d="M36.269 287.293c45.76-.796 91.525-.91 137.294-.343a4592.232 4592.232 0 0 1 214.2 7.676c2.06.122 2.053-3.083 0-3.204a4589.139 4589.139 0 0 0-351.494-7.333c-2.06.035-2.066 3.24 0 3.204ZM355.172 267.199l20.01-1.489c2.044-.153 2.06-3.359 0-3.205l-20.01 1.489c-2.044.152-2.061 3.358 0 3.205ZM355.172 286.427l20.01-1.489c2.044-.152 2.06-3.358 0-3.205l-20.01 1.49c-2.044.152-2.061 3.358 0 3.204ZM353.667 277.646l28.449 2.585c2.053.186 2.04-3.02 0-3.205l-28.449-2.585c-2.053-.186-2.041 3.02 0 3.205ZM48.11 262.889a7.093 7.093 0 0 0-6.55 4.279 6.38 6.38 0 0 0 1.468 7.58 7.596 7.596 0 0 0 3.405 1.657 7.592 7.592 0 0 0 3.782-.197 6.408 6.408 0 0 0 4.298-6.027 7.164 7.164 0 0 0-4.463-6.911 1.609 1.609 0 0 0-1.971 1.119 1.65 1.65 0 0 0 1.119 1.972c.279.107-.255-.138.005.004.107.059.217.111.322.174.09.053.175.111.262.168.3.195-.146-.144.045.032.166.152.33.301.481.469.057.063.28.24.107.116-.133-.094-.051-.072 0 .004.039.057.08.113.118.171.125.189.239.386.34.588.024.047.045.095.07.142.044.087.11.11.004 0-.101-.104-.037-.097 0 .004.023.066.049.131.072.197.075.217.138.437.189.66.023.103.042.207.062.31.072.368-.01-.228.007.045.015.228.031.454.027.683-.001.105-.006.21-.013.314-.004.053-.01.105-.013.157-.017.251-.017-.092.018-.116a2.975 2.975 0 0 0-.145.659c-.029.1-.063.198-.095.296-.111.344.105-.187-.014.048a5.93 5.93 0 0 1-.327.587c-.052.079-.25.258-.088.134.174-.136-.092.097-.149.157a4.556 4.556 0 0 1-.386.361c-.01-.005.268-.185.118-.09-.19.122-.37.251-.571.357-.024.012-.28.131-.28.136-.01-.044.33-.121.097-.045-.05.016-.098.035-.147.052-.213.071-.43.129-.65.173-.051.01-.104.015-.154.028-.166.043.158-.025.168-.019a1.355 1.355 0 0 0-.365.032 5.979 5.979 0 0 1-.682 0c-.053-.003-.105-.009-.158-.012-.122-.007-.212-.095-.05.001.126.074.116.02.005-.001l-.156-.027a6.348 6.348 0 0 1-.667-.163c-.118-.036-.233-.078-.35-.119a.866.866 0 0 1-.147-.056c0-.014.3.143.141.058-.2-.108-.407-.199-.602-.317-.105-.063-.205-.131-.306-.198a1.06 1.06 0 0 1-.127-.091c.003-.014.248.213.12.091-.163-.155-.337-.294-.491-.459l-.104-.115-.034-.039c-.087-.106-.088-.106-.005.001.085.025.081.119 0-.002-.028-.044-.059-.085-.087-.129a3.318 3.318 0 0 1-.331-.591c.008-.006.139.386.038.09l-.059-.167a4.417 4.417 0 0 1-.097-.337c-.027-.112-.042-.228-.07-.34-.047-.189.028.149.02.141-.027-.027-.016-.19-.018-.23-.013-.251.016-.495.02-.745.004-.194-.016.151-.02.141a.537.537 0 0 1 .03-.17c.03-.132.057-.264.092-.394.041-.149.088-.297.14-.442.02-.055.045-.109.063-.164.068-.201-.133.243-.023.062.153-.25.266-.52.428-.766.038-.059.272-.384.148-.22-.123.164.127-.146.174-.199.196-.219.428-.399.631-.608.12-.124-.084.061-.096.069.063-.045.125-.091.188-.135.112-.077.226-.149.343-.218.13-.077.28-.134.407-.216.15-.096-.115.043-.12.045.069-.034.14-.061.215-.081.124-.044.663-.277.777-.204-.006-.004-.41.032-.083.011.077-.005.154-.012.232-.016a5.24 5.24 0 0 1 .469.006 1.613 1.613 0 0 0 1.602-1.602 1.637 1.637 0 0 0-1.602-1.603ZM70.543 262.889a7.092 7.092 0 0 0-6.551 4.279 6.381 6.381 0 0 0 1.468 7.58 7.592 7.592 0 0 0 7.188 1.46 6.408 6.408 0 0 0 4.298-6.027 7.164 7.164 0 0 0-4.464-6.911 1.609 1.609 0 0 0-1.97 1.119 1.649 1.649 0 0 0 1.118 1.972c.28.107-.255-.138.006.004.107.059.216.111.322.174.09.053.175.111.262.168.299.195-.146-.144.045.032.166.152.33.301.48.469.058.063.281.24.108.116-.133-.094-.052-.072 0 .004.038.057.08.113.118.171.125.189.238.386.34.588.023.047.045.095.069.142.045.087.11.11.004 0-.1-.104-.036-.097 0 .004.023.066.05.131.072.197.075.217.138.437.19.66.023.103.042.207.062.31.071.368-.01-.228.007.045.014.228.031.454.027.683-.002.105-.006.21-.014.314-.003.053-.01.105-.013.157-.016.251-.017-.092.018-.116a2.975 2.975 0 0 0-.144.659c-.03.1-.063.198-.095.296-.112.344.105-.187-.014.048a5.93 5.93 0 0 1-.328.587c-.052.079-.249.258-.088.134.175-.136-.091.097-.148.157a4.513 4.513 0 0 1-.386.361c-.01-.005.267-.185.118-.09-.19.122-.371.251-.572.357-.023.012-.28.131-.278.136-.012-.044.33-.121.095-.045-.049.016-.097.035-.146.052-.213.071-.43.129-.65.173-.051.01-.105.015-.154.028-.166.043.158-.025.168-.019a1.355 1.355 0 0 0-.365.032 5.979 5.979 0 0 1-.683 0l-.157-.012c-.122-.007-.212-.095-.05.001.126.074.115.02.004-.001l-.156-.027a6.344 6.344 0 0 1-.666-.163c-.118-.036-.234-.078-.35-.119a.866.866 0 0 1-.147-.056c-.001-.014.3.143.14.058-.2-.108-.406-.199-.602-.317-.104-.063-.204-.131-.306-.198a1.06 1.06 0 0 1-.126-.091c.003-.014.248.213.12.091-.163-.155-.337-.294-.492-.459l-.103-.115-.034-.039c-.087-.106-.089-.106-.005.001.085.025.081.119 0-.002-.028-.044-.059-.085-.087-.129a3.325 3.325 0 0 1-.332-.591c.008-.006.14.386.039.09l-.059-.167a4.328 4.328 0 0 1-.097-.337c-.028-.112-.042-.228-.07-.34-.047-.189.028.149.02.141-.028-.027-.016-.19-.018-.23-.013-.251.016-.495.02-.745.004-.194-.016.151-.02.141a.54.54 0 0 1 .03-.17c.03-.132.056-.264.092-.394.04-.149.087-.297.14-.442.02-.055.044-.109.063-.164.067-.201-.134.243-.023.062.152-.25.266-.52.428-.766.038-.059.271-.384.148-.22-.124.164.126-.146.174-.199.196-.219.427-.399.63-.608.121-.124-.083.061-.095.069.063-.045.124-.091.188-.135a5.65 5.65 0 0 1 .342-.218c.132-.077.28-.134.408-.216.15-.096-.115.043-.12.045.068-.034.14-.061.214-.081.124-.044.664-.277.777-.204-.005-.004-.41.032-.082.011.077-.005.154-.012.231-.016a5.24 5.24 0 0 1 .47.006 1.613 1.613 0 0 0 1.602-1.602 1.637 1.637 0 0 0-1.603-1.603ZM92.976 262.889a7.092 7.092 0 0 0-6.552 4.279 6.381 6.381 0 0 0 1.469 7.58 7.592 7.592 0 0 0 7.188 1.46 6.408 6.408 0 0 0 4.297-6.027 7.165 7.165 0 0 0-4.463-6.911 1.609 1.609 0 0 0-1.971 1.119 1.649 1.649 0 0 0 1.119 1.972c.28.107-.255-.138.005.004.108.059.217.111.322.174.09.053.175.111.263.168.299.195-.147-.144.045.032.166.152.33.301.48.469.057.063.28.24.107.116-.133-.094-.051-.072 0 .004.039.057.08.113.118.171.125.189.239.386.34.588l.07.142c.044.087.11.11.004 0-.1-.104-.037-.097 0 .004.023.066.049.131.072.197.075.217.138.437.189.66.023.103.042.207.062.31.072.368-.01-.228.007.045.015.228.032.454.028.683-.002.105-.007.21-.014.314-.004.053-.01.105-.013.157-.017.251-.017-.092.018-.116a2.975 2.975 0 0 0-.145.659c-.028.1-.063.198-.094.296-.112.344.104-.187-.015.048a5.911 5.911 0 0 1-.327.587c-.052.079-.25.258-.088.134.175-.136-.092.097-.148.157a4.554 4.554 0 0 1-.387.361c-.01-.005.268-.185.118-.09-.19.122-.37.251-.571.357-.023.012-.28.131-.279.136-.01-.044.33-.121.096-.045-.05.016-.097.035-.146.052-.213.071-.43.129-.651.173-.05.01-.104.015-.154.028-.165.043.159-.025.168-.019a1.354 1.354 0 0 0-.364.032 5.98 5.98 0 0 1-.683 0c-.053-.003-.105-.009-.158-.012-.122-.007-.211-.095-.049.001.125.074.115.02.004-.001l-.156-.027a6.344 6.344 0 0 1-.667-.163c-.117-.036-.233-.078-.35-.119a.87.87 0 0 1-.147-.056c0-.014.3.143.141.058-.2-.108-.407-.199-.602-.317-.105-.063-.205-.131-.306-.198a1.06 1.06 0 0 1-.127-.091c.004-.014.249.213.12.091-.163-.155-.337-.294-.49-.459l-.105-.115-.034-.039c-.086-.106-.088-.106-.004.001.084.025.08.119 0-.002-.029-.044-.06-.085-.088-.129a3.325 3.325 0 0 1-.331-.591c.008-.006.139.386.038.09-.018-.056-.04-.111-.058-.167a4.417 4.417 0 0 1-.097-.337c-.028-.112-.042-.228-.07-.34-.047-.189.027.149.019.141-.027-.027-.016-.19-.018-.23-.012-.251.016-.495.02-.745.004-.194-.015.151-.02.141a.537.537 0 0 1 .031-.17c.03-.132.056-.264.092-.394.04-.149.087-.297.14-.442.02-.055.044-.109.062-.164.068-.201-.133.243-.022.062.152-.25.266-.52.427-.766.039-.059.272-.384.148-.22-.123.164.127-.146.174-.199.197-.219.428-.399.631-.608.12-.124-.084.061-.096.069.063-.045.125-.091.189-.135a5.65 5.65 0 0 1 .342-.218c.131-.077.28-.134.407-.216.15-.096-.115.043-.12.045.07-.034.141-.061.215-.081.124-.044.664-.277.777-.204-.005-.004-.41.032-.083.011.078-.005.154-.012.232-.016.156-.006.313-.002.469.006a1.613 1.613 0 0 0 1.602-1.602 1.637 1.637 0 0 0-1.602-1.603Z" fill="#888"/><path d="M417.047 617.766H24.041a18.763 18.763 0 0 1-18.744-18.744V248.745A18.767 18.767 0 0 1 24.04 230h393.006a18.768 18.768 0 0 1 18.745 18.745v350.277a18.766 18.766 0 0 1-18.745 18.744ZM24.041 232.136a16.63 16.63 0 0 0-16.608 16.609v350.277a16.629 16.629 0 0 0 16.608 16.608h393.006a16.63 16.63 0 0 0 16.609-16.608V248.745a16.63 16.63 0 0 0-16.609-16.609H24.041Z" fill="#888"/><path d="m23.39 468.328 138.207-.421 137.501-.418 77.565-.236a1.603 1.603 0 0 0 0-3.205l-138.207.421-137.501.418-77.564.236a1.601 1.601 0 0 0-1.548 1.602 1.603 1.603 0 0 0 1.548 1.603Z" fill="#888"/><path d="m93.113 465.729.855-50.459c.035-2.063-3.17-2.064-3.205 0l-.855 50.459c-.034 2.063 3.17 2.064 3.205 0Z" fill="#E6E6E6"/><path d="m159.168 466.276 2.082-63.426.595-18.121c.068-2.063-3.137-2.061-3.204 0l-2.083 63.425-.595 18.122c-.068 2.062 3.137 2.06 3.205 0ZM225.043 354.663c-1.256 22.465-3.581 88.727-4.837 111.192-.115 2.06 3.09 2.054 3.205 0 1.256-22.465 3.58-88.727 4.837-111.192.115-2.06-3.09-2.054-3.205 0ZM290.602 443.313l-.393 21.592c-.037 2.063 3.167 2.063 3.205 0 .464-25.502 1.654-24.67 1.785-31.868.037-2.063-3.167-2.063-3.205 0 0 0-.928-15.226-1.392 10.276ZM354.814 386.59l.363 60.577.104 17.346a1.6 1.6 0 0 0 1.602 1.548 1.602 1.602 0 0 0 1.602-1.548l-.362-60.577-.104-17.346a1.6 1.6 0 0 0-1.602-1.548 1.602 1.602 0 0 0-1.603 1.548Z" fill="#888"/><path d="M23.648 466.525c-2.653-7.29 3.327-14.301 9.471-17.451 7.361-3.774 15.83-4.63 23.269-8.268 11.09-5.425 19.168-15.16 26.356-24.905 7.399-10.03 14.168-20.794 23.569-29.128a47.201 47.201 0 0 1 17.165-9.933c8.014-2.501 16.513-2.673 24.794-1.665 17.112 2.083 32.974 9.15 49.485 13.642 15.566 4.235 32.717 6.617 47.996.031 7.763-3.346 14.11-8.958 20.929-13.814a69.744 69.744 0 0 1 21.8-10.516c15.338-4.265 32.088-3.126 46.367 4.084a62.218 62.218 0 0 1 29.344 30.97c6.769 16.171 5.888 34.243 3.677 51.264-.572 4.4-1.252 8.785-1.94 13.168-.317 2.017 2.771 2.886 3.09.852 2.754-17.552 5.499-35.66 2.073-53.322a64.577 64.577 0 0 0-23.855-38.858 66.277 66.277 0 0 0-43.702-13.793 71.66 71.66 0 0 0-24.008 5.34c-7.925 3.278-14.637 8.137-21.454 13.25-7.009 5.256-14.234 9.605-22.936 11.319-8.44 1.663-17.221 1.04-25.624-.531-17.34-3.239-33.503-10.666-50.695-14.471-15.929-3.526-33.118-3.878-47.382 5.121-10.972 6.922-18.725 17.668-26.166 28.045-7.376 10.286-14.844 21.285-25.629 28.311-6.579 4.286-13.974 5.868-21.334 8.278-7.378 2.417-14.462 6.494-17.47 14.053a13.667 13.667 0 0 0-.28 9.779c.7 1.923 3.798 1.092 3.09-.852Z" fill="#888"/><path d="m92.05 408.292-.004.002.008-.002h-.004Z" fill="#E6E6E6"/><path d="M97.607 405.344a6.372 6.372 0 0 0-7.716-2.855 5.6 5.6 0 0 0-3.193 2.973c-.062.145-.098.298-.148.447-.07.112-.153.213-.215.331a6.363 6.363 0 0 0 9.925 7.603 6.85 6.85 0 0 0 1.347-8.499Zm-4.014 2.722c.013.081.008.155 0 0Zm-.408-.928c-.016-.018-.014-.016 0 0Zm-1.798.723c-.024-.037-.027-.043 0 0Zm.426.362c.102.034.061.027 0 0Zm.19.09.043-.019a.052.052 0 0 1-.03-.006l.034.004.006-.003-.019-.004c.017-.001.018.001.02.004.19-.087.061-.045-.05-.011l-.007-.002a.71.71 0 0 0-.22-.07c-.007-.004-.015-.007-.02-.011-.062-.044-.372-.286-.085-.032-.062-.056-.124-.11-.183-.17a.806.806 0 0 1-.094-.115 6.515 6.515 0 0 1-.11-.196l-.005-.036-.012-.059.007-.057a.694.694 0 0 0 .041-.179l.013-.016c.046-.064.086-.139.13-.206-.232.353.09-.039.115-.088.004-.009-.003-.004-.002-.01.01-.005.007-.002.018-.008.072-.043.14-.09.214-.13.087-.049.43-.146.074-.044.08-.023.158-.053.24-.074.015-.004.134-.021.199-.032l.117-.003c.027 0 .053.003.08.005-.059.007.203.064.28.076l.032.025c.066.048.146.091.215.136-.31-.2.004.016.063.075.036.035.068.073.102.11.03.036.058.074.082.114.051.093.105.187.159.279l.014.023a2.545 2.545 0 0 0 .122.445.376.376 0 0 1 .007.036c.005.081.011.162.012.244l-.001.017a1.75 1.75 0 0 0-1.6-.012Z" fill="#888"/><path d="M92.06 408.29c.005.001 0 .001 0 .002v-.002ZM92.059 408.29ZM92.06 408.292l-.005.001c.005 0 .003-.001.004-.001ZM92.057 408.289l.002.001-.002-.001ZM160.416 378.382l-.004.002.008-.002h-.004Z" fill="#E6E6E6"/><path d="M165.973 375.434a6.364 6.364 0 0 0-7.716-2.855 5.607 5.607 0 0 0-3.193 2.973c-.062.145-.097.298-.147.447-.07.112-.153.213-.216.331a6.363 6.363 0 0 0 5.926 9.214 6.361 6.361 0 0 0 3.999-1.611 6.854 6.854 0 0 0 1.347-8.499Zm-4.014 2.722c.013.081.009.155 0 0Zm-.408-.928c-.015-.018-.014-.016 0 0Zm-1.798.723c-.024-.037-.026-.043 0 0Zm.426.361c.102.035.062.028 0 0Zm.191.091.042-.019a.05.05 0 0 1-.03-.006h.001l.033.004.006-.003-.019-.004c.017-.001.019.001.02.004.19-.087.061-.045-.049-.011l-.008-.002a.71.71 0 0 0-.219-.07l-.022-.011c-.061-.044-.371-.286-.083-.032-.063-.056-.125-.11-.184-.17a.873.873 0 0 1-.094-.115 7.54 7.54 0 0 1-.11-.196l-.005-.036-.012-.059.008-.057a.692.692 0 0 0 .04-.179l.013-.016c.046-.064.086-.139.13-.206-.232.353.091-.039.115-.089.004-.008-.003-.003-.001-.009l.017-.008c.072-.043.141-.09.214-.131.087-.048.43-.145.074-.044.081-.023.158-.052.24-.073.015-.004.134-.021.199-.032a6.09 6.09 0 0 1 .117-.003c.027 0 .054.003.08.004-.059.008.203.065.28.077l.033.025c.065.048.145.091.214.136-.31-.201.004.016.064.075.035.035.068.073.101.11.03.036.058.074.082.113.051.094.105.188.159.279l.014.024v.009c.028.149.069.294.123.436l.006.036c.005.081.012.162.012.244l-.001.017a1.753 1.753 0 0 0-1.6-.012Z" fill="#888"/><path d="m160.425 378.381-.004.001c.006.001.004 0 .004-.001ZM160.423 378.379l.002.001-.002-.001ZM160.427 378.38c.004.001 0 .001-.001.001l.001-.001ZM160.426 378.379l.001.001-.001-.001ZM226.653 393.334l.002.001-.002-.001Z" fill="#E6E6E6"/><path d="M232.203 345.524a6.37 6.37 0 0 0-7.716-2.856 5.609 5.609 0 0 0-3.193 2.973c-.061.145-.097.298-.147.447-.069.112-.153.214-.215.331a6.365 6.365 0 0 0 9.925 7.604 6.857 6.857 0 0 0 1.346-8.499Zm-4.013 2.721c.013.081.008.155 0 0Zm-.408-.928c-.016-.018-.014-.016 0 0Zm-1.798.723c-.025-.037-.027-.043 0 0Zm.426.362c.101.034.061.027 0 0Zm.19.091.042-.02a.052.052 0 0 1-.03-.006h.002l.033.004.006-.003-.019-.004c.016-.001.018.002.019.004.191-.087.062-.045-.049-.011l-.007-.002a.734.734 0 0 0-.22-.07l-.021-.011c-.062-.044-.372-.286-.084-.032a3.66 3.66 0 0 1-.183-.169.867.867 0 0 1-.094-.116 5.423 5.423 0 0 1-.11-.196l-.005-.035c-.005-.03-.009-.042-.013-.06l.008-.057a.694.694 0 0 0 .041-.179l.012-.016c.046-.064.086-.139.13-.206-.232.353.091-.039.115-.088.004-.009-.003-.004-.001-.01.009-.005.007-.001.018-.008.072-.043.14-.09.213-.13.087-.049.43-.146.075-.044.08-.023.158-.052.239-.074.015-.004.135-.02.199-.032l.118-.003c.026 0 .053.004.08.005-.059.008.202.064.28.076l.032.026c.066.048.146.09.215.135-.31-.2.004.016.063.075.035.036.068.073.101.111a.763.763 0 0 1 .083.113c.051.093.105.187.158.279l.015.023v.009c.027.149.068.295.122.436a.225.225 0 0 1 .006.036c.005.081.012.163.012.244l-.001.017a1.746 1.746 0 0 0-1.6-.011Z" fill="#888"/><path d="m226.647 393.337-.004.002.008-.002h-.004ZM226.655 393.335h.001-.001ZM226.655 393.337l-.005.001c.006 0 .004-.001.005-.001ZM226.656 393.335c.004.001 0 .001-.001.001l.001-.001Z" fill="#E6E6E6"/><path d="M299.501 427.777a6.368 6.368 0 0 0-7.716-2.856 5.608 5.608 0 0 0-3.193 2.973c-.061.146-.097.299-.147.447-.07.113-.153.214-.215.332a6.363 6.363 0 0 0 9.924 7.603 6.853 6.853 0 0 0 1.347-8.499Zm-4.013 2.721c.013.081.008.156 0 0Zm-.408-.927c-.016-.018-.014-.016 0 0Zm-1.799.723c-.024-.037-.026-.043 0 0Zm.427.361c.101.035.061.028 0 0Zm.19.091.042-.019a.052.052 0 0 1-.03-.006l.001-.001.033.005.007-.003-.019-.005c.016 0 .018.002.019.005.191-.088.062-.046-.049-.011l-.007-.002a.736.736 0 0 0-.22-.071c-.007-.004-.015-.006-.021-.011-.062-.043-.372-.286-.084-.032-.063-.055-.125-.109-.183-.169a.788.788 0 0 1-.094-.115 5.423 5.423 0 0 1-.11-.196l-.006-.036c-.004-.029-.008-.042-.012-.059l.008-.058a.717.717 0 0 0 .041-.179l.012-.015c.046-.065.086-.139.13-.206-.232.353.091-.039.115-.089.004-.008-.003-.004-.001-.009.009-.006.006-.002.018-.009.072-.042.14-.089.213-.13.087-.048.43-.145.074-.044.081-.023.159-.052.24-.073.015-.004.135-.021.199-.033l.118-.003.079.005c-.059.008.203.065.281.076l.032.026c.065.048.145.091.215.136-.31-.201.004.015.063.075.035.035.068.073.101.11a.842.842 0 0 1 .083.113c.051.093.105.188.158.279l.015.024-.001.009c.028.148.069.294.123.435a.22.22 0 0 1 .006.037c.005.081.012.162.012.244l-.001.016a1.759 1.759 0 0 0-1.6-.011Z" fill="#888"/><path d="m293.944 360.222-.004.002.008-.002h-.004ZM293.953 360.22h.001-.001ZM293.954 360.222h-.005.005ZM293.955 360.22c.004.002 0 .001-.001.002l.001-.002ZM293.951 360.219l.002.001-.002-.001ZM356.979 381.584l.001.001-.001-.001Z" fill="#E6E6E6"/><path d="M362.526 378.639a6.365 6.365 0 0 0-7.715-2.856 5.613 5.613 0 0 0-3.193 2.973c-.062.146-.098.298-.148.447-.069.113-.153.214-.215.331a6.366 6.366 0 0 0 5.926 9.215 6.367 6.367 0 0 0 3.999-1.611 6.857 6.857 0 0 0 1.346-8.499Zm-4.013 2.721c.013.081.008.156 0 0Zm-.408-.927c-.016-.018-.014-.016 0 0Zm-1.798.723c-.024-.037-.027-.044 0 0Zm.426.361c.101.035.061.027 0 0Zm.19.091.042-.02a.058.058 0 0 1-.029-.005l.001-.001.033.004.006-.002-.019-.005c.016 0 .018.002.019.004.191-.087.062-.045-.048-.011l-.008-.001a.736.736 0 0 0-.22-.071l-.021-.011c-.061-.044-.371-.286-.084-.032-.062-.055-.124-.109-.183-.169a.808.808 0 0 1-.094-.116c-.038-.064-.074-.13-.11-.196l-.005-.035-.012-.06.007-.057a.685.685 0 0 0 .041-.179l.012-.015c.046-.065.087-.14.131-.206-.233.352.09-.039.115-.089.004-.008-.003-.004-.002-.01.01-.005.007-.001.018-.008.072-.042.14-.09.213-.13.087-.048.43-.146.075-.044.081-.023.158-.052.24-.074.014-.003.134-.02.199-.032l.117-.003.08.005c-.059.008.202.064.28.076l.032.026c.066.048.146.091.215.135-.31-.2.004.016.063.075.036.036.068.074.102.111.03.035.058.073.082.113.051.093.105.187.158.279l.015.023v.01c.028.148.069.294.122.435a.457.457 0 0 1 .007.036c.004.082.011.163.011.245v.016a1.76 1.76 0 0 0-1.601-.011Z" fill="#888"/><path d="m356.97 381.586-.004.002.008-.002h-.004ZM356.977 381.583l.002.002-.002-.002ZM356.98 381.584c.005.002 0 .002-.001.002l.001-.002ZM356.979 381.586l-.004.001c.005.001.003 0 .004-.001Z" fill="#E6E6E6"/><path d="m339.699 430.541-49.669 2.761a1.095 1.095 0 0 1-.237-2.174l50.767-8.261-.861 7.674Z" fill="#333"/><path d="m402.821 541.12 18.717-31.489 13.834 6.534s-23.837 29.773-24.597 30.629a7.326 7.326 0 1 1-7.954-5.674Z" fill="#FFB6B6"/><path d="m410.607 467.973 30.325 15.821a16.789 16.789 0 0 1 2.841 24.653l-20.905 23.981-9.107-12.341 7.019-14.677-13.592-3.584 3.419-33.853Z" fill="#3F88C5"/><path d="m324.192 431.056-3.416 36.473-15.299.025s8.777-37.116 9.096-38.216a7.321 7.321 0 0 1 7.057-11.724 7.32 7.32 0 0 1 5.416 10.161 7.325 7.325 0 0 1-2.854 3.281Z" fill="#FFB6B6"/><path d="m354.646 505.642-35.214-6.458c-14.828-1.783-20.914-11.54-18.238-21.057l8.611-30.626 13.517 7.247-.052 16.269 18.922-2.586 12.454 37.211Z" fill="#3F88C5"/><path d="M340.231 757.695h-9.682l-4.607-37.347h14.291l-.002 37.347Z" fill="#FFB6B6"/><path d="m340.572 767.797-29.775-.002v-.376a11.588 11.588 0 0 1 11.589-11.589h.001l5.439-4.126 10.147 4.126h2.599v11.967Z" fill="#272727"/><path d="M408.741 757.695h9.683l4.606-37.347h-14.291l.002 37.347Z" fill="#FFB6B6"/><path d="m408.401 767.797 29.775-.002v-.376a11.588 11.588 0 0 0-11.589-11.589h-.001l-5.439-4.126L411 755.83h-2.6l.001 11.967ZM325.517 692.903c.143-2.131 1.28-13.917 1.28-13.917l2.723-24.994 4.8-66.253 4.278-17.414 21.179 8.25 17.184-8.238 20.426 6.529 15.904 5.964s.028 2.554.15 5.638c.164 4.037.449 8.987 1.13 10.274 1.137 2.274.851 14.481.851 14.481s1.131 24.838 2.554 27.561c1.423 2.723 1.708 8.395 1.28 9.532-.429 1.137 1.423 30.965 1.423 30.965s4.753 52.784 1.77 60.743c-2.982 7.959-14.25 2.746-14.25 2.746s.544-2.125-2.724-3.125c-3.268-1.001-13.222-75.847-13.222-75.847s-1.852-15.346-3.554-19.744c-1.702-4.398-3.268-16.756-3.268-16.756s-10.512-20.453-10.648-25.001c0 0-1.376-4.255-2.676.429-1.3 4.685-5.134 15.905-5.134 15.905l-3.737 13.78L358.837 655l-2.846 17.334s-4.262 23.006-4.943 24c-.68.994 0 22.012 0 22.012s-3.295 17.899-7.952 21.025c-4.657 3.125-16.995.049-16.995.049s-.727-44.386-.584-46.517Z" fill="#272727"/><path d="m341.349 514.29-2.707 35.057-4.065 4.208a3.91 3.91 0 0 0-1.099 2.867 3.914 3.914 0 0 0 1.304 2.779l-2.24 3.841-.793 12.104a6.57 6.57 0 0 0 1.136 5.486 6.577 6.577 0 0 0 4.952 2.621l70.11 3.294a6.57 6.57 0 0 0 5.154-2.122 6.574 6.574 0 0 0 1.675-5.315l-5.961-44.881v-3.355l-2.669-6.481 1.372-21.711 3.19-34.46-18.547-4.79-10.056-6.919-17.47.278-10.601 8.706-14.134 2.214-10.69 2.124-1.361 2.96 2.723-.592 9.871 38.5.906 3.587Z" fill="#3F88C5"/><path d="M372.98 451.815c11.366 0 20.58-9.214 20.58-20.58 0-11.367-9.214-20.581-20.58-20.581-11.366 0-20.581 9.214-20.581 20.581 0 11.366 9.215 20.58 20.581 20.58Z" fill="#FFB6B6"/><path d="m368.018 450.487 14.869-.758c1.905-.098 3.985-.266 5.37-1.577a8.134 8.134 0 0 0 1.686-2.8 952.11 952.11 0 0 0 4.089-9.594c1.853-4.438 3.673-9.123 3.2-13.908a8.854 8.854 0 0 0-2.573-5.802 4.914 4.914 0 0 0-5.972-.605 10.103 10.103 0 0 0-5.012-7.277 15.467 15.467 0 0 0-8.826-1.871 21.296 21.296 0 0 0-12.131 4.781 26.291 26.291 0 0 1-3.094 2.452 4.863 4.863 0 0 1-3.778.699 2.733 2.733 0 0 1-2.006-2.979 5.262 5.262 0 0 0-1.345 6.943 4.852 4.852 0 0 1-4.744-.561 5.816 5.816 0 0 0-1.88 1.485 5.8 5.8 0 0 0 7.962 8.33c.902 1.264.566 2.982.448 4.53-.117 1.549.298 3.474 1.791 3.902 2.018.578 3.653-2.139 5.753-2.11a3.158 3.158 0 0 1 2.504 1.613 9.349 9.349 0 0 1 1.002 2.926l2.687 12.097M947.792 635.538c0-3.187-1.071-5.773-2.385-5.779H587.183c-1.32.006-2.384 2.592-2.39 5.779v131.188a1.193 1.193 0 0 1-1.075 1.186c-.962.092-1.923.178-2.885.257-.023 0-.047.006-.071.006-.523.048-1.046.083-1.57.125h-.006c-.269-.498-.535-.999-.798-1.506a1.191 1.191 0 0 1-.135-.552V628.04c0-.88.036-1.765.095-2.639.085-1.201.234-2.395.446-3.58 1.005-5.523 3.276-9.263 5.856-9.275h363.284c.377.002.749.081 1.094.232.507.224.966.545 1.35.945a8.386 8.386 0 0 1 1.326 1.814 23.863 23.863 0 0 1 2.503 9.471c0 .036.006.071.006.107.083.963.125 1.944.119 2.925l.083 12.742.054 7.599.16 23.842.06 8.467.261 86.926a1.188 1.188 0 0 1-1.189 1.19h-4.78a1.19 1.19 0 0 1-1.189-1.19V635.538Z" fill="#272727"/><path d="M850.45 552.925h-38.599a2.06 2.06 0 0 0-2.056 2.061v60.976h42.717v-60.976c0-.27-.053-.538-.156-.789a2.083 2.083 0 0 0-.447-.669 2.083 2.083 0 0 0-.669-.447 2.08 2.08 0 0 0-.79-.156Zm-19.169 34.645a4.576 4.576 0 0 1-4.558-4.558v-7.033a4.559 4.559 0 0 1 9.116 0v7.033a4.58 4.58 0 0 1-4.558 4.558Z" fill="#888"/><path d="M809.662 614.012v5.883a1.152 1.152 0 0 0 1.15 1.15h40.682a1.16 1.16 0 0 0 1.15-1.15v-5.883h-42.982Z" fill="#3F3D56"/><path d="M914.367 457.766H749.37a5.358 5.358 0 0 0-5.348 5.347v111.341a5.355 5.355 0 0 0 5.348 5.347h164.997a5.35 5.35 0 0 0 5.347-5.347V463.113a5.358 5.358 0 0 0-1.568-3.779 5.358 5.358 0 0 0-3.779-1.568Z" fill="#888"/><path d="M912.99 461.628H750.749a2.869 2.869 0 0 0-2.023.841 2.87 2.87 0 0 0-.837 2.025v108.581a2.862 2.862 0 0 0 2.86 2.859H912.99a2.862 2.862 0 0 0 2.859-2.859V464.494a2.867 2.867 0 0 0-2.859-2.866Z" fill="#fff"/><path d="M881.388 623.091h-96.524a1.781 1.781 0 0 1-1.379-.656 1.773 1.773 0 0 1-.359-1.485l1.498-7.113a1.786 1.786 0 0 1 1.737-1.41h93.53a1.782 1.782 0 0 1 1.737 1.41l1.498 7.113a1.784 1.784 0 0 1-.359 1.485 1.79 1.79 0 0 1-.615.484c-.239.113-.5.172-.764.172Z" fill="#888"/><path d="M789.499 613.708h-1.931a.522.522 0 0 0-.521.522v.74c0 .288.233.522.521.522h1.931a.522.522 0 0 0 .521-.522v-.74a.522.522 0 0 0-.521-.522ZM795.444 613.708h-1.93a.522.522 0 0 0-.522.522v.74c0 .288.234.522.522.522h1.93a.522.522 0 0 0 .521-.522v-.74a.522.522 0 0 0-.521-.522ZM801.389 613.708h-1.93a.522.522 0 0 0-.521.522v.74c0 .288.233.522.521.522h1.93a.522.522 0 0 0 .522-.522v-.74a.522.522 0 0 0-.522-.522ZM807.336 613.708h-1.931a.522.522 0 0 0-.521.522v.74c0 .288.233.522.521.522h1.931a.522.522 0 0 0 .521-.522v-.74a.522.522 0 0 0-.521-.522ZM813.281 613.708h-1.93a.522.522 0 0 0-.522.522v.74c0 .288.234.522.522.522h1.93a.522.522 0 0 0 .521-.522v-.74a.522.522 0 0 0-.521-.522ZM819.227 613.708h-1.93a.522.522 0 0 0-.522.522v.74c0 .288.234.522.522.522h1.93a.522.522 0 0 0 .522-.522v-.74a.522.522 0 0 0-.522-.522ZM825.172 613.708h-1.93a.522.522 0 0 0-.521.522v.74c0 .288.233.522.521.522h1.93a.522.522 0 0 0 .522-.522v-.74a.522.522 0 0 0-.522-.522ZM831.119 613.708h-1.93a.522.522 0 0 0-.522.522v.74c0 .288.233.522.522.522h1.93a.522.522 0 0 0 .521-.522v-.74a.522.522 0 0 0-.521-.522ZM837.064 613.708h-1.93a.522.522 0 0 0-.522.522v.74c0 .288.234.522.522.522h1.93a.522.522 0 0 0 .522-.522v-.74a.522.522 0 0 0-.522-.522ZM843.009 613.708h-1.93a.522.522 0 0 0-.521.522v.74c0 .288.233.522.521.522h1.93a.522.522 0 0 0 .522-.522v-.74a.522.522 0 0 0-.522-.522ZM848.956 613.708h-1.931a.522.522 0 0 0-.521.522v.74c0 .288.233.522.521.522h1.931a.522.522 0 0 0 .521-.522v-.74a.522.522 0 0 0-.521-.522ZM854.901 613.708h-1.93a.522.522 0 0 0-.522.522v.74c0 .288.234.522.522.522h1.93a.522.522 0 0 0 .522-.522v-.74a.522.522 0 0 0-.522-.522ZM860.847 613.708h-1.93a.522.522 0 0 0-.521.522v.74c0 .288.233.522.521.522h1.93a.522.522 0 0 0 .522-.522v-.74a.522.522 0 0 0-.522-.522ZM866.793 613.708h-1.931a.522.522 0 0 0-.521.522v.74c0 .288.233.522.521.522h1.931a.522.522 0 0 0 .521-.522v-.74a.522.522 0 0 0-.521-.522ZM872.739 613.708h-1.93a.522.522 0 0 0-.522.522v.74c0 .288.234.522.522.522h1.93a.522.522 0 0 0 .521-.522v-.74a.522.522 0 0 0-.521-.522ZM878.684 613.708h-1.93a.522.522 0 0 0-.522.522v.74c0 .288.234.522.522.522h1.93a.522.522 0 0 0 .522-.522v-.74a.522.522 0 0 0-.522-.522ZM789.428 616.681h-1.93a.52.52 0 0 0-.521.521v.741c0 .288.233.522.521.522h1.93a.522.522 0 0 0 .522-.522v-.741a.522.522 0 0 0-.522-.521ZM795.374 616.681h-1.931a.52.52 0 0 0-.521.521v.741c0 .288.233.522.521.522h1.931a.522.522 0 0 0 .521-.522v-.741a.52.52 0 0 0-.521-.521ZM801.319 616.681h-1.93a.522.522 0 0 0-.522.521v.741c0 .288.234.522.522.522h1.93a.522.522 0 0 0 .522-.522v-.741a.522.522 0 0 0-.522-.521ZM807.265 616.681h-1.93a.522.522 0 0 0-.522.521v.741c0 .288.234.522.522.522h1.93a.522.522 0 0 0 .522-.522v-.741a.522.522 0 0 0-.522-.521ZM813.21 616.681h-1.93a.52.52 0 0 0-.521.521v.741c0 .288.233.522.521.522h1.93a.522.522 0 0 0 .522-.522v-.741a.52.52 0 0 0-.522-.521ZM819.157 616.681h-1.93a.522.522 0 0 0-.522.521v.741c0 .288.234.522.522.522h1.93a.522.522 0 0 0 .521-.522v-.741a.52.52 0 0 0-.521-.521ZM825.102 616.681h-1.93a.522.522 0 0 0-.522.521v.741c0 .288.234.522.522.522h1.93a.522.522 0 0 0 .522-.522v-.741a.522.522 0 0 0-.522-.521ZM831.048 616.681h-1.93a.52.52 0 0 0-.521.521v.741c0 .288.233.522.521.522h1.93a.522.522 0 0 0 .522-.522v-.741a.522.522 0 0 0-.522-.521ZM836.994 616.681h-1.93a.522.522 0 0 0-.522.521v.741c0 .288.234.522.522.522h1.93a.522.522 0 0 0 .521-.522v-.741a.52.52 0 0 0-.521-.521ZM842.94 616.681h-1.93a.522.522 0 0 0-.522.521v.741c0 .288.234.522.522.522h1.93a.522.522 0 0 0 .522-.522v-.741a.522.522 0 0 0-.522-.521ZM848.885 616.681h-1.93a.52.52 0 0 0-.521.521v.741c0 .288.233.522.521.522h1.93a.522.522 0 0 0 .522-.522v-.741a.522.522 0 0 0-.522-.521ZM854.831 616.681h-1.93a.52.52 0 0 0-.522.521v.741c0 .288.233.522.522.522h1.93a.522.522 0 0 0 .521-.522v-.741a.52.52 0 0 0-.521-.521ZM860.777 616.681h-1.93a.522.522 0 0 0-.522.521v.741c0 .288.234.522.522.522h1.93a.522.522 0 0 0 .521-.522v-.741a.52.52 0 0 0-.521-.521ZM866.722 616.681h-1.93a.52.52 0 0 0-.521.521v.741c0 .288.233.522.521.522h1.93a.522.522 0 0 0 .522-.522v-.741a.522.522 0 0 0-.522-.521ZM872.669 616.681h-1.931a.52.52 0 0 0-.521.521v.741c0 .288.233.522.521.522h1.931a.522.522 0 0 0 .521-.522v-.741a.52.52 0 0 0-.521-.521ZM878.614 616.681h-1.93a.522.522 0 0 0-.522.521v.741c0 .288.234.522.522.522h1.93a.522.522 0 0 0 .521-.522v-.741a.52.52 0 0 0-.521-.521ZM838.777 620.248h-22.74a.522.522 0 0 0-.521.522v.74c0 .288.233.522.521.522h22.74a.522.522 0 0 0 .522-.522v-.74a.522.522 0 0 0-.522-.522Z" fill="#E6E6E6"/><path d="M904.834 476.588H753.026a.599.599 0 0 1-.59-.603.603.603 0 0 1 .59-.604h151.808a.603.603 0 0 1 0 1.207ZM763.361 472.3c1.954 0 3.538-1.62 3.538-3.618 0-1.998-1.584-3.617-3.538-3.617-1.954 0-3.539 1.619-3.539 3.617s1.585 3.618 3.539 3.618ZM775.582 472.3c1.955 0 3.539-1.62 3.539-3.618 0-1.998-1.584-3.617-3.539-3.617-1.954 0-3.538 1.619-3.538 3.617s1.584 3.618 3.538 3.618ZM787.804 472.3c1.954 0 3.539-1.62 3.539-3.618 0-1.998-1.585-3.617-3.539-3.617-1.954 0-3.538 1.619-3.538 3.617s1.584 3.618 3.538 3.618ZM897.476 465.961h-8.682a.662.662 0 0 0-.457 1.118.658.658 0 0 0 .457.197h8.682a.653.653 0 0 0 .644-.657.657.657 0 0 0-.644-.658ZM897.476 468.429h-8.682a.658.658 0 0 0 0 1.314h8.682a.655.655 0 0 0 .644-.657.66.66 0 0 0-.644-.657ZM897.476 470.893h-8.682a.658.658 0 0 0 0 1.315h8.682a.658.658 0 0 0 0-1.315Z" fill="#888"/><path d="M841.188 509.479h-18.97a2.58 2.58 0 0 0 0 5.159h18.97a2.58 2.58 0 1 0 0-5.159Z" fill="#3F88C5"/><path d="M853.441 519.798h-43.477a2.58 2.58 0 1 0 0 5.16h43.477a2.58 2.58 0 1 0 0-5.16ZM853.441 530.117h-43.477a2.58 2.58 0 1 0 0 5.16h43.477a2.58 2.58 0 1 0 0-5.16Z" fill="#888"/><path d="m560.526 690.883-8.745-4.183 12.012-36.552 12.907 6.173-16.174 34.562ZM619.152 684.99a232.827 232.827 0 0 1-7.727 4.625v.019l-.038.006-.013.007-.989.244-1.42-3.751-.655-1.728-.925-2.447-1.696-4.477-8.928-23.574 13.881-3.424.52 2.126h.006l.257 1.054 4.85 19.668.989 4.021.032.122.597 2.402.514 2.082.572 2.325.173.7Z" fill="#FFB6B6"/><path d="M701.957 602.205c-.88 1.413-1.779 2.82-2.685 4.213a242.743 242.743 0 0 1-5.183 7.67c0 .006-.007.006-.013.013a18.171 18.171 0 0 1-3.404 2.486c-.052.038-.11.064-.161.096-.904.5-1.866.886-2.865 1.15l-1.085.269a70.972 70.972 0 0 1-10.618 1.677c-.18.019-.36.032-.54.045-9.192.674-18.139-.411-27.479-2.19-4.612-.874-9.32-1.921-14.195-3.007a718.431 718.431 0 0 0-4.811-1.066c-.122-.025-.251-.058-.379-.083a520.965 520.965 0 0 0-7.072-1.503 335.423 335.423 0 0 0-9.411-1.799l.232 4.58a34.442 34.442 0 0 0 2.171 10.297c1.387 4.059 2.485 7.271.167 13.957l-1.118 3.238a11.063 11.063 0 0 1-1.137 9.783l-.225.34 9.321 23.58.603 1.529h-4.772l-5.871.006h-9.95l-14.356-28.802-.687-1.375v-.07l1.483-55.35c.02-.488.058-.983.122-1.471a16.834 16.834 0 0 1 6.405-11.331 16.182 16.182 0 0 1 5.703-2.862 16.184 16.184 0 0 1 6.366-.439l4.914.635 10.039 1.298 7.073.918.141.02 20.856 2.698 1.497-6.103.276-.102 8.781-3.218 30.37-11.132.077-.026 1.997-.732.238.385c.071.116.141.232.205.347a59.508 59.508 0 0 1 4.799 11.138 174.861 174.861 0 0 1 5.196 20.022l.019.071c.02.109.033.179.039.199.602 3.367.23 6.837-1.073 10.001Z" fill="#272727"/><path d="M703.239 581.806a16.385 16.385 0 0 0-.347-1.233 87.623 87.623 0 0 0-3.558-9.005c-1.516-3.341-3.334-6.918-5.499-10.792a245.942 245.942 0 0 0-5.344-9.095l-.186-.308-30.048 4.021-11.19 1.496-.668 5.576-.16 1.381c-.007 0-.007 0 0 .006l-.45 3.764v.007l-.597 4.971-.052-.006-16.604-2.152-17.112-2.216-9.192-1.188a16.183 16.183 0 0 0-12.069 3.301 16.832 16.832 0 0 0-6.404 11.331c-.058.45-.096.912-.116 1.368l-8.671 20.549a132.546 132.546 0 0 0-9.802 38.565l-6.359 20.33.905.084 13.476 1.252 3.559.334 7.836-11.44a60.226 60.226 0 0 0 2.531-4.021 61.05 61.05 0 0 0 3.462-6.963l16.952-40.338c1.31.225 2.607.439 3.892.642a345.557 345.557 0 0 0 17.112 2.357c17.773 1.985 33.164 2.139 46.865.457a128.105 128.105 0 0 0 11.157-1.85c1.317-.277 2.616-.574 3.899-.893.302-.071.597-.142.893-.219a16.386 16.386 0 0 0 11.465-10.714 16.726 16.726 0 0 0 .424-9.359ZM563.32 684.914l-9.462-4.535-1.484-.713-2.37 5.82-16.546 3.642a3.916 3.916 0 0 0-2.11 1.245 3.925 3.925 0 0 0 1.467 6.225l16.168 6.597 5.132-4.619-1.259 6.199 6.089 2.486 6.674-21.242-2.299-1.105Z" fill="#272727"/><path d="m621.466 675.951.605 1.529h-.605v-1.529Z" fill="#2F2E41"/><path d="m618.171 677.806-9.914 3.436-1.556.537 2.41 5.803-9.194 14.23a3.925 3.925 0 0 0 4.799 5.76l16.13-6.688.397-6.893 3.467 5.291 6.076-2.518-10.204-19.79-2.411.832Z" fill="#272727"/><path d="M557.999 465.276a7.04 7.04 0 0 0 10.529 2.387l20.848 13.839.039-13.003-19.803-11.148a7.078 7.078 0 0 0-11.613 7.925Z" fill="#FFB6B6"/><path d="m573.573 471.286 9.727-11.065 39.603 23.511 52.499-4.808a17.746 17.746 0 0 1 14.178 5.132 17.748 17.748 0 0 1 5.118 14.183 17.771 17.771 0 0 1-19.313 16.04l-59.127-5.472-42.685-37.521Z" fill="#888"/><path d="m695.422 471.457-.091-.115a38.356 38.356 0 0 0-37.123 19.235l-4.456 7.849c-14.411 17.618-3.939 29.768-3.312 31.575l-5.002 23.064 1.121 7.719.56 2.293 57.101 29.837c3.251-15.62.107-28.93-11.737-39.098l11.46-35.656a50.233 50.233 0 0 0-8.521-46.703Z" fill="#888"/><path d="M650.02 644.677h-18.316a4.182 4.182 0 0 1-4.14-3.597 93.13 93.13 0 0 1 0-25.082 4.186 4.186 0 0 1 4.07-3.596c5.762-2.583 11.968-2.583 18.449 0a4.135 4.135 0 0 1 3.147 1.518 4.23 4.23 0 0 1 .873 3.526 56.32 56.32 0 0 0 0 22.186 4.225 4.225 0 0 1-.873 3.527 4.146 4.146 0 0 1-3.21 1.518Z" fill="#3F88C5"/><path d="M648.101 621.965h-15.416a.96.96 0 0 1-.898-.593.967.967 0 0 1 .211-1.055.96.96 0 0 1 .687-.279h15.416a.964.964 0 1 1 0 1.927ZM648.101 629.673h-15.416a.96.96 0 0 1-.898-.593.967.967 0 0 1 .211-1.055.96.96 0 0 1 .687-.279h15.416a.964.964 0 1 1 0 1.927ZM648.101 637.381h-15.416a.964.964 0 1 1 0-1.927h15.416a.965.965 0 0 1 .899.592.967.967 0 0 1-.527 1.264.965.965 0 0 1-.372.071Z" fill="#fff"/><path d="M561.357 471.624h-18.316a4.186 4.186 0 0 1-4.14-3.597 93.123 93.123 0 0 1 0-25.081 4.183 4.183 0 0 1 4.069-3.597c5.763-2.583 11.969-2.582 18.45 0a4.135 4.135 0 0 1 3.147 1.518 4.234 4.234 0 0 1 .873 3.527 56.316 56.316 0 0 0 0 22.185 4.24 4.24 0 0 1-.873 3.527 4.146 4.146 0 0 1-3.21 1.518Z" fill="#3F88C5"/><path d="M559.439 448.912h-15.416a.969.969 0 0 1-.687-.279.97.97 0 0 1-.211-1.055.97.97 0 0 1 .526-.522.969.969 0 0 1 .372-.071h15.416a.964.964 0 1 1 0 1.927ZM559.439 456.62h-15.416a.969.969 0 0 1-.687-.279.97.97 0 0 1-.211-1.055.97.97 0 0 1 .526-.522.969.969 0 0 1 .372-.071h15.416a.964.964 0 1 1 0 1.927ZM559.438 464.328h-15.416a.964.964 0 1 1 0-1.927h15.416a.965.965 0 0 1 .688 1.648.965.965 0 0 1-.688.279Z" fill="#fff"/><path d="M239.82 518.626h-18.315a4.186 4.186 0 0 1-4.14-3.597 93.123 93.123 0 0 1 0-25.081 4.183 4.183 0 0 1 4.069-3.597c5.763-2.583 11.969-2.582 18.449 0a4.14 4.14 0 0 1 3.148 1.518 4.234 4.234 0 0 1 .873 3.527 56.278 56.278 0 0 0 0 22.185 4.24 4.24 0 0 1-.873 3.527 4.152 4.152 0 0 1-1.434 1.121 4.15 4.15 0 0 1-1.777.397Z" fill="#3F88C5"/><path d="M237.903 495.914h-15.416a.965.965 0 0 1-.972-.964.958.958 0 0 1 .6-.892.965.965 0 0 1 .372-.071h15.416a.964.964 0 1 1 0 1.927ZM237.903 503.622h-15.416a.965.965 0 0 1-.972-.964.958.958 0 0 1 .6-.892.965.965 0 0 1 .372-.071h15.416a.964.964 0 1 1 0 1.927ZM237.902 511.33h-15.416a.964.964 0 1 1 0-1.927h15.416a.965.965 0 0 1 .899 1.334.957.957 0 0 1-.527.522.965.965 0 0 1-.372.071Z" fill="#fff"/><path d="M655.386 621.263a7.033 7.033 0 0 0 3.366-4.916 7.05 7.05 0 0 0-1.608-5.737l12.578-21.631-12.983.732-9.954 20.429a7.082 7.082 0 0 0-.64 9.382 7.078 7.078 0 0 0 9.241 1.741Z" fill="#FFB6B6"/><path d="m660.462 605.36-11.623-9.053 21.12-40.929-7.914-52.121a17.756 17.756 0 0 1 10.546-18.976 17.755 17.755 0 0 1 7.59-1.432 17.776 17.776 0 0 1 17.158 18.328l-1.955 59.347-34.922 44.836Z" fill="#888"/><path d="M98.689 594.177a7.098 7.098 0 0 0-.987-10.841l11.304-56.147-12.484 4.008-9.048 54.308a7.138 7.138 0 0 0 11.215 8.672Z" fill="#9E616A"/><path d="m115.379 475.387-7.745-5.847s-6.832-.484-8.043 11.838c-1.21 12.321-3.694 36.334-3.694 36.334l-11.852 54.892 16.406 3.601 12.694-59.238 7.615-17.592-5.381-23.988Z" fill="#888"/><path d="m102.61 565.02 43.645-.727 3.637-29.824H102.61v30.551ZM141.891 748.546h10.075l4.793-38.863-14.87.001.002 38.862ZM78.769 749.479l10.075-.071 4.52-38.895-13.103 3.006-1.492 35.96Z" fill="#9E616A"/><path d="m110.282 508.785-2.283 5.936.456 5.936 44.681 15.475-2.217-25.977-5.022-5.936-35.615 4.566Z" fill="#FFB6B6"/><path d="M129.45 455.369c8.814 0 15.959-7.144 15.959-15.958 0-8.813-7.145-15.958-15.959-15.958-8.813 0-15.958 7.145-15.958 15.958 0 8.814 7.145 15.958 15.958 15.958Z" fill="#9E616A"/><path d="m139.391 743.576 15.928-.951v6.824l15.142 10.458a4.262 4.262 0 0 1-2.422 7.77h-18.962l-3.269-6.75-1.276 6.75h-7.149l2.008-24.101ZM75.322 744.532l15.92-1.062.048 6.824 15.216 10.352a4.261 4.261 0 0 1-2.368 7.787l-18.962.133-3.315-6.727-1.23 6.758-7.149.05 1.84-24.115ZM75.634 719.682l7.336-58.643 8.73-61.83c-6.393-11.872 8-48.736 8-48.736l2.032.097 45.988 8.676-.01-.044c9.406 25.654 12.522 38.328 12.006 65.647l-1.853 98.208h.582a3.636 3.636 0 0 1 0 7.274h-18.186c-.478 0-.951-.093-1.393-.275a3.635 3.635 0 0 1-1.182-5.936 3.623 3.623 0 0 1 2.575-1.063h.469l-16.691-116.936-14.153 49.099-16.003 64.012c5.82-1.455 4.916 1.915 4.916 3.825a3.636 3.636 0 0 1-3.637 3.637H76.975a3.635 3.635 0 0 1-1.341-7.012Z" fill="#272727"/><path d="m96.12 552.382 1.455-14.548a2.903 2.903 0 0 1 2.622-2.179c.606-6.93 3.157-36.828 3.309-38.132l.006-.055 1.16-24.774a3.664 3.664 0 0 1 3.42-3.484l6.126-.401a.323.323 0 0 0 .313-.323 5.15 5.15 0 0 1 5.151-5.152h18.135a4.828 4.828 0 0 1 3.19 1.207 4.827 4.827 0 0 1 1.593 3.015.318.318 0 0 0 .326.288h.002a8.62 8.62 0 0 1 8.668 7.147c2.479 14.425 7.448 47.165 4.991 65.366-.855 6.336.988 1.318 1.312 6.62a3.899 3.899 0 0 1-.972 2.829 2.81 2.81 0 0 1 1.694 3.576l.319-.079a2.92 2.92 0 0 1-2.399 2.168 2.908 2.908 0 0 1-1.134-.058l-47.446 6.429c-1.558-.393-12.234-7.902-11.841-9.46Z" fill="#888"/><path d="M222.902 493.232a7.091 7.091 0 0 1-3.994 4.488 7.111 7.111 0 0 1-3.022.576 7.112 7.112 0 0 1-2.982-.757l-18.343 16.739-2.435-12.882 17.803-13.88a7.138 7.138 0 0 1 12.973 5.716Z" fill="#9E616A"/><path d="M159.06 480.437s-6.396-14.454-14.474-11.581c-8.078 2.873-3.907 16.897-3.907 16.897l30.349 45.733s43.775-28.081 38.452-28.28c-5.323-.198-6.915-9.88-6.915-9.88l-23.136 11.561-.783-4.116-1.254 1.255-3.238-2.548-15.094-19.041Z" fill="#888"/><path d="M682.257 464.559c12.305 0 22.28-9.975 22.28-22.28 0-12.304-9.975-22.279-22.28-22.279-12.304 0-22.279 9.975-22.279 22.279 0 12.305 9.975 22.28 22.279 22.28Z" fill="#FFB6B6"/><path d="M753.761 475.064a19.322 19.322 0 0 1-10.621 7.477 22.22 22.22 0 0 1-5.287.899 20.018 20.018 0 0 0-1.572-5.874 16.507 16.507 0 0 1-.816 5.86 19.654 19.654 0 0 1-7.729-2.071 17.035 17.035 0 0 1-9.114-12.225c-.944-6.094 1.819-12.078 2.818-18.162 1.004-6.085-.88-13.792-6.836-15.391-4.536-1.219-4.028-.692-7.799 2.108 3.923 5.799-10.565 27.053-16.494 25.2-3.353-1.048-5.499-4.124-6.191-4.124-4.659 8.028 4.115 21.554-4.728 24.362l.728-.728c5.338-6.566-5.819-20.463-.481-27.029 1.489-1.837 3.075-4.014 2.635-6.337-.417-2.208-3.922-3.377-4.949-1.562 1.847-4.229-.879-9.874-5.393-10.96-4.009-.967-3.935.224-7.958.742a19.989 19.989 0 0 0-1.462-5.045 16.376 16.376 0 0 1-.6 5.141 6.446 6.446 0 0 1-3.904-1.411c-3.281-2.644-2.616-8.197.312-11.226 2.932-3.028 7.289-4.119 11.445-4.824 1.208-8.413 24.42-9.291 27.496-.885 1.311-6.277 9.169-9.535 15.276-7.587 6.108 1.947 10.347 7.652 12.578 13.663 2.231 6.007 2.854 12.472 4.229 18.731 1.375 6.259 3.698 12.632 8.481 16.898 4.784 4.261 12.578 5.672 17.618 1.714a14.108 14.108 0 0 1-1.682 12.646Z" fill="#272727"/><path d="m962.787 525.907-3.119 15.649a155.453 155.453 0 0 1-.748 3.621 15.268 15.268 0 0 0-7.84.438 73.145 73.145 0 0 1 5.383 9.006c-1.965 6.056-4.849 11.654-9.678 15.702a24.265 24.265 0 0 1-23.447 4.124l.139-.62c-5.192-10.073-2.372-22.774 4.08-32.079a62.345 62.345 0 0 1 11.591-12.252c4.358-3.632 9.069-6.89 13.737-10.105a6.398 6.398 0 0 1 9.902 6.516Z" fill="#fff"/><path d="M924.449 612.102c-1.313-9.564-2.663-19.25-1.743-28.916.819-8.584 3.437-16.969 8.769-23.844a39.698 39.698 0 0 1 10.177-9.222c1.018-.641 1.954.971.942 1.61a37.703 37.703 0 0 0-14.916 17.996c-3.248 8.26-3.769 17.264-3.205 26.037.339 5.306 1.056 10.576 1.779 15.842a.963.963 0 0 1-.652 1.147.94.94 0 0 1-1.147-.651l-.004.001Z" fill="#F4F4F4"/><path d="M110.668 429.64c-2.448 1.175-5.187-.592-7.3-2.343l.756.652c-3.735 3.634-5.48 8.861-6.334 14.007-.854 5.141-.95 10.398-2.025 15.502-1.076 5.098-3.308 10.221-7.477 13.344-5.586 4.183-13.29 3.914-20.145 2.632-.091-.019-.176-.033-.268-.051a41.852 41.852 0 0 0 2.205-16.591 38.057 38.057 0 0 1-9.135 14.973 87.332 87.332 0 0 1-13.265-4.834c-2.772-1.276-5.757-3.02-6.526-5.974-.771-2.932 1.02-6.007 3.415-7.858 2.394-1.851 5.334-2.817 8.062-4.136 2.724-1.312 5.419-3.184 6.51-6.009 2.515-6.499-4.65-13.956-1.858-20.345 1.377-3.142 4.75-4.85 7.92-6.168 4.84-2.006 9.81-3.682 14.876-5.018 4.447-1.173 9.091-2.084 13.621-1.315 4.53.769 8.969 3.524 10.6 7.827 2.72.919 5.609 1.956 7.355 4.246 1.745 2.284 1.604 6.217-.987 7.459Z" fill="#272727"/><path d="M132.445 422.109c-7.001-5.527-12.662-4.584-17.03-1.15-.734-.816-3.858 1.431-4.916 1.108l-3.826 7.183c-1.969 3.474-2.777 7.021-2.459 9.017-3.621 10.157 4.967 17.015 15.124 20.637a19.383 19.383 0 0 0 12.568.182l.124-1.731.77 1.418s9.285 19.119 11.479 19.977c-1.332-3.453-4.843-19.867-5.823-23.289-1.344-4.655-.426-12.05.364-16.585a25.7 25.7 0 0 0 .076-8.457l-.019-.123 2.172 4.386 4.874-3.065c-1.863-5.426-1.9-11.917-13.478-9.508Z" fill="#272727"/></svg>