<?xml version="1.0" encoding="UTF-8"?>
<!DOCTYPE svg PUBLIC "-//W3C//DTD SVG 1.1//EN" "http://www.w3.org/Graphics/SVG/1.1/DTD/svg11.dtd">
<!-- Creator: CorelDRAW (Evaluation Version) -->
<svg xmlns="http://www.w3.org/2000/svg" xml:space="preserve" width="210.353mm" height="150.928mm" version="1.1" style="shape-rendering:geometricPrecision; text-rendering:geometricPrecision; image-rendering:optimizeQuality; fill-rule:evenodd; clip-rule:evenodd"
viewBox="0 0 21022.47 15083.57"
 xmlns:xlink="http://www.w3.org/1999/xlink"
 xmlns:xodm="http://www.corel.com/coreldraw/odm/2003">
 <defs>
  <style type="text/css">
   <![CDATA[
    .fil0 {fill:#C39768}
   ]]>
  </style>
 </defs>
 <g id="??_x0020_1">
  <metadata id="CorelCorpID_0Corel-Layer"/>
  <g id="_105553161043040">
   <g id="_193417656">
    <path id="_193416096" class="fil0" d="M14610.94 4919.42c-725.97,-531.89 -1424.61,-2420.79 -2517.2,-2683.81 -216.86,-52.15 -502.16,-54.66 -705.59,38.41 -286.56,131.11 -580.49,429.1 -702.91,715.16 -149.25,348.72 -109.32,681.24 70.92,1005.43 352,633.11 1313.33,1747.83 1554.29,2070.27 430.3,575.8 1283.76,1973.08 2127.24,1973.08 971.77,0 3222.44,-2703.96 4100.3,-3291.8 0,1925.02 0,3850.04 0,5775.08 0,962.51 0.09,1925.01 0,2887.52 -33.47,971.57 274.86,1608.06 1270.52,1674.78 576.98,0 1246.08,-422.46 1212.75,-1155.02l0 -11896.63c0,-532.77 -728.36,-1270.53 -1328.27,-1270.53l-115.49 0c-628.1,0 -2142.41,1553.56 -2585.66,1976.65 -593.81,566.8 -1771.62,1773.39 -2380.9,2181.41z"/>
    <path id="_193417632" class="fil0" d="M2252.3 10867.77l-60.26 -2194.51 3236.54 0 0 -2252.3 -3234.03 0 0 -3234.03 -2194.55 0 0 8142.85c0,2141.21 1924.75,3407.3 3869.3,3407.3l4331.33 0c1088.88,0 866.24,-1657.75 866.24,-2772.01 0,-1212.77 0,-2425.56 0,-3638.3 196.85,131.82 1696.26,2063.47 1973.87,2415.18 436.43,552.91 1610.85,2292.65 2241.94,2147.12 578.22,0 2023.58,-1636.02 2467.97,-2036.58 350.56,-315.97 1641.67,-1351.38 2036.56,-1988.71 242.23,-390.86 89.18,-877.25 -245.76,-1169.65 -129.82,-113.35 -238.33,-186.32 -359.33,-223.65 -243.2,-75.04 -509.94,-23.08 -719.71,110.94 -787.1,502.99 -2546.09,2419.66 -3064.24,2766.63 -612.18,-914.19 -1674.02,-2134.12 -2409.7,-3018.86 -324.11,-389.79 -1178.27,-1643.12 -1888.07,-2317.27 -240.86,-228.76 -439.13,-366.16 -663.95,-416.08 -683.18,-151.72 -1434.56,341.2 -1448.61,1074.41l0 6987.82 -2079.03 0c-1290.06,0 -2630.54,-623.49 -2656.51,-1790.27z"/>
    <circle id="_193417536" class="fil0" cx="1068.26" cy="1050.14" r="1050.13"/>
   </g>
  </g>
 </g>
</svg>
