<!--
Talentmaker website

Copyright (C) 2020 - 2021 Luke Zhang
https://Luke-zhang-04.github.io

Author: Luke Zhang - luke-zhang-04.github.io

License: BSD-3-Clause

This is the moving puzzle SVG
-->
<svg id="e4yex09ykkwl1" xmlns="http://www.w3.org/2000/svg" xmlns:xlink="http://www.w3.org/1999/xlink" viewBox="0 0 1006 774" shape-rendering="geometricPrecision" text-rendering="geometricPrecision"><title>Talentmaker SVG | Problem Solving</title><style><![CDATA[#e4yex09ykkwl20_to {animation: e4yex09ykkwl20_to__to 3000ms linear infinite alternate forwards}@keyframes e4yex09ykkwl20_to__to { 0% {transform: translate(0.058286px,-18.515986px)} 16.666667% {transform: translate(0.058286px,-18.515986px);animation-timing-function: cubic-bezier(0.420000,0,0.580000,1)} 83.333333% {transform: translate(0.058286px,14.484014px)} 100% {transform: translate(0.058286px,14.484014px)} }#e4yex09ykkwl21_to {animation: e4yex09ykkwl21_to__to 3000ms linear infinite alternate forwards}@keyframes e4yex09ykkwl21_to__to { 0% {transform: translate(0px,0px)} 23.333333% {transform: translate(0px,0px);animation-timing-function: cubic-bezier(0.420000,0,0.580000,1)} 90% {transform: translate(-24px,3px)} 100% {transform: translate(-24px,3px)} }#e4yex09ykkwl22_to {animation: e4yex09ykkwl22_to__to 3000ms linear infinite alternate forwards}@keyframes e4yex09ykkwl22_to__to { 0% {transform: translate(1.169704px,0px)} 16.666667% {transform: translate(1.169704px,0px);animation-timing-function: cubic-bezier(0.420000,0,0.580000,1)} 83.333333% {transform: translate(24.169704px,14px)} 100% {transform: translate(24.169704px,14px)} }#e4yex09ykkwl26_to {animation: e4yex09ykkwl26_to__to 3000ms linear infinite alternate forwards}@keyframes e4yex09ykkwl26_to__to { 0% {transform: translate(0px,0px)} 23.333333% {transform: translate(0px,0px)} 90% {transform: translate(0px,-16px)} 100% {transform: translate(0px,-16px)} }#e4yex09ykkwl32_to {animation: e4yex09ykkwl32_to__to 3000ms linear infinite alternate forwards}@keyframes e4yex09ykkwl32_to__to { 0% {transform: translate(0px,0px)} 6.666667% {transform: translate(0px,0px);animation-timing-function: cubic-bezier(0.420000,0,0.580000,1)} 73.333333% {transform: translate(1px,42px)} 100% {transform: translate(1px,42px)} }]]></style><defs><linearGradient id="e4yex09ykkwl5-fill" x1="762.029000" y1="530.870000" x2="699.806000" y2="596.652000" spreadMethod="pad" gradientUnits="userSpaceOnUse"><stop id="e4yex09ykkwl5-fill-0" offset="0%" stop-color="rgb(0,92,169)"/><stop id="e4yex09ykkwl5-fill-1" offset="100%" stop-color="rgb(63,136,197)"/></linearGradient><linearGradient id="e4yex09ykkwl53-fill" x1="34130.700000" y1="13581.400000" x2="33067.300000" y2="14931.200000" spreadMethod="pad" gradientUnits="userSpaceOnUse"><stop id="e4yex09ykkwl53-fill-0" offset="0%" stop-color="rgb(13,68,114)"/><stop id="e4yex09ykkwl53-fill-1" offset="100%" stop-color="rgb(86,140,186)"/></linearGradient></defs><g id="e4yex09ykkwl2"><path id="e4yex09ykkwl3" d="M68.129100,357.719000L364.014000,194.318000C367.492000,192.410000,371.458000,191.403000,375.499000,191.403000C379.539000,191.403000,383.505000,192.410000,386.983000,194.318000L934.796000,494.248000C938.132000,496.085000,940.902000,498.688000,942.838000,501.807000C944.774000,504.925000,945.811000,508.455000,945.849000,512.054000C945.887000,515.653000,944.924000,519.200000,943.054000,522.353000C941.184000,525.507000,938.469000,528.159000,935.173000,530.056000L658.921000,688.269000C653.141000,691.585000,646.501000,693.385000,639.706000,693.479000C632.911000,693.574000,626.215000,691.958000,620.331000,688.804000L68.405000,393.806000C65.005800,391.979000,62.179600,389.360000,60.205900,386.208000C58.232200,383.056000,57.179300,379.481000,57.151400,375.836000C57.123600,372.191000,58.121700,368.602000,60.047000,365.425000C61.972400,362.247000,64.758200,359.591000,68.129100,357.719000Z" fill="rgb(63,136,197)" fill-opacity="0.76" stroke="none" stroke-width="1"/><path id="e4yex09ykkwl4" d="M289.365000,229.380000C288.427000,230.077000,287.400000,230.663000,286.306000,231.125000C286.329000,231.193000,286.335000,231.265000,286.324000,231.335000C286.313000,231.405000,286.284000,231.472000,286.240000,231.531000C286.197000,231.589000,286.139000,231.637000,286.073000,231.672000C286.006000,231.707000,285.931000,231.727000,285.855000,231.730000L284.225000,231.730000C282.504000,232.107000,280.716000,232.131000,278.984000,231.801000C277.252000,231.472000,275.618000,230.797000,274.195000,229.823000C271.789000,228.842000,269.530000,227.575000,267.475000,226.053000C262.460000,222.377000,257.445000,216.933000,251.753000,213.117000C251.753000,214.187000,251.903000,215.258000,252.029000,216.281000L253.257000,226.542000L255.439000,244.736000C255.439000,245.062000,255.439000,246.016000,255.614000,246.295000C265.093000,257.649000,291.096000,253.648000,291.096000,253.648000C291.096000,253.648000,306.492000,216.747000,289.365000,229.380000Z" fill="rgb(63,136,197)" stroke="none" stroke-width="1"/><path id="e4yex09ykkwl5" d="M683.695000,535.221000L616.394000,580.823000L715.114000,638.106000L778.679000,598.320000" fill="url(#e4yex09ykkwl5-fill)" stroke="none" stroke-width="1"/><path id="e4yex09ykkwl6" d="M291.697000,364.862000L261.106000,386.361000L296.888000,408.766000L332.695000,381.289000" fill="rgb(13,96,165)" stroke="none" stroke-width="1"/><path id="e4yex09ykkwl7" d="M183.022000,329.916000L128.735000,361.954000L203.534000,402.275000L266.246000,363.583000" fill="rgb(13,96,165)" stroke="none" stroke-width="1"/><path id="e4yex09ykkwl8" d="M313.437000,343.224000C313.437000,343.224000,310.704000,357.347000,315.142000,358.999000C319.581000,360.651000,337.710000,373.750000,334.951000,379.008000C328.758000,391.061000,291.722000,364.862000,291.722000,364.862000L296.311000,334.988000" fill="rgb(3,43,67)" stroke="none" stroke-width="1"/><path id="e4yex09ykkwl9" d="M290.043000,289.222000C290.043000,291.945000,287.535000,338.920000,287.535000,338.920000C287.535000,338.920000,308.122000,356.533000,323.443000,355.416000L330.965000,309.813000" fill="rgb(3,43,67)" stroke="none" stroke-width="1"/><path id="e4yex09ykkwl10" d="M253.834000,327.310000C253.834000,327.310000,281.166000,330.218000,297.264000,314.792000C306.617000,305.811000,324.295000,290.479000,324.295000,290.479000L259.100000,286.035000" fill="rgb(3,43,67)" stroke="none" stroke-width="1"/><path id="e4yex09ykkwl11" d="M710.149000,538.711000C709.397000,537.850000,687.581000,533.197000,683.695000,535.244000C679.808000,537.292000,685.074000,542.806000,694.953000,548.204000C704.833000,553.601000,713.308000,558.301000,717.295000,557.138000C721.282000,555.975000,725.595000,553.857000,725.595000,551.740000L725.595000,530.358000" fill="rgb(3,43,67)" stroke="none" stroke-width="1"/><path id="e4yex09ykkwl12" d="M758.845000,577.380000C758.845000,578.613000,761.477000,583.546000,758.845000,584.756000C756.212000,585.965000,738.383000,589.828000,734.747000,594.481000C731.112000,599.134000,732.390000,602.694000,734.747000,603.951000C737.105000,605.207000,778.679000,598.320000,778.679000,598.320000L773.664000,572.052000" fill="rgb(3,43,67)" stroke="none" stroke-width="1"/><path id="e4yex09ykkwl13" d="M746.984000,367.980000C746.984000,367.980000,744.602000,358.813000,730.384000,354.695000C716.167000,350.576000,718.072000,379.846000,718.072000,379.846000" fill="rgb(29,63,117)" stroke="none" stroke-width="1"/><path id="e4yex09ykkwl14" d="M719.853000,413.350000C718.373000,413.955000,682.441000,438.618000,685.500000,476.472000C687.356000,499.320000,705.284000,537.664000,705.284000,537.664000C705.284000,537.664000,734.221000,554.742000,752.927000,550.414000" fill="rgb(63,136,197)" stroke="none" stroke-width="1"/><path id="e4yex09ykkwl15" d="M712.130000,424.262000C712.130000,424.262000,702.526000,463.001000,706.087000,487.082000C709.648000,511.163000,746.959000,580.381000,746.959000,580.381000C759.991000,581.588000,773.152000,580.418000,785.700000,576.938000C785.700000,576.938000,763.133000,495.179000,761.052000,486.198000C758.970000,477.217000,761.052000,428.194000,761.052000,428.194000" fill="rgb(63,136,197)" stroke="none" stroke-width="1"/><path id="e4yex09ykkwl16" d="M725.746000,357.394000C725.746000,357.394000,680.410000,339.362000,665.792000,331.475000C665.792000,331.475000,661.930000,345.807000,662.707000,347.761000C663.485000,349.716000,701.223000,386.058000,720.806000,389.153000" fill="rgb(3,43,67)" stroke="none" stroke-width="1"/><path id="e4yex09ykkwl17" d="M190.018000,304.183000C190.018000,304.183000,181.693000,298.482000,178.559000,299.390000C175.424000,300.297000,174.221000,332.475000,176.402000,334.453000C178.584000,336.430000,185.856000,343.759000,190.018000,342.224000C194.181000,340.688000,196.588000,334.453000,196.588000,334.453000" fill="rgb(3,43,67)" stroke="none" stroke-width="1"/><path id="e4yex09ykkwl18" d="M266.547000,284.453000L216.949000,287.268000L226.302000,319.632000L194.331000,297.226000C188.113000,303.392000,189.141000,309.953000,188.815000,318.166000C188.465000,323.424000,189.058000,328.700000,190.570000,333.778000C190.745000,334.336000,190.946000,334.872000,191.172000,335.407000C194.156000,337.943000,197.616000,340.176000,199.998000,341.921000C205.740000,346.133000,211.307000,350.530000,216.949000,354.858000C224.923000,360.953000,232.520000,366.793000,242.626000,369.585000C252.731000,372.377000,270.409000,365.374000,272.465000,354.439000C276.051000,334.848000,269.506000,303.973000,266.547000,284.453000Z" fill="rgb(3,43,67)" stroke="none" stroke-width="1"/><path id="e4yex09ykkwl19" d="M656.639000,377.868000L647.211000,373.866000C645.531000,373.145000,644.076000,375.472000,645.756000,376.193000L655.185000,380.195000C656.965000,380.893000,658.319000,378.590000,656.639000,377.868000Z" fill="rgb(96,96,96)" stroke="none" stroke-width="1"/><g id="e4yex09ykkwl20_to" transform="translate(0.058286,-18.515986)"><g id="e4yex09ykkwl20" transform="translate(0,0)"><g id="e4yex09ykkwl21_to" transform="translate(0,0)"><path id="e4yex09ykkwl21" d="M679.106000,310.069000L680.260000,228.915000C680.260000,228.915000,682.767000,216.165000,671.734000,210.302000L544.353000,142.014000L544.353000,189.059000C544.353000,189.059000,568.651000,196.039000,564.664000,207.673000C560.677000,219.306000,544.353000,210.232000,544.353000,210.232000L544.353000,237.873000L679.106000,310.069000Z" transform="translate(0,0)" fill="rgb(63,136,197)" fill-opacity="0.76" stroke="none" stroke-width="1"/></g><g id="e4yex09ykkwl22_to" transform="translate(1.169704,0)"><path id="e4yex09ykkwl22" d="M304.235000,124.587000C304.235000,124.587000,301.903000,143.713000,312.861000,149.204000C323.192000,154.369000,325.223000,135.383000,325.223000,135.383000L367.073000,157.626000L367.073000,61.302100L291.221000,21.167100C291.221000,21.167100,268.854000,15.536500,265.018000,32.404900L266.397000,104.206000L304.235000,124.587000Z" transform="translate(0,0)" fill="rgb(63,136,197)" fill-opacity="0.76" stroke="none" stroke-width="1"/></g><path id="e4yex09ykkwl23" d="M289.642000,116.700000L390.293000,171.307000L390.293000,197.272000C390.293000,197.272000,372.189000,186.826000,370.559000,201.554000C368.879000,216.700000,390.293000,222.726000,390.293000,222.726000L389.591000,262.698000L347.189000,240.595000C347.189000,240.595000,348.016000,223.238000,334.651000,217.747000C320.534000,212,321.687000,227.054000,321.687000,227.054000L288.864000,209.767000L289.642000,116.700000Z" fill="rgb(3,43,67)" stroke="none" stroke-width="1"/><path id="e4yex09ykkwl24" d="M389.590000,262.675000L438.035000,288.687000C438.035000,288.687000,429.635000,306.859000,444.855000,313.862000C460.076000,320.865000,460.954000,301.577000,460.954000,301.577000L519.203000,332.335000L519.203000,297.436000C519.203000,297.436000,499.720000,296.156000,496.134000,283.475000C492.548000,270.795000,512.132000,271.679000,519.203000,275.914000L519.203000,240.316000L477.027000,216.747000L390.292000,171.237000L390.292000,197.272000C390.292000,197.272000,372.940000,186.151000,369.079000,198.715000C365.217000,211.279000,375.147000,220.306000,390.292000,222.726000L389.590000,262.698000" fill="rgb(63,136,197)" fill-opacity="0.76" stroke="none" stroke-width="1"/><path id="e4yex09ykkwl25" d="M519.203000,240.316000L578.405000,271.656000C578.405000,271.656000,576.249000,254.113000,594.403000,259.045000C612.557000,263.978000,608.144000,288.106000,608.144000,288.106000L653.956000,312.489000L652.427000,402.252000L598.566000,373.727000C598.566000,373.727000,601.073000,347.854000,585.501000,342.689000C569.930000,337.524000,570.456000,358.859000,570.456000,358.859000L519.178000,332.335000L519.178000,297.435000C506.164000,297.226000,491.596000,288.734000,496.109000,278.124000C500.623000,267.515000,519.178000,275.797000,519.178000,275.797000L519.178000,240.316000" fill="rgb(3,43,67)" stroke="none" stroke-width="1"/><g id="e4yex09ykkwl26_to" transform="translate(0,0)"><path id="e4yex09ykkwl26" d="M519.203000,348.087000L519.203000,387.501000C519.203000,387.501000,498.917000,377.915000,495.256000,387.920000C491.595000,397.924000,519.203000,410.162000,519.203000,410.162000L519.203000,441.735000L623.239000,497.575000C623.239000,497.575000,647.085000,510,651.850000,485.686000L652.401000,418.213000L598.540000,389.688000C598.540000,389.688000,602.226000,365.630000,585.476000,358.650000C568.726000,351.670000,570.431000,374.820000,570.431000,374.820000L519.203000,348.087000Z" transform="translate(0,0)" fill="rgb(63,136,197)" fill-opacity="0.76" stroke="none" stroke-width="1"/></g><path id="e4yex09ykkwl27" d="M389.590000,262.675000L389.590000,295.109000C389.590000,295.109000,370.157000,283.475000,363.863000,294.388000C357.569000,305.300000,386.155000,316.793000,386.155000,316.793000L386.155000,354.671000L519.203000,425.937000L519.203000,332.335000L389.590000,262.675000Z" fill="rgb(3,43,67)" stroke="none" stroke-width="1"/><path id="e4yex09ykkwl28" d="M288.864000,209.767000L321.587000,227.100000C321.587000,227.100000,320.484000,210.558000,334.551000,217.794000C348.618000,225.030000,347.089000,240.642000,347.089000,240.642000L393.302000,264.816000L393.302000,359.115000L297.290000,307.231000C292.687000,303.824000,289.642000,298.929000,288.764000,293.527000C287.711000,284.732000,288.864000,209.767000,288.864000,209.767000Z" fill="rgb(63,136,197)" fill-opacity="0.76" stroke="none" stroke-width="1"/><path id="e4yex09ykkwl29" d="M443.978000,244.876000C442.875000,254.625000,440.819000,264.280000,439.490000,274.006000C446.034000,276.495000,459.675000,283.499000,459.675000,283.499000L457.168000,249.646000L443.978000,244.876000Z" fill="rgb(3,43,67)" stroke="none" stroke-width="1"/><path id="e4yex09ykkwl30" d="M453.347000,253.140000C460.019000,252.147000,464.258000,244.564000,462.813000,236.203000C461.368000,227.841000,454.787000,221.868000,448.114000,222.861000C441.441000,223.854000,437.203000,231.437000,438.648000,239.798000C440.093000,248.159000,446.674000,254.133000,453.347000,253.140000Z" fill="rgb(3,43,67)" stroke="none" stroke-width="1"/><path id="e4yex09ykkwl31" d="M436.731000,195.225000C436.731000,195.225000,435.503000,179.566000,454.610000,182.475000C473.717000,185.383000,466.846000,213.350000,466.846000,213.350000" fill="rgb(63,136,197)" fill-opacity="0.76" stroke="none" stroke-width="1"/><g id="e4yex09ykkwl32_to" transform="translate(0,0)"><path id="e4yex09ykkwl32" d="M390.292000,130.264000L390.292000,96.620800C390.292000,96.620800,379.134000,95.992600,376.375000,87.314200C373.617000,78.635700,380.061000,71.190400,390.292000,74.564100L390.292000,33.940500L519.203000,103.461000L519.203000,150.506000C519.203000,150.506000,540.566000,152.251000,539.965000,166.793000C539.363000,181.335000,519.203000,171.702000,519.203000,171.702000L519.203000,199.320000L464.263000,168.678000C464.263000,168.678000,469.278000,148.668000,451.299000,142.107000C438.286000,137.454000,436.731000,154.229000,436.731000,154.229000L390.292000,130.264000Z" transform="translate(0,0)" fill="rgb(3,43,67)" stroke="none" stroke-width="1"/></g></g></g><path id="e4yex09ykkwl33" d="M759.220000,426.147000C753.921000,410.729000,749.190000,395.155000,745.028000,379.427000C744.577000,377.752000,741.793000,378.473000,742.245000,380.148000C746.390000,395.877000,751.121000,411.450000,756.437000,426.868000C756.989000,428.473000,759.772000,427.752000,759.220000,426.147000Z" fill="rgb(96,96,96)" stroke="none" stroke-width="1"/><path id="e4yex09ykkwl34" d="M221.889000,206.253000C219.983000,203.159000,214.066000,199.111000,210.605000,202.670000C209.947000,203.440000,209.638000,204.419000,209.746000,205.397000C209.854000,206.375000,210.369000,207.275000,211.182000,207.905000C213.263000,209.261000,215.645000,210.168000,218.153000,210.558000C218.428000,210.635000,218.720000,210.650000,219.003000,210.603000C219.286000,210.556000,219.553000,210.447000,219.783000,210.286000C220.013000,210.125000,220.198000,209.917000,220.324000,209.677000C220.451000,209.437000,220.514000,209.173000,220.510000,208.906000C220.818000,208.861000,221.110000,208.747000,221.360000,208.574000C221.611000,208.402000,221.812000,208.175000,221.948000,207.915000C222.083000,207.654000,222.149000,207.367000,222.139000,207.077000C222.128000,206.788000,222.043000,206.505000,221.889000,206.253000Z" fill="rgb(251,181,173)" stroke="none" stroke-width="1"/><path id="e4yex09ykkwl35" d="M264.215000,264.723000L213.363000,253.089000C213.363000,253.089000,214.943000,273.564000,216.923000,287.221000C226.026000,291.014000,237.109000,290.944000,246.763000,289.548000C253.610000,288.814000,260.283000,287.054000,266.522000,284.336000C268.551000,283.360000,270.495000,282.239000,272.339000,280.986000C271.562000,276.146000,264.842000,269.725000,264.215000,264.723000Z" fill="rgb(63,136,197)" stroke="none" stroke-width="1"/><path id="e4yex09ykkwl36" d="M275.825000,274.657000C275.825000,278.357000,274.772000,287.477000,274.546000,291.177000C253.132000,285.872000,206.844000,271.493000,203.634000,241.875000C203.164000,237.849000,203.679000,233.778000,205.138000,229.962000C208.200000,226.075000,211.790000,222.571000,215.820000,219.539000C221.287000,214.885000,228.057000,210.069000,235.579000,208.836000C244.832000,207.300000,252.129000,212.884000,258.774000,218.701000C261.281000,224.076000,254.060000,229.334000,255.013000,234.802000L267.951000,270.865000L275.850000,274.634000" fill="rgb(63,136,197)" stroke="none" stroke-width="1"/><path id="e4yex09ykkwl37" d="M235.705000,196.249000C235.705000,196.249000,241.322000,220.469000,232.721000,223.541000C224.120000,226.612000,215.344000,221.028000,213.815000,216.561000C212.904000,212.743000,212.701000,208.809000,213.213000,204.927000C213.213000,204.927000,219.732000,196.319000,235.705000,196.249000Z" fill="rgb(251,181,173)" stroke="none" stroke-width="1"/><path id="e4yex09ykkwl38" d="M236.733000,191.921000C237.009000,186.035000,228.158000,182.312000,224.070000,187.268000C223.050000,186.446000,221.847000,185.843000,220.547000,185.501000C219.247000,185.159000,217.881000,185.087000,216.548000,185.290000C212.787000,185.895000,211.533000,188.361000,211.784000,191.642000C210.703000,191.628000,209.633000,191.851000,208.662000,192.291000C207.691000,192.732000,206.844000,193.378000,206.192000,194.178000C205.461000,195.142000,205.069000,196.292000,205.069000,197.470000C205.069000,198.649000,205.461000,199.798000,206.192000,200.762000C204.865000,201.257000,203.758000,202.154000,203.052000,203.308000C202.346000,204.462000,202.083000,205.804000,202.305000,207.114000C202.423000,208.342000,202.881000,209.520000,203.634000,210.534000C203.463000,210.908000,203.337000,211.298000,203.258000,211.698000C203.081000,212.794000,203.255000,213.915000,203.759000,214.920000C204.263000,215.925000,205.074000,216.771000,206.092000,217.352000C207.268000,218.091000,208.658000,218.480000,210.079000,218.468000C210.551000,219.315000,211.273000,220.018000,212.162000,220.497000C213.050000,220.975000,214.067000,221.207000,215.094000,221.167000C216.373000,221.131000,217.593000,220.657000,218.518000,219.836000C219.444000,219.016000,220.010000,217.908000,220.109000,216.723000C220.168000,216.061000,220.074000,215.395000,219.833000,214.769000C221.023000,212.328000,221.245000,209.576000,220.460000,206.998000C220.841000,206.881000,221.204000,206.716000,221.538000,206.509000C222.567000,205.847000,223.291000,204.851000,223.569000,203.717000C224.764000,204.122000,226.053000,204.226000,227.305000,204.020000C227.885000,203.898000,228.420000,203.639000,228.860000,203.268000C229.299000,202.897000,229.628000,202.427000,229.813000,201.903000C231.450000,202.302000,233.178000,202.236000,234.774000,201.713000C236.370000,201.191000,237.760000,200.235000,238.764000,198.971000C239.410000,197.768000,239.559000,196.388000,239.185000,195.090000C238.811000,193.792000,237.939000,192.665000,236.733000,191.921000Z" fill="rgb(216,98,18)" stroke="none" stroke-width="1"/><path id="e4yex09ykkwl39" d="M221.989000,212.861000C221.840000,212.088000,221.523000,211.351000,221.057000,210.695000C220.592000,210.039000,219.987000,209.478000,219.281000,209.045000C218.947000,208.780000,218.560000,208.580000,218.142000,208.456000C217.724000,208.333000,217.283000,208.288000,216.846000,208.325000C216.409000,208.362000,215.984000,208.479000,215.597000,208.671000C215.210000,208.863000,214.868000,209.125000,214.592000,209.441000C214.167000,210.051000,213.958000,210.769000,213.994000,211.495000C214.030000,212.221000,214.309000,212.918000,214.792000,213.489000C215.946000,214.885000,217.826000,214.909000,219.456000,215.514000C220.434000,215.886000,221.011000,214.978000,220.810000,214.211000C220.987000,214.203000,221.160000,214.161000,221.317000,214.087000C221.475000,214.013000,221.614000,213.908000,221.725000,213.781000C221.837000,213.654000,221.918000,213.506000,221.963000,213.347000C222.008000,213.189000,222.017000,213.023000,221.989000,212.861000Z" fill="rgb(251,181,173)" stroke="none" stroke-width="1"/><path id="e4yex09ykkwl40" d="M234.050000,206.789000C234.050000,206.230000,232.997000,206.463000,233.123000,207.021000L233.925000,210.814000C234.105000,211.384000,234.231000,211.968000,234.301000,212.559000C234.301000,213.606000,233.749000,213.792000,232.897000,214.280000C232.787000,214.339000,232.707000,214.436000,232.674000,214.549000C232.641000,214.663000,232.658000,214.783000,232.721000,214.885000C232.785000,214.987000,232.889000,215.061000,233.011000,215.092000C233.133000,215.123000,233.264000,215.107000,233.373000,215.048000C234.477000,214.420000,235.404000,214.118000,235.329000,212.722000C235.033000,210.722000,234.606000,208.740000,234.050000,206.789000Z" fill="rgb(86,64,61)" stroke="none" stroke-width="1"/><path id="e4yex09ykkwl41" d="M236.256000,205.765000C236.130000,205.765000,236.009000,205.811000,235.919000,205.894000C235.830000,205.977000,235.780000,206.090000,235.780000,206.207000C235.780000,206.324000,235.830000,206.437000,235.919000,206.519000C236.009000,206.602000,236.130000,206.649000,236.256000,206.649000C236.383000,206.649000,236.504000,206.602000,236.593000,206.519000C236.682000,206.437000,236.733000,206.324000,236.733000,206.207000C236.733000,206.090000,236.682000,205.977000,236.593000,205.894000C236.504000,205.811000,236.383000,205.765000,236.256000,205.765000Z" fill="rgb(86,64,61)" stroke="none" stroke-width="1"/><path id="e4yex09ykkwl42" d="M226.979000,208.673000C226.853000,208.673000,226.731000,208.720000,226.642000,208.803000C226.553000,208.885000,226.502000,208.998000,226.502000,209.115000C226.502000,209.232000,226.553000,209.345000,226.642000,209.428000C226.731000,209.511000,226.853000,209.557000,226.979000,209.557000C227.105000,209.557000,227.226000,209.511000,227.316000,209.428000C227.405000,209.345000,227.455000,209.232000,227.455000,209.115000C227.455000,208.998000,227.405000,208.885000,227.316000,208.803000C227.226000,208.720000,227.105000,208.673000,226.979000,208.673000Z" fill="rgb(86,64,61)" stroke="none" stroke-width="1"/><path id="e4yex09ykkwl43" d="M231.894000,216.747000C231.157000,217.037000,230.332000,217.069000,229.571000,216.838000C228.810000,216.607000,228.166000,216.128000,227.756000,215.490000C227.693000,215.388000,227.589000,215.314000,227.467000,215.284000C227.344000,215.253000,227.214000,215.269000,227.104000,215.327000C226.995000,215.386000,226.915000,215.483000,226.882000,215.596000C226.849000,215.710000,226.866000,215.831000,226.929000,215.932000C227.470000,216.775000,228.327000,217.402000,229.336000,217.694000C230.345000,217.986000,231.434000,217.922000,232.395000,217.514000C232.947000,217.328000,232.470000,216.561000,231.894000,216.747000Z" fill="rgb(86,64,61)" stroke="none" stroke-width="1"/><path id="e4yex09ykkwl44" d="M290.870000,269.399000C289.758000,269.418000,288.675000,269.727000,287.743000,270.290000C286.812000,270.854000,286.071000,271.650000,285.604000,272.587000C284.827000,273.820000,284.326000,275.146000,283.448000,276.333000C282.019000,278.240000,280.941000,277.496000,278.834000,276.612000C276.728000,275.728000,274.647000,278.706000,276.903000,279.683000C278.640000,280.697000,280.605000,281.326000,282.646000,281.521000C283.279000,281.392000,283.878000,281.144000,284.404000,280.792000C284.930000,280.440000,285.373000,279.991000,285.705000,279.474000C285.786000,279.764000,285.951000,280.028000,286.182000,280.238000C286.413000,280.447000,286.701000,280.595000,287.016000,280.664000C287.330000,280.733000,287.659000,280.722000,287.967000,280.631000C288.275000,280.540000,288.550000,280.373000,288.764000,280.148000C290.837000,278.318000,292.477000,276.107000,293.578000,273.657000C293.760000,273.213000,293.832000,272.737000,293.789000,272.264000C293.745000,271.791000,293.588000,271.333000,293.328000,270.924000C293.068000,270.515000,292.712000,270.165000,292.286000,269.902000C291.861000,269.638000,291.377000,269.466000,290.870000,269.399000Z" fill="rgb(251,181,173)" stroke="none" stroke-width="1"/><path id="e4yex09ykkwl45" d="M302.580000,283.708000C293.703000,280.947000,284.785000,278.202000,275.825000,275.472000C275.273000,279.660000,274.997000,283.848000,274.646000,288.036000C278.443000,292.314000,282.856000,296.087000,287.760000,299.250000C288.085000,299.419000,288.451000,299.507000,288.822000,299.505000C289.194000,299.504000,289.559000,299.414000,289.882000,299.243000C290.205000,299.072000,290.475000,298.826000,290.666000,298.530000C290.856000,298.234000,290.961000,297.897000,290.970000,297.552000C290.894000,296.742000,290.656000,295.953000,290.268000,295.225000C292.081000,296.347000,294.024000,297.275000,296.060000,297.994000C296.509000,298.092000,296.981000,298.055000,297.406000,297.886000C297.830000,297.717000,298.185000,297.426000,298.418000,297.056000C298.651000,296.686000,298.750000,296.257000,298.700000,295.831000C298.650000,295.405000,298.454000,295.005000,298.141000,294.690000L296.361000,293.341000C297.851000,293.579000,299.368000,293.642000,300.874000,293.527000C303.131000,293.341000,303.934000,290.176000,301.451000,289.641000C300.448000,289.432000,299.470000,289.176000,298.492000,288.873000C300.320000,288.657000,302.052000,287.990000,303.507000,286.942000C304.861000,286.012000,303.934000,284.220000,302.580000,283.708000Z" fill="rgb(251,181,173)" stroke="none" stroke-width="1"/><path id="e4yex09ykkwl46" d="M293.001000,217.468000C291.424000,217.982000,289.978000,218.795000,288.757000,219.854000C287.535000,220.914000,286.565000,222.198000,285.907000,223.625000C285.249000,225.051000,284.918000,226.589000,284.935000,228.141000C284.952000,229.693000,285.317000,231.224000,286.005000,232.638000C286.126000,232.933000,286.349000,233.183000,286.640000,233.347000C286.931000,233.512000,287.272000,233.581000,287.610000,233.545000C287.682000,232.029000,288.100000,230.545000,288.834000,229.190000C289.569000,227.834000,290.605000,226.639000,291.873000,225.681000C293.779000,224.215000,296.161000,222.866000,296.888000,221.028000C298.067000,218.329000,295.760000,216.607000,293.001000,217.468000Z" fill="rgb(251,181,173)" stroke="none" stroke-width="1"/><path id="e4yex09ykkwl47" d="M670.832000,373.494000C665.323000,370.927000,660.253000,367.619000,655.787000,363.676000C656.063000,359.022000,656.364000,348.762000,650.772000,349.716000C648.064000,350.227000,648.264000,353.113000,648.264000,355.113000C648.262000,356.878000,648.363000,358.641000,648.565000,360.395000C642.196000,362.722000,632.041000,359.441000,628.505000,365.397000C628.336000,365.670000,628.247000,365.979000,628.247000,366.293000C628.247000,366.608000,628.336000,366.917000,628.505000,367.189000C628.682000,367.431000,628.893000,367.650000,629.132000,367.840000C628.152000,368.292000,627.294000,368.945000,626.625000,369.748000C626.404000,369.937000,626.232000,370.170000,626.122000,370.430000C626.013000,370.690000,625.969000,370.969000,625.993000,371.247000C626.017000,371.525000,626.109000,371.795000,626.262000,372.035000C626.415000,372.275000,626.625000,372.480000,626.875000,372.633000C627.252000,372.893000,627.666000,373.105000,628.104000,373.261000C628.082000,373.424000,628.082000,373.588000,628.104000,373.750000C628.104000,375.774000,629.809000,376.658000,632.442000,376.891000C632.877000,377.944000,633.709000,378.814000,634.784000,379.341000C635.858000,379.867000,637.102000,380.014000,638.284000,379.753000C641.947000,379.429000,645.572000,378.806000,649.117000,377.892000C652.955000,379.363000,656.698000,381.041000,660.325000,382.917000C660.714000,383.106000,661.160000,383.169000,661.592000,383.094000C662.023000,383.020000,662.415000,382.813000,662.704000,382.507000C662.994000,382.201000,663.164000,381.813000,663.187000,381.406000C663.210000,381,663.086000,380.598000,662.833000,380.265000C663.247000,380.032000,663.548000,379.661000,663.674000,379.227000C663.800000,378.794000,663.741000,378.332000,663.510000,377.938000C663.782000,377.603000,663.930000,377.195000,663.930000,376.775000C663.930000,376.355000,663.782000,375.947000,663.510000,375.611000C663.830000,375.592000,664.140000,375.499000,664.411000,375.340000C664.682000,375.182000,664.907000,374.963000,665.065000,374.704000C666.268000,375.355000,667.572000,375.984000,668.751000,376.565000C671.083000,377.589000,673.038000,374.518000,670.832000,373.494000Z" fill="rgb(251,181,173)" stroke="none" stroke-width="1"/><path id="e4yex09ykkwl48" d="M644.427000,365.653000C639.399000,366.741000,634.243000,367.234000,629.081000,367.119000C628.955000,367.119000,628.834000,367.166000,628.745000,367.249000C628.655000,367.332000,628.605000,367.444000,628.605000,367.561000C628.605000,367.678000,628.655000,367.791000,628.745000,367.874000C628.834000,367.957000,628.955000,368.003000,629.081000,368.003000C634.327000,368.119000,639.568000,367.619000,644.678000,366.514000C645.280000,366.491000,645.004000,365.653000,644.427000,365.653000Z" fill="rgb(86,64,61)" stroke="none" stroke-width="1"/><path id="e4yex09ykkwl49" d="M642.120000,371.889000C637.652000,372.900000,633.046000,373.284000,628.455000,373.029000C627.828000,373.029000,627.828000,373.890000,628.455000,373.913000C633.138000,374.173000,637.838000,373.781000,642.396000,372.750000C642.998000,372.633000,642.722000,371.749000,642.120000,371.889000Z" fill="rgb(86,64,61)" stroke="none" stroke-width="1"/><path id="e4yex09ykkwl50" d="M641.218000,375.472000C638.437000,376.216000,635.561000,376.607000,632.667000,376.635000C632.541000,376.635000,632.420000,376.682000,632.330000,376.765000C632.241000,376.848000,632.191000,376.960000,632.191000,377.077000C632.191000,377.195000,632.241000,377.307000,632.330000,377.390000C632.420000,377.473000,632.541000,377.519000,632.667000,377.519000C635.646000,377.486000,638.607000,377.079000,641.469000,376.309000C641.569000,376.264000,641.648000,376.188000,641.694000,376.094000C641.740000,375.999000,641.748000,375.893000,641.719000,375.794000C641.689000,375.694000,641.622000,375.608000,641.531000,375.549000C641.440000,375.490000,641.329000,375.463000,641.218000,375.472000Z" fill="rgb(86,64,61)" stroke="none" stroke-width="1"/><path id="e4yex09ykkwl51" d="M708.444000,402.275000C707.967000,406.370000,709.773000,415.863000,712.130000,424.262000C720.380000,428.432000,729.641000,430.579000,739.035000,430.498000C746.460000,430.803000,753.890000,430.018000,761.051000,428.171000C759.923000,407.882000,751.497000,361.814000,740.991000,362.745000C727.726000,363.932000,714.637000,378.497000,714.637000,378.497000C690.014000,381.847000,657.792000,359.883000,657.792000,359.883000L651.022000,379.171000C666.369000,393.273000,686.860000,401.518000,708.444000,402.275000Z" fill="rgb(3,43,67)" stroke="none" stroke-width="1"/><path id="e4yex09ykkwl52" d="M665.841000,333.638000C660.826000,328.008000,657.542000,323.773000,650.546000,320.307000C648.464000,319.283000,645.305000,321.540000,646.985000,323.610000C649.106000,325.933000,651.447000,328.075000,653.981000,330.009000L653.981000,330.172000C653.981000,330.172000,653.981000,330.381000,653.981000,330.474000L653.981000,330.614000C652.792000,333.956000,652.989000,337.590000,654.533000,340.805000C656.633000,343.700000,659.443000,346.092000,662.732000,347.785000C663.810000,343.085000,664.964000,338.385000,665.841000,333.638000Z" fill="rgb(251,181,173)" stroke="none" stroke-width="1"/><path id="e4yex09ykkwl53" d="M841.467000,504.369000L791.743000,531.731000C791.743000,531.731000,793.323000,550.065000,831.362000,564.886000L888.583000,531.847000" fill="url(#e4yex09ykkwl53-fill)" stroke="none" stroke-width="1"/><path id="e4yex09ykkwl54" d="M868.271000,538.618000C884.876000,538.618000,898.336000,527.003000,898.336000,512.675000C898.336000,498.348000,884.876000,486.733000,868.271000,486.733000C851.667000,486.733000,838.207000,498.348000,838.207000,512.675000C838.207000,527.003000,851.667000,538.618000,868.271000,538.618000Z" fill="rgb(13,96,165)" stroke="none" stroke-width="1"/><path id="e4yex09ykkwl55" d="M868.247000,508.650000C880.683000,508.650000,890.764000,503.588000,890.764000,497.343000C890.764000,491.098000,880.683000,486.035000,868.247000,486.035000C855.811000,486.035000,845.729000,491.098000,845.729000,497.343000C845.729000,503.588000,855.811000,508.650000,868.247000,508.650000Z" fill="rgb(13,96,165)" stroke="none" stroke-width="1"/><path id="e4yex09ykkwl56" d="M867.093000,406.230000L867.093000,494.876000C867.147000,495.313000,867.373000,495.717000,867.726000,496.009000C868.080000,496.302000,868.537000,496.464000,869.012000,496.464000C869.486000,496.464000,869.943000,496.302000,870.297000,496.009000C870.651000,495.717000,870.876000,495.313000,870.930000,494.876000L870.930000,406.230000C870.876000,405.793000,870.651000,405.390000,870.297000,405.097000C869.943000,404.804000,869.486000,404.643000,869.012000,404.643000C868.537000,404.643000,868.080000,404.804000,867.726000,405.097000C867.373000,405.390000,867.147000,405.793000,867.093000,406.230000Z" fill="rgb(19,111,99)" stroke="none" stroke-width="1"/><path id="e4yex09ykkwl57" d="M876.146000,402.880000C876.734000,401.848000,877.089000,400.714000,877.188000,399.550000C877.288000,398.386000,877.129000,397.215000,876.722000,396.109000C875.845000,393.783000,874.566000,391.316000,873.538000,388.920000C872.510000,386.524000,871.582000,384.430000,870.454000,382.242000C869.325000,382.778000,861.251000,394.039000,860.925000,398.785000C860.599000,403.531000,867.294000,407.487000,867.294000,407.487000L869.325000,408.673000C869.701000,408.883000,873.187000,406.207000,873.588000,405.881000C874.639000,405.042000,875.508000,404.023000,876.146000,402.880000Z" fill="rgb(19,111,99)" stroke="none" stroke-width="1"/><path id="e4yex09ykkwl58" d="M870.103000,428.753000C878.628000,427.985000,884.495000,421.330000,888.507000,414.420000C879.506000,414.862000,871.206000,420.144000,870.103000,428.753000Z" fill="rgb(19,111,99)" stroke="none" stroke-width="1"/><path id="e4yex09ykkwl59" d="M869.476000,428.473000C866.969000,420.912000,858.644000,416.840000,850.544000,414.746000C852.876000,422.843000,860.073000,429.288000,869.476000,428.473000Z" fill="rgb(19,111,99)" stroke="none" stroke-width="1"/><path id="e4yex09ykkwl60" d="M868.999000,450.530000C879.831000,449.553000,887.329000,441.084000,892.444000,432.289000C880.935000,432.847000,870.353000,439.572000,868.999000,450.530000Z" fill="rgb(19,111,99)" stroke="none" stroke-width="1"/><path id="e4yex09ykkwl61" d="M868.172000,450.135000C864.887000,440.502000,854.406000,435.477000,844.075000,432.661000C847.034000,442.992000,856.336000,451.205000,868.172000,450.135000Z" fill="rgb(19,111,99)" stroke="none" stroke-width="1"/><path id="e4yex09ykkwl62" d="M869.827000,476.054000C882.189000,474.937000,890.715000,465.281000,896.532000,455.277000C883.443000,455.905000,871.382000,463.559000,869.827000,476.054000Z" fill="rgb(19,111,99)" stroke="none" stroke-width="1"/><path id="e4yex09ykkwl63" d="M868.873000,475.635000C865.137000,464.653000,853.177000,458.929000,841.291000,455.719000C844.802000,467.468000,855.383000,476.822000,868.873000,475.635000Z" fill="rgb(19,111,99)" stroke="none" stroke-width="1"/><path id="e4yex09ykkwl64" d="M373.366000,491.084000C369.079000,494.760000,360.302000,481.777000,354.986000,483.476000C346.764000,486.162000,338.166000,487.730000,329.460000,488.129000C321.386000,488.525000,313.136000,487.757000,306.266000,483.476000C303.139000,481.334000,300.624000,478.516000,298.940000,475.266000C297.255000,472.016000,296.452000,468.434000,296.601000,464.831000C296.749000,461.227000,297.844000,457.712000,299.791000,454.591000C301.738000,451.470000,304.477000,448.838000,307.770000,446.924000L298.392000,442.433000L266.321000,463.141000C266.321000,463.141000,268.979000,506.696000,355.689000,500.600000L456.365000,553.927000L482.142000,535.849000L373.366000,491.084000Z" fill="rgb(13,96,165)" stroke="none" stroke-width="1"/><path id="e4yex09ykkwl65" d="M334.224000,492.945000C306.441000,492.945000,284.676000,479.869000,284.676000,463.164000C284.676000,446.458000,306.441000,433.383000,334.224000,433.383000C362.007000,433.383000,383.773000,446.458000,383.773000,463.164000C383.773000,479.869000,362.007000,492.945000,334.224000,492.945000ZM334.224000,446.528000C313.387000,446.528000,298.844000,455.300000,298.844000,463.141000C298.844000,470.981000,313.437000,479.660000,334.224000,479.660000C355.012000,479.660000,369.605000,470.888000,369.605000,463.048000C369.605000,455.207000,355.087000,446.528000,334.224000,446.528000Z" fill="rgb(3,43,67)" stroke="none" stroke-width="1"/><path id="e4yex09ykkwl66" d="M368.377000,475.588000C370.007000,474.216000,438.085000,512.070000,438.085000,512.070000L482.142000,535.826000L472.563000,542.806000C471.373000,543.677000,469.927000,544.194000,468.415000,544.290000C466.902000,544.385000,465.394000,544.054000,464.088000,543.341000L358.071000,486.361000L368.377000,475.588000Z" fill="rgb(3,43,67)" stroke="none" stroke-width="1"/><path id="e4yex09ykkwl67" d="M481.014000,519.493000L463.160000,530.498000L472.563000,542.689000L491.746000,531.428000C491.846000,525.635000,487.207000,519.842000,481.014000,519.493000Z" fill="rgb(3,43,67)" stroke="none" stroke-width="1"/><path id="e4yex09ykkwl68" d="M459.750000,506.975000C458.507000,505.986000,457.056000,505.248000,455.489000,504.808000C453.922000,504.367000,452.273000,504.234000,450.648000,504.416000L433.622000,514.909000L443.025000,527.101000L464.038000,514.769000C463.721000,511.762000,462.189000,508.977000,459.750000,506.975000Z" fill="rgb(3,43,67)" stroke="none" stroke-width="1"/><path id="e4yex09ykkwl69" d="M729.682000,543.643000C717.907000,512.134000,712.352000,478.913000,713.283000,445.574000C713.283000,445.426000,713.220000,445.284000,713.107000,445.180000C712.994000,445.075000,712.841000,445.016000,712.681000,445.016000C712.522000,445.016000,712.369000,445.075000,712.256000,445.180000C712.143000,445.284000,712.079000,445.426000,712.079000,445.574000C711.149000,479.008000,716.721000,512.323000,728.529000,543.923000C728.804000,544.597000,729.958000,544.318000,729.682000,543.643000Z" fill="rgb(255,255,255)" stroke="none" stroke-width="1"/><path id="e4yex09ykkwl70" d="M719.151000,377.845000C710.103000,378.804000,700.939000,377.923000,692.295000,375.262000C691.568000,375.030000,691.242000,376.100000,691.969000,376.333000C700.717000,379.027000,709.992000,379.924000,719.151000,378.962000C719.903000,378.892000,719.928000,377.775000,719.151000,377.845000Z" fill="rgb(32,68,114)" stroke="none" stroke-width="1"/><path id="e4yex09ykkwl71" d="M708.443000,402.275000L715.214000,402.275000L712.129000,424.262000C712.129000,424.262000,708.819000,408.208000,708.443000,402.275000Z" fill="rgb(32,68,114)" stroke="none" stroke-width="1"/><path id="e4yex09ykkwl72" d="M731.589000,353.043000C727.351000,355.137000,722.085000,351.740000,718.575000,349.646000C714.312000,347.110000,710.024000,342.666000,712.457000,337.663000C712.833000,336.919000,711.529000,336.477000,711.153000,337.221000C708.645000,342.433000,712.582000,347.435000,717.095000,350.274000C721.107000,352.810000,727.125000,356.626000,732.140000,354.183000C732.968000,353.834000,732.391000,352.670000,731.589000,353.043000Z" fill="rgb(0,146,69)" stroke="none" stroke-width="1"/><path id="e4yex09ykkwl73" d="M711.202000,333.592000C711.202000,333.592000,700.871000,359.744000,710.550000,364.955000C721.182000,370.679000,732.190000,361,732.190000,361C732.190000,361,742.772000,338.385000,732.190000,332.522000C721.608000,326.658000,712.857000,330.358000,711.202000,333.592000Z" fill="rgb(251,181,173)" stroke="none" stroke-width="1"/><path id="e4yex09ykkwl74" d="M712.957000,354.020000C712.690000,353.943000,712.443000,353.816000,712.230000,353.648000C713.415000,351.261000,714.729000,348.931000,716.167000,346.668000C716.218000,346.585000,716.251000,346.494000,716.264000,346.400000C716.278000,346.306000,716.270000,346.210000,716.244000,346.118000C716.217000,346.026000,716.171000,345.940000,716.108000,345.865000C716.046000,345.789000,715.968000,345.726000,715.879000,345.679000C715.790000,345.632000,715.692000,345.601000,715.590000,345.589000C715.488000,345.577000,715.385000,345.583000,715.286000,345.608000C715.187000,345.633000,715.095000,345.675000,715.013000,345.734000C714.932000,345.792000,714.864000,345.864000,714.813000,345.946000C713.276000,348.341000,711.878000,350.811000,710.626000,353.345000C710.527000,353.475000,710.475000,353.629000,710.475000,353.787000C710.475000,353.946000,710.527000,354.100000,710.626000,354.229000C711.099000,354.760000,711.725000,355.155000,712.431000,355.369000C713.509000,355.858000,713.910000,354.439000,712.957000,354.020000Z" fill="rgb(86,64,61)" stroke="none" stroke-width="1"/><path id="e4yex09ykkwl75" d="M746.433000,346.877000C747.661000,341.386000,744.953000,337.571000,741.117000,333.243000C740.816000,332.902000,740.490000,332.560000,740.139000,332.219000C741.356000,331.824000,742.461000,331.180000,743.374000,330.335000C743.478000,330.251000,743.558000,330.144000,743.605000,330.024000C743.652000,329.903000,743.665000,329.774000,743.642000,329.647000C743.620000,329.521000,743.562000,329.402000,743.476000,329.303000C743.389000,329.203000,743.276000,329.126000,743.148000,329.078000C742.503000,328.892000,741.823000,328.830000,741.151000,328.894000C740.479000,328.958000,739.828000,329.147000,739.236000,329.450000C739.087000,328.179000,738.697000,326.942000,738.083000,325.798000C738.022000,325.685000,737.930000,325.589000,737.818000,325.518000C737.706000,325.447000,737.576000,325.403000,737.440000,325.392000C737.305000,325.380000,737.169000,325.401000,737.044000,325.451000C736.920000,325.502000,736.811000,325.581000,736.729000,325.681000C736.310000,326.112000,735.999000,326.623000,735.817000,327.178000C735.635000,327.733000,735.587000,328.318000,735.676000,328.892000C730.992000,326.176000,725.407000,325.126000,719.954000,325.937000C717.944000,326.303000,716.055000,327.100000,714.437000,328.264000C713.115000,327.664000,711.638000,327.422000,710.174000,327.566000C708.612000,327.688000,707.136000,328.282000,705.972000,329.257000C704.808000,330.232000,704.020000,331.534000,703.730000,332.964000C703.647000,334.512000,704.224000,336.029000,705.336000,337.187000C706.448000,338.345000,708.005000,339.051000,709.673000,339.153000C711.356000,339.411000,713.082000,339.267000,714.688000,338.734000C713.208000,339.851000,712.030000,341.526000,714.688000,343.154000C719.427000,346.016000,723.013000,343.992000,722.386000,346.482000C721.884000,348.529000,724.367000,350.600000,726.448000,351.344000C726.448000,351.693000,726.448000,352.624000,726.598000,353.857000C727.771000,353.891000,728.913000,354.212000,729.908000,354.788000C730.026000,354.726000,730.157000,354.691000,730.292000,354.688000C730.427000,354.684000,730.561000,354.710000,730.682000,354.765000C730.803000,354.821000,730.908000,354.902000,730.987000,355.003000C731.066000,355.105000,731.118000,355.222000,731.137000,355.346000C731.472000,358.743000,730.416000,362.133000,728.178000,364.839000C731.889000,363.573000,735.297000,361.645000,738.208000,359.162000C742.191000,355.906000,745.052000,351.633000,746.433000,346.877000ZM737.205000,327.868000C737.205000,327.985000,737.205000,328.124000,737.205000,328.241000C737.192000,328.318000,737.192000,328.396000,737.205000,328.473000C737.205000,328.729000,737.205000,328.962000,737.205000,329.218000C737.081000,328.775000,737.081000,328.311000,737.205000,327.868000Z" fill="rgb(0,0,0)" stroke="none" stroke-width="1"/><path id="e4yex09ykkwl76" d="M717.496000,356.347000C716.715000,357.107000,715.648000,357.559000,714.517000,357.606000C713.387000,357.654000,712.280000,357.294000,711.428000,356.603000C710.901000,356.207000,710.299000,356.998000,710.826000,357.394000C711.867000,358.210000,713.201000,358.633000,714.563000,358.577000C715.925000,358.521000,717.214000,357.990000,718.173000,357.091000C718.649000,356.649000,717.972000,355.905000,717.496000,356.347000Z" fill="rgb(86,64,61)" stroke="none" stroke-width="1"/><path id="e4yex09ykkwl77" d="M717.672000,352.182000C717.476000,352.114000,717.258000,352.121000,717.068000,352.202000C716.877000,352.283000,716.729000,352.430000,716.656000,352.612000C716.583000,352.794000,716.591000,352.996000,716.678000,353.173000C716.765000,353.349000,716.924000,353.487000,717.120000,353.555000C717.316000,353.623000,717.533000,353.615000,717.724000,353.535000C717.914000,353.454000,718.062000,353.306000,718.136000,353.124000C718.209000,352.942000,718.201000,352.741000,718.114000,352.564000C718.027000,352.387000,717.868000,352.250000,717.672000,352.182000Z" fill="rgb(86,64,61)" stroke="none" stroke-width="1"/><path id="e4yex09ykkwl78" d="M709.271000,347.273000C709.075000,347.205000,708.858000,347.212000,708.667000,347.293000C708.477000,347.373000,708.329000,347.521000,708.256000,347.703000C708.183000,347.885000,708.190000,348.087000,708.277000,348.263000C708.364000,348.440000,708.524000,348.578000,708.720000,348.645000C708.916000,348.713000,709.133000,348.706000,709.324000,348.625000C709.514000,348.545000,709.662000,348.397000,709.735000,348.215000C709.808000,348.033000,709.801000,347.831000,709.714000,347.655000C709.627000,347.478000,709.467000,347.341000,709.271000,347.273000Z" fill="rgb(86,64,61)" stroke="none" stroke-width="1"/><path id="e4yex09ykkwl79" d="M725.319000,355.556000C725.319000,355.556000,732.014000,346.435000,733.744000,350.786000C735.475000,355.137000,724.692000,359.651000,724.692000,359.651000" fill="rgb(251,181,173)" stroke="none" stroke-width="1"/><path id="e4yex09ykkwl80" d="M270.510000,297.063000C270.234000,295.667000,268.002000,296.249000,268.203000,297.645000C270.345000,308.099000,271.868000,318.655000,272.766000,329.264000C272.766000,330.684000,275.274000,330.684000,275.274000,329.264000C274.321000,318.458000,272.730000,307.708000,270.510000,297.063000Z" fill="rgb(63,136,197)" fill-opacity="0.6" stroke="none" stroke-width="1"/><path id="e4yex09ykkwl81" d="M236.056000,350.623000C232.574000,340.983000,229.768000,331.144000,227.656000,321.167000C227.355000,319.771000,225.148000,320.353000,225.349000,321.749000C227.462000,331.725000,230.267000,341.565000,233.749000,351.205000C234.250000,352.554000,236.557000,351.973000,236.056000,350.623000Z" fill="rgb(63,136,197)" fill-opacity="0.6" stroke="none" stroke-width="1"/><path id="e4yex09ykkwl82" d="M258.072000,287.012000C240.973000,282.268000,225.548000,273.377000,213.389000,261.256000C212.611000,260.465000,211.332000,261.651000,212.135000,262.419000C224.514000,274.736000,240.206000,283.770000,257.596000,288.594000C257.804000,288.609000,258.011000,288.556000,258.182000,288.445000C258.353000,288.334000,258.477000,288.171000,258.533000,287.984000C258.589000,287.798000,258.574000,287.599000,258.490000,287.422000C258.406000,287.244000,258.258000,287.100000,258.072000,287.012000Z" fill="rgb(9,83,73)" stroke="none" stroke-width="1"/><path id="e4yex09ykkwl83" d="M276.878000,273.680000C265.011000,269.209000,253.798000,263.370000,243.503000,256.300000C242.575000,255.672000,241.673000,257.114000,242.600000,257.742000C253.032000,264.867000,264.388000,270.746000,276.402000,275.239000C277.455000,275.681000,277.931000,274.099000,276.878000,273.680000Z" fill="rgb(9,83,73)" stroke="none" stroke-width="1"/><path id="e4yex09ykkwl84" d="M265.795000,258.976000L257.520000,235.709000C257.169000,234.709000,255.439000,235.127000,255.790000,236.151000L264.065000,259.418000C264.340000,260.441000,266.071000,259.999000,265.795000,258.976000Z" fill="rgb(9,83,73)" stroke="none" stroke-width="1"/><path id="e4yex09ykkwl85" d="M636.752000,533.392000C638.387000,530.765000,574.785000,493.854000,494.695000,450.949000C414.604000,408.043000,348.353000,375.390000,346.719000,378.017000C345.085000,380.643000,408.686000,417.554000,488.777000,460.459000C568.867000,503.365000,635.118000,536.018000,636.752000,533.392000Z" fill="rgb(13,96,165)" stroke="none" stroke-width="1"/></g></svg>
